<svg width="9" height="8" viewBox="0 0 9 8" fill="none" xmlns="http://www.w3.org/2000/svg">
<path d="M1.39084 4.0001C1.24157 3.86586 1.04706 3.79302 0.846331 3.7962C0.6456 3.79938 0.453496 3.87834 0.308552 4.01724C0.163609 4.15615 0.0765483 4.34472 0.0648331 4.54513C0.053118 4.74555 0.117615 4.94298 0.245387 5.09783L2.0113 6.95123C2.08523 7.02879 2.17407 7.09061 2.27249 7.13299C2.37091 7.17536 2.47687 7.19742 2.58402 7.19782C2.69061 7.19845 2.79623 7.17764 2.89461 7.13665C2.993 7.09566 3.08214 7.03531 3.15675 6.95919L8.54993 1.39101C8.62305 1.3158 8.68065 1.22692 8.71942 1.12945C8.75819 1.03198 8.77739 0.927828 8.77591 0.82294C8.77444 0.718052 8.75231 0.614481 8.71081 0.518143C8.66931 0.421804 8.60923 0.334584 8.53402 0.261462C8.45881 0.188339 8.36993 0.130747 8.27246 0.0919729C8.175 0.0531988 8.07084 0.0340023 7.96595 0.0354796C7.86107 0.0369569 7.7575 0.0590789 7.66116 0.100583C7.56482 0.142086 7.4776 0.202159 7.40448 0.277371L2.59198 5.25692L1.39084 4.0001Z" fill="white"/>
</svg>
