<svg width="301" height="176" viewBox="0 0 301 176" fill="none" xmlns="http://www.w3.org/2000/svg">
    <!-- <animateTransform attributeType="xml" attributeName="transform" type="translate" values="0,0; 5,0; 0,0;" dur="2s" repeatCount="indefinite"/> -->

<g clip-path="url(#clip0_948_13595)">
<g opacity="0.8">
<path opacity="0.4" d="M36.8509 134.567C35.8944 135.216 28.2905 140.109 18.9891 146.08" stroke="#CCCCCC" stroke-width="0.852603" stroke-linecap="round" stroke-dasharray="1.42 2.13"/>
<g opacity="0.2">
<path d="M39.6111 134.374L39.8988 131.569L51.9832 124.647L40.6527 134.901C40.2278 135.286 39.5527 134.944 39.6111 134.374Z" fill="white" stroke="#4C4C4C" stroke-width="1.06575" stroke-linejoin="round"/>
<path d="M52.2057 125.709C52.7517 124.951 52.0863 123.916 51.1706 124.099L38.083 126.714C37.4515 126.84 37.1452 127.562 37.4936 128.103L42.8918 136.495C43.2402 137.036 44.0247 137.057 44.4012 136.535L52.2057 125.709Z" fill="white" stroke="#4C4C4C" stroke-width="1.06575"/>
<path d="M39.9228 131.681L52.095 124.622" stroke="#4C4C4C" stroke-width="1.06575"/>
</g>
<path opacity="0.4" d="M225.17 99.3669C222.857 100.939 181.637 127.347 171.6 133.76" stroke="#CCCCCC" stroke-width="0.852603" stroke-linecap="round" stroke-dasharray="1.42 2.13"/>
<g opacity="0.2">
<path d="M227.931 99.1742L228.219 96.3687L240.303 89.4467L228.973 99.7013C228.548 100.086 227.873 99.7444 227.931 99.1742Z" fill="white" stroke="#4C4C4C" stroke-width="1.06575" stroke-linejoin="round"/>
<path d="M240.526 90.5088C241.072 89.7511 240.406 88.7162 239.491 88.8992L226.404 91.5137C225.772 91.6396 225.466 92.362 225.814 92.9032L231.212 101.295C231.56 101.836 232.344 101.857 232.721 101.335L240.526 90.5088Z" fill="white" stroke="#4C4C4C" stroke-width="1.06575"/>
<path d="M228.244 96.4804L240.416 89.4219" stroke="#4C4C4C" stroke-width="1.06575"/>
</g>
<path opacity="0.4" d="M129.25 28.9667C126.937 30.5384 85.7167 56.946 75.6805 63.3598" stroke="#CCCCCC" stroke-width="0.852603" stroke-linecap="round" stroke-dasharray="1.42 2.13"/>
<g opacity="0.2">
<path d="M132.011 28.7743L132.299 25.9688L144.383 19.0464L133.053 29.3016C132.628 29.686 131.953 29.3442 132.011 28.7743Z" fill="white" stroke="#4C4C4C" stroke-width="1.06575" stroke-linejoin="round"/>
<path d="M144.606 20.1083C145.152 19.3508 144.486 18.3166 143.571 18.4994L130.484 21.1133C129.852 21.2395 129.546 21.9619 129.894 22.5035L135.292 30.8948C135.64 31.4363 136.425 31.4571 136.801 30.9347L144.606 20.1083Z" fill="white" stroke="#4C4C4C" stroke-width="1.06575"/>
<path d="M132.324 26.0806L144.496 19.0225" stroke="#4C4C4C" stroke-width="1.06575"/>
</g>
<g opacity="0.7">
<path opacity="0.4" d="M28.0509 60.6465C25.7367 62.2183 -15.4833 88.6256 -25.5195 95.0399" stroke="#CCCCCC" stroke-width="0.852603" stroke-linecap="round" stroke-dasharray="1.42 2.13"/>
<g opacity="0.2">
<path d="M30.8114 60.454L31.099 57.6485L43.1835 50.7262L31.8529 60.9813C31.4281 61.3658 30.7529 61.024 30.8114 60.454Z" fill="white" stroke="#4C4C4C" stroke-width="1.06575" stroke-linejoin="round"/>
<path d="M43.4059 51.7881C43.952 51.0307 43.2866 49.9964 42.3709 50.1792L29.2832 52.7932C28.6518 52.9193 28.3454 53.6417 28.6938 54.1833L34.0921 62.5746C34.4405 63.1161 35.2249 63.1369 35.6015 62.6145L43.4059 51.7881Z" fill="white" stroke="#4C4C4C" stroke-width="1.06575"/>
<path d="M31.123 57.7604L43.2953 50.7021" stroke="#4C4C4C" stroke-width="1.06575"/>
</g>
</g>
<path opacity="0.4" d="M106.368 142.953C105.214 143.737 84.6605 156.905 79.6562 160.103" stroke="#CCCCCC" stroke-width="0.425131" stroke-linecap="round" stroke-dasharray="0.71 1.06"/>
<g opacity="0.2">
<path d="M107.743 142.857L107.886 141.458L113.913 138.007L108.263 143.121C108.051 143.312 107.714 143.142 107.743 142.857Z" fill="white" stroke="#4C4C4C" stroke-width="0.531414" stroke-linejoin="round"/>
<path d="M114.024 138.537C114.296 138.159 113.964 137.643 113.507 137.734L106.982 139.037C106.667 139.101 106.514 139.461 106.688 139.731L109.379 143.915C109.553 144.184 109.944 144.195 110.132 143.935L114.024 138.537Z" fill="white" stroke="#4C4C4C" stroke-width="0.531414"/>
<path d="M107.899 141.515L113.969 137.995" stroke="#4C4C4C" stroke-width="0.531414"/>
</g>
<g opacity="0.6">
<path opacity="0.4" d="M222.698 158.85C221.544 159.635 200.991 172.802 195.986 176" stroke="#CCCCCC" stroke-width="0.425131" stroke-linecap="round" stroke-dasharray="0.71 1.06"/>
<g opacity="0.2">
<path d="M224.074 158.755L224.217 157.355L230.244 153.904L224.594 159.018C224.382 159.21 224.045 159.039 224.074 158.755Z" fill="white" stroke="#4C4C4C" stroke-width="0.531414" stroke-linejoin="round"/>
<path d="M230.355 154.434C230.627 154.055 230.295 153.54 229.838 153.631L223.312 154.934C222.998 154.998 222.845 155.358 223.019 155.628L225.71 159.811C225.884 160.082 226.275 160.092 226.464 159.832L230.355 154.434Z" fill="white" stroke="#4C4C4C" stroke-width="0.531414"/>
<path d="M224.23 157.412L230.299 153.892" stroke="#4C4C4C" stroke-width="0.531414"/>
</g>
</g>
<path opacity="0.5" d="M259.829 121.948C258.675 122.731 238.122 135.899 233.117 139.097" stroke="#CCCCCC" stroke-width="0.425131" stroke-linecap="round" stroke-dasharray="0.71 1.06"/>
<g opacity="0.3">
<path d="M261.205 121.852L261.348 120.453L267.374 117.001L261.724 122.115C261.513 122.307 261.176 122.136 261.205 121.852Z" fill="white" stroke="#4C4C4C" stroke-width="0.531414" stroke-linejoin="round"/>
<path d="M267.485 117.531C267.757 117.153 267.425 116.637 266.969 116.728L260.443 118.032C260.128 118.095 259.975 118.455 260.149 118.725L262.841 122.909C263.015 123.179 263.406 123.189 263.593 122.929L267.485 117.531Z" fill="white" stroke="#4C4C4C" stroke-width="0.531414"/>
<path d="M261.36 120.509L267.43 116.989" stroke="#4C4C4C" stroke-width="0.531414"/>
</g>
<g opacity="0.6">
<path opacity="0.4" d="M255.599 38.4048C254.445 39.1885 233.892 52.3561 228.888 55.5542" stroke="#CCCCCC" stroke-width="0.425131" stroke-linecap="round" stroke-dasharray="0.71 1.06"/>
<g opacity="0.2">
<path d="M256.975 38.3089L257.119 36.91L263.144 33.4584L257.495 38.5719C257.283 38.7635 256.946 38.5931 256.975 38.3089Z" fill="white" stroke="#4C4C4C" stroke-width="0.531414" stroke-linejoin="round"/>
<path d="M263.255 33.9878C263.528 33.6101 263.196 33.0944 262.739 33.1855L256.213 34.4889C255.898 34.5518 255.746 34.912 255.919 35.1821L258.611 39.3662C258.785 39.6363 259.176 39.6466 259.364 39.3861L263.255 33.9878Z" fill="white" stroke="#4C4C4C" stroke-width="0.531414"/>
<path d="M257.131 36.9658L263.201 33.4464" stroke="#4C4C4C" stroke-width="0.531414"/>
</g>
</g>
<path opacity="0.4" d="M210.89 33.1819C209.737 33.9656 189.183 47.1331 184.179 50.3312" stroke="#CCCCCC" stroke-width="0.425131" stroke-linecap="round" stroke-dasharray="0.71 1.06"/>
<g opacity="0.2">
<path d="M212.266 33.086L212.41 31.6872L218.435 28.2355L212.785 33.349C212.573 33.5407 212.237 33.3703 212.266 33.086Z" fill="white" stroke="#4C4C4C" stroke-width="0.531414" stroke-linejoin="round"/>
<path d="M218.546 28.765C218.819 28.3873 218.487 27.8715 218.03 27.9628L211.504 29.2661C211.189 29.329 211.037 29.6893 211.21 29.9593L213.902 34.1434C214.075 34.4134 214.467 34.4238 214.654 34.1633L218.546 28.765Z" fill="white" stroke="#4C4C4C" stroke-width="0.531414"/>
<path d="M212.422 31.7429L218.491 28.2235" stroke="#4C4C4C" stroke-width="0.531414"/>
</g>
<path opacity="0.4" d="M64.1004 78.119C62.9464 78.9027 42.3931 92.0699 37.3887 95.26/87" stroke="#CCCCCC" stroke-width="0.425131" stroke-linecap="round" stroke-dasharray="0.71 1.06">
            <animate attributeName="stroke-dasharray" 
                    from="0, 100" 
                    to="1.42, 2.13" 
                     dur="2s" 
                     repeatCount="indefinite" />
        </path>
<g opacity="0.2">
<path d="M65.4763 78.0232L65.6197 76.6242L71.6453 73.1726L65.9956 78.2861C65.7838 78.4778 65.4471 78.3073 65.4763 78.0232Z" fill="white" stroke="#4C4C4C" stroke-width="0.531414" stroke-linejoin="round"/>
<path d="M71.7563 73.7021C72.0286 73.3243 71.6968 72.8086 71.2402 72.8998L64.7144 74.2031C64.3994 74.2661 64.2467 74.6262 64.4204 74.8963L67.1122 79.0805C67.2859 79.3504 67.6771 79.3608 67.8648 79.1003L71.7563 73.7021Z" fill="white" stroke="#4C4C4C" stroke-width="0.531414"/>
<path d="M65.6318 76.68L71.7013 73.1605" stroke="#4C4C4C" stroke-width="0.531414"/>
</g>
<path d="M26.1551 104.278C22.6829 106.636 13.4286 112.618 7.04004 116.731" stroke="#CCCCCC" stroke-width="1.06575" stroke-linecap="round" stroke-dasharray="2.13 2.84">
            <animate attributeName="stroke-dasharray" 
                    from="0, 100" 
                    to="1.42, 2.13" 
                     dur="2s" 
                     repeatCount="indefinite" />
        </path>
<path d="M183.676 160.598C180.479 162.77 172.381 168.012 166.13 172.04" stroke="#CCCCCC" stroke-width="1.06575" stroke-linecap="round" stroke-dasharray="2.13 2.84">
            <animate attributeName="stroke-dasharray" 
                    from="0, 100" 
                    to="1.42, 2.13" 
                     dur="2s" 
                     repeatCount="indefinite" />
        </path>
<path d="M48.124 144.844C44.8717 147.052 25.9767 159.195 11.001 168.797" stroke="#CCCCCC" stroke-width="1.421" stroke-linecap="round" stroke-dasharray="2.84 4.26">
            <animate attributeName="stroke-dasharray" 
                    from="0, 100" 
                    to="1.42, 2.13" 
                     dur="2s" 
                     repeatCount="indefinite" />
        </path>
<path d="M233.66 31.24C228.14 34.989 195.369 55.8519 183.147 64.0498" stroke="#CCCCCC" stroke-width="1.06575" stroke-linecap="round" stroke-dasharray="2.13 2.84"/>
<path d="M237.698 161.545C234.956 163.407 225.49 169.491 215.16 176.15" stroke="#CCCCCC" stroke-width="1.06575" stroke-linecap="round" stroke-dasharray="2.13 2.84">
            <animate attributeName="stroke-dasharray" 
                    from="0, 100" 
                    to="1.42, 2.13" 
                     dur="2s" 
                     repeatCount="indefinite" />
        </path>
<path d="M206.018 98.1851C203.276 100.047 193.811 106.131 183.48 112.79" stroke="#CCCCCC" stroke-width="1.06575" stroke-linecap="round" stroke-dasharray="2.13 2.84"/>
<path d="M74.018 80.5853C71.2762 82.4475 61.8111 88.5315 51.4805 95.1895" stroke="#CCCCCC" stroke-width="1.06575" stroke-linecap="round" stroke-dasharray="2.13 2.84">
            <animate attributeName="stroke-dasharray" 
                    from="0, 100" 
                    to="1.42, 2.13" 
                     dur="2s" 
                     repeatCount="indefinite" />
        </path>
<path d="M147.938 142.185C144.307 144.651 128.888 154.52 115.28 163.32" stroke="#CCCCCC" stroke-width="1.06575" stroke-linecap="round" stroke-dasharray="2.13 2.84">
            <animate attributeName="stroke-dasharray" 
                    from="0, 100" 
                    to="1.42, 2.13" 
                     dur="2s" 
                     repeatCount="indefinite" />
        </path>
<path d="M79.7058 39.6416C74.1857 43.3906 41.4144 64.2535 29.1932 72.4514" stroke="#CCCCCC" stroke-width="1.06575" stroke-linecap="round" stroke-dasharray="2.13 2.84"/>
<path d="M181.511 17.9895C175.99 21.7385 135.064 47.5999 122.843 55.7978" stroke="#CCCCCC" stroke-width="1.06575" stroke-linecap="round" stroke-dasharray="2.13 2.84">
            <animate attributeName="stroke-dasharray" 
                    from="0, 100" 
                    to="1.42, 2.13" 
                     dur="2s" 
                     repeatCount="indefinite" />
        </path>
<path d="M96.7702 74.4547C94.4558 76.0264 89.1318 79.0405 79.0957 85.4543" stroke="#DDDDDC" stroke-width="1.06575" stroke-linecap="round" stroke-dasharray="2.13 2.84"/>
<path d="M94.2353 166.787C91.9209 168.36 83.3837 173.818 73.3475 180.231" stroke="#DDDDDC" stroke-width="0.852603" stroke-linecap="round" stroke-dasharray="1.42 2.13"/>
<path d="M261.727 53.6846C259.412 55.2563 238.837 68.8262 228.801 75.24" stroke="#CCCCCC" stroke-width="0.852603" stroke-linecap="round" stroke-dasharray="1.42 2.13">
            <animate attributeName="stroke-dasharray" 
                    from="0, 100" 
                    to="1.42, 2.13" 
                     dur="2s" 
                     repeatCount="indefinite" />
        </path>
<path d="M261.25 97.6069C258.937 99.1786 217.717 125.587 207.68 132" stroke="#CCCCCC" stroke-width="0.852603" stroke-linecap="round" stroke-dasharray="1.42 2.13"/>
<path d="M208.451 65.9268C206.137 67.4984 164.917 93.9064 154.881 100.32" stroke="#CCCCCC" stroke-width="0.852603" stroke-linecap="round" stroke-dasharray="1.42 2.13"/>
<path d="M120.451 95.8469C118.137 97.4186 76.9171 123.827 66.8809 130.24" stroke="#CCCCCC" stroke-width="0.852603" stroke-linecap="round" stroke-dasharray="1.42 2.13"/>
<path d="M172.371 50.0868C170.057 51.6585 128.837 78.0661 118.801 84.4799" stroke="#CCCCCC" stroke-width="0.852603" stroke-linecap="round" stroke-dasharray="1.42 2.13"/>
<path d="M46.5306 25.4468C45.1963 26.353 30.9278 35.5158 17.1602 44.3422" 
              stroke="#CCCCCC" 
              stroke-width="0.852603" 
              stroke-linecap="round" 
              stroke-dasharray="1.42 2.13">
            <animate attributeName="stroke-dasharray" 
                    from="0, 100" 
                    to="1.42, 2.13" 
                     dur="2s" 
                     repeatCount="indefinite" />
        </path>
        <path d="M49.2907 25.2543L49.5783 22.4488L61.6628 15.5265L50.3322 25.7817C49.9074 26.1661 49.2322 25.8242 49.2907 25.2543Z" fill="white" stroke="#4C4C4C" stroke-width="1.06575" stroke-linejoin="round"/>
<path d="M61.8854 16.5885C62.4315 15.831 61.7661 14.7966 60.8504 14.9796L47.7627 17.5934C47.1313 17.7195 46.8249 18.442 47.1733 18.9836L52.5716 27.3748C52.92 27.9164 53.7044 27.9372 54.081 27.4147L61.8854 16.5885Z" fill="white" stroke="#4C4C4C" stroke-width="1.06575"><animate attributeName="opacity" 
                     values="1; 0; 1" 
                     dur="2s" 
                     repeatCount="indefinite" />
        </path>
<path d="M49.6035 22.5607L61.7758 15.5024" stroke="#4C4C4C" stroke-width="1.06575"/>
<path d="M237.703 31.7209L238.221 26.6708L260.634 13.8322L239.734 32.7487C238.906 33.4981 237.589 32.8318 237.703 31.7209Z" fill="white" stroke="#4C4C4C" stroke-width="1.24338" stroke-linejoin="round"/>
<path d="M261.045 15.8018C262.058 14.3969 260.825 12.4786 259.126 12.8178L234.853 17.6656C233.682 17.8996 233.113 19.2395 233.76 20.244L243.772 35.8068C244.418 36.8113 245.872 36.8498 246.571 35.8809L261.045 15.8018Z" fill="white" stroke="#4C4C4C" stroke-width="1.24338"><animate attributeName="opacity" 
                     values="1; 0; 1" 
                     dur="2s" 
                     repeatCount="indefinite" />
        </path>
<path d="M238.265 26.8781L260.84 13.7876" stroke="#4C4C4C" stroke-width="1.24338"/>
<path d="M242.103 161.961L242.621 156.911L265.034 144.073L244.134 162.989C243.306 163.738 241.989 163.072 242.103 161.961Z" fill="white" stroke="#4C4C4C" stroke-width="1.24338" stroke-linejoin="round"/>
<path d="M265.445 146.042C266.458 144.637 265.224 142.718 263.526 143.058L239.253 147.906C238.081 148.14 237.513 149.479 238.16 150.484L248.172 166.047C248.817 167.051 250.272 167.09 250.971 166.121L265.445 146.042Z" fill="white" stroke="#4C4C4C" stroke-width="1.24338"><animate attributeName="opacity" 
                     values="1; 0; 1" 
                     dur="2s" 
                     repeatCount="indefinite" />
        </path>
<path d="M242.665 157.119L265.24 144.028" stroke="#4C4C4C" stroke-width="1.24338"/>
<path d="M210.423 98.6012L210.94 93.5509L233.353 80.7122L212.453 99.6291C211.625 100.378 210.309 99.7118 210.423 98.6012Z" fill="white" stroke="#4C4C4C" stroke-width="1.24338" stroke-linejoin="round"/>
<path d="M233.765 82.6818C234.778 81.2769 233.545 79.3586 231.846 79.6978L207.573 84.5457C206.402 84.7796 205.833 86.1195 206.48 87.124L216.492 102.687C217.138 103.691 218.592 103.73 219.291 102.761L233.765 82.6818Z" fill="white" stroke="#4C4C4C" stroke-width="1.24338"/>
<path d="M210.985 93.7587L233.561 80.6677" stroke="#4C4C4C" stroke-width="1.24338"/>
<path d="M78.4231 81.0009L78.9409 75.9509L101.354 63.1122L80.4532 82.0288C79.6252 82.7782 78.3092 82.1118 78.4231 81.0009Z" fill="white" stroke="#4C4C4C" stroke-width="1.24338" stroke-linejoin="round"/>
<path d="M101.765 65.0818C102.778 63.6769 101.545 61.7586 99.8462 62.0978L75.5729 66.9457C74.4016 67.1797 73.8335 68.5196 74.4797 69.524L84.4916 85.0868C85.1378 86.0913 86.5927 86.1299 87.2911 85.161L101.765 65.0818Z" fill="white" stroke="#4C4C4C" stroke-width="1.24338"><animate attributeName="opacity" 
                     values="1; 0; 1" 
                     dur="2s" 
                     repeatCount="indefinite" />
        </path>
<path d="M78.9852 76.1582L101.56 63.0676" stroke="#4C4C4C" stroke-width="1.24338"/>
<path d="M152.344 142.601L152.862 137.551L175.274 124.713L154.374 143.629C153.546 144.378 152.23 143.712 152.344 142.601Z" fill="white" stroke="#4C4C4C" stroke-width="1.24338" stroke-linejoin="round"/>
<path d="M175.687 126.682C176.699 125.277 175.465 123.358 173.767 123.698L149.494 128.546C148.322 128.78 147.755 130.119 148.401 131.124L158.412 146.687C159.058 147.691 160.514 147.73 161.212 146.761L175.687 126.682Z" fill="white" stroke="#4C4C4C" stroke-width="1.24338"><animate attributeName="opacity" 
                     values="1; 0; 1" 
                     dur="2s" 
                     repeatCount="indefinite" />
        </path>
<path d="M152.906 137.759L175.482 124.668" stroke="#4C4C4C" stroke-width="1.24338"/>
<path d="M29.6515 103.236L29.9654 100.175L46.9479 90.4473L31.6815 104.264C30.8535 105.014 29.5375 104.348 29.6515 103.236Z" fill="white" stroke="#4C4C4C" stroke-width="1.06575" stroke-linejoin="round"/>
<path d="M47.2602 91.9388C48.0276 90.8749 47.0925 89.4211 45.8057 89.6781L27.4133 93.3512C26.5258 93.529 26.0954 94.5436 26.5851 95.3048L34.1713 107.098C34.6609 107.859 35.7633 107.888 36.2925 107.154L47.2602 91.9388Z" fill="white" stroke="#4C4C4C" stroke-width="1.06575"/>
<path d="M29.999 100.332L47.105 90.4128" stroke="#4C4C4C" stroke-width="1.06575"/>
<path d="M187.172 159.556L187.485 156.495L204.468 146.767L189.202 160.584C188.374 161.334 187.058 160.668 187.172 159.556Z" fill="white" stroke="#4C4C4C" stroke-width="1.06575" stroke-linejoin="round"/>
<path d="M204.781 148.259C205.548 147.195 204.613 145.741 203.326 145.998L184.933 149.671C184.046 149.849 183.616 150.864 184.105 151.625L191.692 163.418C192.181 164.179 193.284 164.208 193.813 163.474L204.781 148.259Z" fill="white" stroke="#4C4C4C" stroke-width="1.06575"><animate attributeName="opacity" 
                     values="1; 0; 1" 
                     dur="2s" 
                     repeatCount="indefinite" />
        </path>
<path d="M187.52 156.652L204.625 146.733" stroke="#4C4C4C" stroke-width="1.06575"/>
<path d="M185.352 17.7806L185.762 13.7794L201.112 4.98694L186.394 18.3079C185.969 18.6923 185.294 18.3505 185.352 17.7806Z" fill="white" stroke="#4C4C4C" stroke-width="1.06575" stroke-linejoin="round"/>
<path d="M201.395 6.33575C202.088 5.37363 201.242 4.05989 200.08 4.29218L183.457 7.61224C182.654 7.77245 182.265 8.69006 182.708 9.378L189.564 20.0361C190.007 20.724 191.004 20.7504 191.481 20.0869L201.395 6.33575Z" fill="white" stroke="#4C4C4C" stroke-width="1.06575"><animate attributeName="opacity" 
                     values="1; 0; 1" 
                     dur="2s" 
                     repeatCount="indefinite" />
        </path>
<path d="M185.793 13.9213L201.254 4.9563" stroke="#4C4C4C" stroke-width="1.06575"/>
<path d="M52.8663 150.487L53.9996 139.435L95.2381 115.812L55.4702 151.805C54.4082 152.767 52.7202 151.912 52.8663 150.487Z" fill="white" stroke="#4C4C4C" stroke-width="1.421" stroke-linejoin="round"/>
<path d="M95.9974 119.436C97.8604 116.852 95.59 113.322 92.4651 113.946L47.8035 122.866C45.6484 123.296 44.6031 125.762 45.7922 127.61L64.2137 156.245C65.4026 158.093 68.0795 158.164 69.3646 156.381L95.9974 119.436Z" fill="white" stroke="#4C4C4C" stroke-width="1.421"><animate attributeName="opacity" 
                     values="1; 0; 1" 
                     dur="2s" 
                     repeatCount="indefinite" />
        </path>
<path d="M54.0818 139.817L95.6195 115.73" stroke="#4C4C4C" stroke-width="1.421"/>
<path d="M82.4542 41.5682L83.0735 35.5292L110.623 19.7477L85.058 42.8865C83.996 43.8477 82.3081 42.9931 82.4542 41.5682Z" fill="white" stroke="#4C4C4C" stroke-width="1.421" stroke-linejoin="round"/>
<path d="M111.131 22.1687C112.376 20.4419 110.859 18.0839 108.771 18.5008L78.9344 24.4599C77.4946 24.7475 76.7963 26.3945 77.5906 27.6292L89.8973 46.7593C90.6919 47.9941 92.4801 48.0414 93.3389 46.8504L111.131 22.1687Z" fill="white" stroke="#4C4C4C" stroke-width="1.421"><animate attributeName="opacity" 
                     values="1; 0; 1" 
                     dur="2s" 
                     repeatCount="indefinite" />
        </path>
<path d="M83.1287 35.784L110.879 19.6929" stroke="#4C4C4C" stroke-width="1.421"/>
<path d="M264.011 97.4142L264.299 94.6088L276.383 87.6865L265.053 97.9413C264.628 98.3259 263.953 97.9845 264.011 97.4142Z" fill="white" stroke="#4C4C4C" stroke-width="1.06575" stroke-linejoin="round"/>
<path d="M276.606 88.7487C277.152 87.9909 276.486 86.9565 275.571 87.1395L262.484 89.7537C261.852 89.8795 261.546 90.602 261.894 91.1432L267.292 99.5349C267.64 100.076 268.425 100.097 268.801 99.5745L276.606 88.7487Z" fill="white" stroke="#4C4C4C" stroke-width="1.06575"><animate attributeName="opacity" 
                     values="1; 0; 1" 
                     dur="2s" 
                     repeatCount="indefinite" />
        </path>
<path d="M264.323 94.7205L276.496 87.6625" stroke="#4C4C4C" stroke-width="1.06575"/>
<path d="M211.211 65.7343L211.498 62.9288L223.582 56.0065L212.252 66.2616C211.827 66.6461 211.152 66.3042 211.211 65.7343Z" fill="white" stroke="#4C4C4C" stroke-width="1.06575" stroke-linejoin="round"/>
<path d="M223.805 57.0684C224.352 56.3109 223.685 55.2766 222.77 55.4595L209.683 58.0734C209.051 58.1995 208.745 58.922 209.093 59.4636L214.491 67.8548C214.84 68.3964 215.624 68.4172 216 67.8947L223.805 57.0684Z" fill="white" stroke="#4C4C4C" stroke-width="1.06575"><animate attributeName="opacity" 
                     values="1; 0; 1" 
                     dur="2s" 
                     repeatCount="indefinite" />
        </path>
<path d="M211.523 63.0406L223.696 55.9824" stroke="#4C4C4C" stroke-width="1.06575"/>
<path d="M123.211 95.6542L123.498 92.8488L135.582 85.9265L124.252 96.1813C123.827 96.5659 123.152 96.2244 123.211 95.6542Z" fill="white" stroke="#4C4C4C" stroke-width="1.06575" stroke-linejoin="round"/>
<path d="M135.805 86.9884C136.352 86.2309 135.685 85.1965 134.77 85.3795L121.683 87.9933C121.051 88.1195 120.745 88.842 121.093 89.3832L126.491 97.7749C126.84 98.3161 127.624 98.3372 128 97.8145L135.805 86.9884Z" fill="white" stroke="#4C4C4C" stroke-width="1.06575"><animate attributeName="opacity" 
                     values="1; 0; 1" 
                     dur="2s" 
                     repeatCount="indefinite" />
        </path>
<path d="M123.523 92.9605L135.696 85.9025" stroke="#4C4C4C" stroke-width="1.06575"/>
<path d="M175.131 49.8943L175.419 47.0889L187.503 40.1665L176.173 50.4217C175.748 50.8061 175.073 50.4643 175.131 49.8943Z" fill="white" stroke="#4C4C4C" stroke-width="1.06575" stroke-linejoin="round"/>
<path d="M187.726 41.2285C188.273 40.471 187.606 39.4366 186.691 39.6196L173.604 42.2334C172.972 42.3595 172.666 43.082 173.014 43.6237L178.412 52.0148C178.761 52.5564 179.545 52.5772 179.921 52.0548L187.726 41.2285Z" fill="white" stroke="#4C4C4C" stroke-width="1.06575"><animate attributeName="opacity" 
                     values="1; 0; 1" 
                     dur="2s" 
                     repeatCount="indefinite" />
        </path>
<path d="M175.443 47.2007L187.616 40.1425" stroke="#4C4C4C" stroke-width="1.06575"/>
<path d="M99.0484 73.7785L99.3362 70.973L111.42 64.0507L100.09 74.3058C99.6653 74.6903 98.9904 74.3485 99.0484 73.7785Z" fill="white" stroke="#DDDDDD" stroke-width="1.06575" stroke-linejoin="round"/>
<path d="M111.643 65.1126C112.19 64.3552 111.523 63.3208 110.608 63.5037L97.5208 66.1177C96.889 66.2438 96.5827 66.9662 96.9312 67.5078L102.329 75.899C102.678 76.4407 103.462 76.4614 103.838 75.939L111.643 65.1126Z" fill="white" stroke="#DDDDDD" stroke-width="1.06575"><animate attributeName="opacity" 
                     values="1; 0; 1" 
                     dur="2s" 
                     repeatCount="indefinite" />
        </path>
<path d="M99.3604 71.0848L111.533 64.0266" stroke="#DDDDDD" stroke-width="1.06575"/>
<path d="M96.2782 166.709L96.5414 164.141L105.766 158.858L96.7983 166.973C96.5862 167.166 96.2483 166.994 96.2782 166.709Z" fill="white" stroke="#4C4C4C" stroke-width="0.852603" stroke-linejoin="round"/>
<path d="M105.934 159.668C106.351 159.09 105.842 158.3 105.143 158.44L95.1537 160.435C94.6724 160.531 94.4383 161.083 94.704 161.497L98.8242 167.901C99.0909 168.315 99.6893 168.331 99.977 167.932L105.934 159.668Z" fill="white" stroke="#4C4C4C" stroke-width="0.852603"><animate attributeName="opacity" 
                     values="1; 0; 1" 
                     dur="2s" 
                     repeatCount="indefinite" />
        </path>
<path d="M96.5594 164.226L105.85 158.839" stroke="#4C4C4C" stroke-width="0.852603"/>
<path d="M263.769 53.6061L264.032 51.0381L273.257 45.7544L264.29 53.8698C264.078 54.062 263.74 53.8911 263.769 53.6061Z" fill="white" stroke="#4C4C4C" stroke-width="0.852603" stroke-linejoin="round"/>
<path d="M273.426 46.5651C273.843 45.9869 273.335 45.1975 272.636 45.337L262.646 47.3322C262.164 47.4285 261.93 47.98 262.197 48.3933L266.317 54.7982C266.583 55.2116 267.182 55.2275 267.469 54.8287L273.426 46.5651Z" fill="white" stroke="#4C4C4C" stroke-width="0.852603"><animate attributeName="opacity" 
                     values="1; 0; 1" 
                     dur="2s" 
                     repeatCount="indefinite" />
        </path>
<path d="M264.051 51.1235L273.342 45.7361" stroke="#4C4C4C" stroke-width="0.852603"/>
</g>
<path opacity="0.14" fill-rule="evenodd" clip-rule="evenodd" d="M187.631 41.3599H177.977L173.604 42.2334C172.972 42.3595 172.666 43.0819 173.014 43.6236L178.412 52.0147C178.761 52.5564 179.546 52.5771 179.921 52.0547L187.631 41.3599Z" fill="#4C4C4C"/>
<path opacity="0.16" fill-rule="evenodd" clip-rule="evenodd" d="M97.2962 41.3599H86.4238L89.8972 46.7592C90.6918 47.9939 92.48 48.0413 93.3389 46.8503L97.2962 41.3599Z" fill="#4C4C4C"/>
<path opacity="0.12" fill-rule="evenodd" clip-rule="evenodd" d="M71.2402 72.8998C71.6967 72.8086 72.0286 73.3243 71.7563 73.702L67.8648 79.1003C67.677 79.3608 67.2859 79.3504 67.1121 79.0804L64.4204 74.8963C64.2467 74.6262 64.3994 74.2661 64.7144 74.2031L71.2402 72.8998Z" fill="#4C4C4C"/>
<path opacity="0.12" fill-rule="evenodd" clip-rule="evenodd" d="M239.491 88.8992C240.406 88.7162 241.072 89.7511 240.526 90.5088L232.721 101.335C232.345 101.857 231.56 101.836 231.212 101.295L225.814 92.9032C225.466 92.362 225.772 91.6396 226.404 91.5137L239.491 88.8992Z" fill="#4C4C4C"/>
<path opacity="0.1" fill-rule="evenodd" clip-rule="evenodd" d="M113.661 139.04H106.971C106.974 139.039 106.978 139.038 106.982 139.037L113.508 137.734C113.964 137.643 114.296 138.159 114.024 138.537L113.661 139.04Z" fill="#4C4C4C"/>
<path opacity="0.12" fill-rule="evenodd" clip-rule="evenodd" d="M166.777 139.04H153.493L148.4 131.124C147.753 130.119 148.322 128.779 149.493 128.546L173.766 123.698C175.465 123.358 176.698 125.277 175.685 126.682L166.777 139.04Z" fill="#4C4C4C"/>
<path opacity="0.12" fill-rule="evenodd" clip-rule="evenodd" d="M81.8644 139.04H58.9602C54.1001 139.04 50.1602 135.1 50.1602 130.24V122.395L92.4635 113.946C95.5884 113.322 97.8597 116.852 95.9958 119.436L81.8644 139.04Z" fill="#4C4C4C"/>
<path d="M241.121 43.5599H59.8408C55.9527 43.5599 52.8008 46.7119 52.8008 50.5999V124.52C52.8008 128.408 55.9527 131.56 59.8408 131.56H241.121C245.009 131.56 248.161 128.408 248.161 124.52V50.5999C248.161 46.7119 245.009 43.5599 241.121 43.5599Z" fill="white" fill-opacity="0.94" stroke="#3785D7" stroke-width="1.5"/>
<path opacity="0.3" d="M252.56 54.8451V48.8399C252.56 43.4938 248.226 39.1599 242.88 39.1599H231.701M252.56 68.2244V75.5903V75.6554M252.56 78.8251V82.0599M252.56 109.519V113.552M252.56 120.275V126.28C252.56 131.626 248.226 135.96 242.88 135.96H223.268M216.128 135.96H211.246M208.063 135.96H204.956M140.196 135.96H133.539M128.924 135.96H124.486M48.4005 113.552V118.36M48.4005 110.35V105.42M48.4005 76.3562V70.9784M48.4005 54.8451V48.8399C48.4005 43.4938 52.7344 39.1599 58.0805 39.1599H63.4905M67.0411 39.1599H71.9232M126.782 39.1599H129.888M133.944 39.1599H137.939M207.688 39.1599H212.126M227.568 39.1599H228.915" stroke="#3785D7" stroke-width="1.5" stroke-linecap="round"/>
<path d="M218.732 89.452H223.22C223.396 89.452 223.484 89.5399 223.484 89.7159V94.204C223.484 96.008 224.628 97.064 226.168 97.064C227.708 97.064 228.852 96.008 228.852 94.204V89.7159C228.852 89.5399 228.94 89.452 229.116 89.452H233.604C235.32 89.452 236.376 88.3959 236.376 86.8559C236.376 85.3159 235.32 84.26 233.604 84.26H229.116C228.94 84.26 228.852 84.1719 228.852 83.9959V79.5079C228.852 77.7039 227.708 76.6479 226.168 76.6479C224.628 76.6479 223.484 77.7039 223.484 79.5079V83.9959C223.484 84.1719 223.396 84.26 223.22 84.26H218.732C217.016 84.26 215.96 85.3159 215.96 86.8559C215.96 88.3959 217.016 89.452 218.732 89.452Z" fill="#4C4C4C"/>
<g opacity="0.85">
 <path opacity="0.85" d="M82.1053 154.853L81.2302 149.17" stroke="#DDDDDD" stroke-width="1.25" stroke-linecap="round" stroke-linejoin="round">
    <animate attributeName="d" dur="1s" repeatCount="indefinite"
      values="M82.1053 154.853L81.2302 149.17; M81.2302 149.17L82.1053 154.853" />
  </path>
  <path opacity="0.85" d="M88.7741 144.896L83.8154 145.659" stroke="#DDDDDD" stroke-width="1.25" stroke-linecap="round" stroke-linejoin="round">
    <animate attributeName="d" dur="1s" repeatCount="indefinite"
      values="M88.7741 144.896L83.8154 145.659; M83.8154 145.659L88.7741 144.896" />
  </path>
  <path opacity="0.85" d="M84.704 149.035L82.9836 147.741" stroke="#DDDDDD" stroke-width="1.25" stroke-linecap="round" stroke-linejoin="round">
    <animate attributeName="d" dur="1s" repeatCount="indefinite"
      values="M84.704 149.035L82.9836 147.741; M82.9836 147.741L84.704 149.035" />
  </path>
  <path opacity="0.85" d="M86.1949 150.134L85.9861 149.954" stroke="#DDDDDD" stroke-width="1.25" stroke-linecap="round" stroke-linejoin="round">
    <animate attributeName="d" dur="1s" repeatCount="indefinite"
      values="M86.1949 150.134L85.9861 149.954; M85.9861 149.954L86.1949 150.134" />
  </path>
  <path opacity="0.85" d="M87.8777 151.373L87.7852 151.284" stroke="#DDDDDD" stroke-width="1.25" stroke-linecap="round" stroke-linejoin="round">
    <animate attributeName="d" dur="1s" repeatCount="indefinite"
      values="M87.8777 151.373L87.7852 151.284; M87.7852 151.284L87.8777 151.373" />
  </path>
  <path opacity="0.85" d="M83.7889 141.993L82.3954 143.919" stroke="#DDDDDD" stroke-width="1.25" stroke-linecap="round" stroke-linejoin="round">
    <animate attributeName="d" dur="1s" repeatCount="indefinite"
      values="M83.7889 141.993L82.3954 143.919; M82.3954 143.919L83.7889 141.993" />
  </path>
  <path opacity="0.85" d="M85.3172 139.884L84.7998 140.6" stroke="#DDDDDD" stroke-width="1.25" stroke-linecap="round" stroke-linejoin="round">
    <animate attributeName="d" dur="1s" repeatCount="indefinite"
      values="M85.3172 139.884L84.7998 140.6; M84.7998 140.6L85.3172 139.884" />
  </path>
  <path opacity="0.85" d="M79.1278 148.334L77.5476 150.537" stroke="#DDDDDD" stroke-width="1.25" stroke-linecap="round" stroke-linejoin="round">
    <animate attributeName="d" dur="1s" repeatCount="indefinite"
      values="M79.1278 148.334L77.5476 150.537; M77.5476 150.537L79.1278 148.334" />
  </path>
  <path opacity="0.85" d="M76.3519 152.141L75.6836 153.094" stroke="#DDDDDD" stroke-width="1.25" stroke-linecap="round" stroke-linejoin="round">
    <animate attributeName="d" dur="1s" repeatCount="indefinite"
      values="M76.3519 152.141L75.6836 153.094; M75.6836 153.094L76.3519 152.141" />
  </path>
</g>
<g opacity="0.5">
 <path id="path1" opacity="0.85" d="M247.817 5.79358L244.675 10.6082" stroke="#3785D7" stroke-width="1.25" stroke-linecap="round" stroke-linejoin="round">
    <animate attributeName="d" dur="1s" repeatCount="indefinite"
      values="M247.817 5.79358L244.675 10.6082; M244.675 10.6082L247.817 5.79358" />
  </path>
  <path id="path2" opacity="0.85" d="M236.205 8.75208L240.406 11.4946" stroke="#3785D7" stroke-width="1.25" stroke-linecap="round" stroke-linejoin="round">
    <animate attributeName="d" dur="1s" repeatCount="indefinite"
      values="M236.205 8.75208L240.406 11.4946; M240.406 11.4946L236.205 8.75208" />
  </path>
  <path id="path3" opacity="0.85" d="M241.999 8.38879L242.415 10.5008" stroke="#3785D7" stroke-width="1.25" stroke-linecap="round" stroke-linejoin="round">
    <animate attributeName="d" dur="1s" repeatCount="indefinite"
      values="M241.999 8.38879L242.415 10.5008; M242.415 10.5008L241.999 8.38879" />
  </path>
  <path id="path4" opacity="0.85" d="M241.622 6.5752L241.657 6.84874" stroke="#3785D7" stroke-width="1.25" stroke-linecap="round" stroke-linejoin="round">
    <animate attributeName="d" dur="1s" repeatCount="indefinite"
      values="M241.622 6.5752L241.657 6.84874; M241.657 6.84874L241.622 6.5752" />
  </path>
  <path id="path5" opacity="0.85" d="M241.197 4.5293L241.207 4.6575" stroke="#3785D7" stroke-width="1.25" stroke-linecap="round" stroke-linejoin="round">
    <animate attributeName="d" dur="1s" repeatCount="indefinite"
      values="M241.197 4.5293L241.207 4.6575; M241.207 4.6575L241.197 4.5293" />
  </path>
  <path id="path6" opacity="0.85" d="M237.978 14.2418L240.302 13.7391" stroke="#3785D7" stroke-width="1.25" stroke-linecap="round" stroke-linejoin="round">
    <animate attributeName="d" dur="1s" repeatCount="indefinite"
      values="M237.978 14.2418L240.302 13.7391; M240.302 13.7391L237.978 14.2418" />
  </path>
  <path id="path7" opacity="0.85" d="M235.433 14.7919L236.296 14.6039" stroke="#3785D7" stroke-width="1.25" stroke-linecap="round" stroke-linejoin="round">
    <animate attributeName="d" dur="1s" repeatCount="indefinite"
      values="M235.433 14.7919L236.296 14.6039; M236.296 14.6039L235.433 14.7919" />
  </path>
  <path id="path8" opacity="0.85" d="M245.682 12.6335L248.329 12.0488" stroke="#3785D7" stroke-width="1.25" stroke-linecap="round" stroke-linejoin="round">
    <animate attributeName="d" dur="1s" repeatCount="indefinite"
      values="M245.682 12.6335L248.329 12.0488; M248.329 12.0488L245.682 12.6335" />
  </path>
  <path id="path9" opacity="0.85" d="M250.291 11.6535L251.424 11.3909" stroke="#3785D7" stroke-width="1.25" stroke-linecap="round" stroke-linejoin="round">
    <animate attributeName="d" dur="1s" repeatCount="indefinite"
      values="M250.291 11.6535L251.424 11.3909; M251.424 11.3909L250.291 11.6535" />
  </path>
</g>
</g>
<defs>
<clipPath id="clip0_948_13595">
<rect width="300.96" height="176" fill="white"/>
</clipPath>
</defs>
</svg>
