<svg width="1440" height="660" viewBox="0 0 1440 660" fill="none" xmlns="http://www.w3.org/2000/svg">
<g style="mix-blend-mode:overlay" opacity="0.45">
<path fill-rule="evenodd" clip-rule="evenodd" d="M776.093 500.787C821.602 527.286 869.888 490.884 874.881 422.212C882.733 314.189 979.312 263.763 1081.8 347.108C1118.43 376.9 1187.97 352.057 1205.48 275.507C1234.63 148.022 1354.18 92.5649 1440.76 127.05V660H683.647C607.754 563.332 704.281 458.959 776.093 500.787Z" fill="#FF161F"/>
<path fill-rule="evenodd" clip-rule="evenodd" d="M630.48 341.506C622.437 352.065 607.127 353.746 595.173 347.034C585.729 341.723 578.545 332.265 569.986 325.184C558.07 315.331 546.671 314.618 533.411 309.746C530.657 308.835 528.136 307.329 526.03 305.333C518.222 297.455 522.782 285.049 527.724 278.248C532.876 271.153 540.359 265.364 545.69 262.638C569.833 250.296 602.873 265.3 622.004 286.883C634.645 301.149 642.351 325.935 630.48 341.506Z" fill="#FF161F"/>
<path fill-rule="evenodd" clip-rule="evenodd" d="M1057.1 187.207C1047.27 192.302 1038.37 193.926 1030.25 202.905C1024.42 209.363 1019.98 217.604 1013.22 222.718C1004.67 229.188 992.368 229.226 984.643 221.489C973.25 210.07 976.103 189.487 984.223 176.909C996.533 157.848 1020.62 142.812 1041.28 150.531C1047.38 153.002 1052.9 156.713 1057.49 161.427C1062.27 166.433 1067.48 175.973 1062.35 182.997C1060.95 184.789 1059.15 186.23 1057.1 187.207Z" fill="#FF161F"/>
<path fill-rule="evenodd" clip-rule="evenodd" d="M1195.91 140.29C1192.68 146.519 1193.45 152.556 1192.57 159.542C1192.45 160.914 1192.01 162.239 1191.29 163.414C1188.56 167.484 1182.61 164.962 1179.13 162.281C1175.72 159.577 1172.79 156.307 1170.49 152.613C1162.7 139.704 1166.19 122.318 1173.93 112.371C1179.02 105.792 1189.29 101.926 1197.33 108.359C1202.78 112.721 1204.97 120.854 1203.16 127.127C1201.73 132.094 1198.23 135.813 1195.91 140.29Z" fill="#FF161F"/>
<path fill-rule="evenodd" clip-rule="evenodd" d="M467.01 548.844C473.811 547.112 479.517 549.232 486.523 549.952C487.883 550.155 489.273 550.037 490.579 549.608C495.158 547.863 494.05 541.507 492.229 537.508C490.366 533.575 487.848 529.988 484.784 526.898C473.958 516.39 456.253 515.849 444.809 521.128C437.243 524.618 431.155 533.725 435.6 543.017C438.612 549.315 446.025 553.308 452.559 552.952C457.718 552.659 462.138 550.086 467.01 548.844Z" fill="#FF161F"/>
<path fill-rule="evenodd" clip-rule="evenodd" d="M600.748 142.545C603.983 138.628 608.225 137.45 612.632 134.852C613.512 134.395 614.275 133.741 614.861 132.941C616.771 129.954 613.422 126.719 610.645 125.152C607.866 123.647 604.851 122.626 601.729 122.134C590.902 120.612 580.318 127.865 575.879 135.852C572.95 141.131 573.287 149.06 579.853 152.594C584.311 154.989 590.355 154.155 594.023 151.149C596.927 148.761 598.411 145.366 600.748 142.545Z" fill="#FF161F"/>
<path fill-rule="evenodd" clip-rule="evenodd" d="M675.007 426.798C678.554 430.243 679.172 436.02 676.389 439.701C673.606 443.382 668.479 443.585 664.926 440.146C661.372 436.707 660.761 430.931 663.544 427.244C666.327 423.556 671.466 423.359 675.007 426.798Z" fill="#FF161F"/>
<path d="M1087.58 35.1248C1081.39 29.9964 1081.16 20.0548 1087.06 12.9195C1092.97 5.78427 1102.78 4.15738 1108.98 9.28577C1115.17 14.4142 1115.4 24.3558 1109.49 31.491C1103.58 38.6263 1093.77 40.2532 1087.58 35.1248Z" fill="#FF161F"/>
<path fill-rule="evenodd" clip-rule="evenodd" d="M0.000244141 305.925C11.1964 299.666 23.1095 294.787 35.4792 291.392C67.1626 282.801 111.303 289.877 126.243 320.108C136.369 340.602 127.256 365.509 107.775 378.807C92.3565 389.321 72.2702 393.161 54.7886 400.95C30.48 411.777 20.6469 428.831 2.98705 445.568C2.04449 446.468 1.05745 447.334 0.0257416 448.166L0.000244141 305.925Z" fill="#FF161F"/>
</g>
</svg>
