<svg width="254" height="170" viewBox="0 0 254 170" fill="none" xmlns="http://www.w3.org/2000/svg">
<g opacity="0.8">
<path fill-rule="evenodd" clip-rule="evenodd" d="M108.22 2.89465C153.538 -6.01564 197.498 23.5003 206.409 68.8184C215.318 114.135 185.803 158.095 140.486 167.005C95.167 175.914 51.2069 146.4 42.2977 101.083C33.3875 55.7637 62.9035 11.805 108.22 2.89465Z" fill="#F9F9F9"/>
<path fill-rule="evenodd" clip-rule="evenodd" d="M167.133 42.4489C166.083 42.6558 164.955 42.4617 163.997 41.8175C162.078 40.53 161.569 37.9337 162.856 36.0159L166.152 31.1062C167.439 29.1884 170.036 28.6782 171.954 29.9656C173.871 31.2541 174.382 33.8505 173.094 35.7683L169.798 40.6769C169.155 41.6363 168.183 42.243 167.133 42.4489ZM127.589 25.2354C125.469 25.4434 124.61 28.0719 126.194 29.4933L132.435 35.0944C133.542 36.0892 133.712 37.7637 132.827 38.9589L131.777 40.3729C131.143 41.2283 130.091 41.6646 129.04 41.5091L124.735 40.8735C123.98 40.7609 123.209 40.955 122.594 41.4106L101.228 58.6759L98.9435 67.5497C98.529 69.1609 97.2275 70.3091 95.6963 70.6091C95.1041 70.7271 94.4766 70.7163 93.851 70.5566C91.614 69.981 90.2694 67.6998 90.844 65.4625L91.5823 62.5918L89.8118 62.3303C85.0923 61.6313 80.6703 64.9234 79.9857 69.6444C79.712 71.5235 80.7786 73.3385 82.5518 74.0148L102.804 81.7406C102.804 81.7406 111.642 85.3193 113.542 87.5959L120.82 97.3973C121.732 98.6258 123.094 99.4415 124.608 99.6642L125.894 99.8543C128.164 100.19 130.206 101.413 131.576 103.255L132.65 104.702C134.461 107.142 134.859 110.354 133.699 113.162L130.931 119.868C130.293 121.411 128.688 122.321 127.037 122.077L125.245 121.812C123.695 121.584 122.175 122.371 121.468 123.767L118.506 130.475C117.666 132.378 116.168 133.915 114.287 134.803L107.802 137.867L106.219 148.576C105.932 150.527 104.095 151.861 102.151 151.53L102.128 151.528C100.762 151.296 99.659 150.283 99.3105 148.941L96.6687 138.755C95.6998 135.016 95.4904 131.121 96.0554 127.3L97.4713 117.709C97.8074 115.444 97.0568 113.156 95.4455 111.529L87.7693 103.779C86.158 102.152 85.4056 99.8622 85.7409 97.5988L86.803 90.4031L89.2697 85.5305L76.0926 80.5024C70.7052 78.4475 66.7566 73.7618 65.6434 68.1029L64.3164 61.3505L63.3352 61.2068C60.2386 60.7491 57.7827 58.3607 57.2371 55.2777L54.2891 39.3823C61.1766 28.8019 70.3268 20.047 80.9308 13.5916L84.391 18.1485C85.3414 19.4263 87.1462 19.6933 88.4266 18.7435L90.5316 17.1805C92.9877 15.3571 96.0677 14.5831 99.094 15.0302L99.5674 15.1009C101.212 15.3432 102.339 16.8825 102.077 18.5226L101.688 20.956C101.359 23.0057 103.505 24.5547 105.347 23.5995L115.444 18.3629C116.338 17.8988 117.356 17.7283 118.352 17.8763L137.532 20.7095L137.002 24.307L127.589 25.2354ZM206.336 101.448C202.777 119.13 193.837 134.323 181.623 145.8C178.89 144.598 175.901 142.135 175.223 139.561L172.294 128.475C171.496 125.454 171.321 122.303 171.777 119.212L173.192 109.632C173.891 104.905 170.625 100.507 165.898 99.8094L165.685 99.7777C162.12 99.2497 158.822 97.5821 156.286 95.0213L155.907 94.6376C152.218 90.9135 150.497 85.6695 151.264 80.4818C151.573 78.386 152.28 76.3686 153.345 74.5366L156.599 68.9505C158.379 65.8932 161.84 64.2262 165.34 64.744L171.921 65.7163C175.023 66.1752 177.943 67.469 180.367 69.4576L185.572 73.7272C188.069 75.7768 191.525 76.2035 194.447 74.8227L196.696 73.7616C198.239 73.0315 199.966 72.7753 201.655 73.0251L207.157 73.7262C208.376 82.7215 208.228 92.0478 206.336 101.448ZM204.705 61.9476L180.045 56.3959L177.438 59.0136C176.209 60.9057 173.99 61.908 171.758 61.5778L166.862 60.8542C163.711 60.389 161.535 57.4571 161.999 54.3055L162.146 53.7963C162.529 51.2043 163.468 49.4205 166.072 49.1311L172.076 48.4643C173.284 48.251 174.426 47.7578 175.412 47.0257C177.095 45.7757 178.214 43.9073 178.52 41.8319L179.416 35.772C179.557 34.8169 180.072 33.9593 180.844 33.3836L186.795 29.4602C195.073 38.7896 201.236 49.8686 204.705 61.9476Z" fill="#E8E8E8"/>
  <path fill-rule="evenodd" clip-rule="evenodd" d="M167.133 42.4489C166.083 42.6557 164.955 42.4617 163.997 41.8175C162.078 40.53 161.569 37.9337 162.856 36.0159L166.152 31.1062C167.439 29.1884 170.036 28.6782 171.954 29.9656C173.871 31.2541 174.382 33.8505 173.094 35.7683L169.798 40.6769C169.155 41.6363 168.183 42.243 167.133 42.4489ZM127.589 25.2354C125.469 25.4434 124.61 28.0719 126.194 29.4933L132.435 35.0944C133.542 36.0892 133.712 37.7637 132.827 38.9589L131.777 40.3729C131.143 41.2283 130.091 41.6646 129.04 41.5091L124.735 40.8735C123.98 40.7609 123.209 40.955 122.594 41.4106L101.228 58.6759L98.9435 67.5497C98.529 69.1609 97.2275 70.309 95.6963 70.6091C95.1041 70.727 94.4766 70.7163 93.851 70.5566C91.614 69.981 90.2694 67.6998 90.844 65.4625L91.5823 62.5918L89.8118 62.3303C85.0923 61.6313 80.6703 64.9234 79.9857 69.6444C79.712 71.5235 80.7786 73.3385 82.5518 74.0148L102.804 81.7406C102.804 81.7406 111.642 85.3193 113.542 87.5959L120.82 97.3973C121.732 98.6258 123.094 99.4415 124.608 99.6642L125.894 99.8543C128.164 100.19 130.206 101.413 131.576 103.255L132.65 104.702C134.461 107.142 134.859 110.354 133.699 113.162L130.931 119.868C130.293 121.411 128.688 122.321 127.037 122.077L125.245 121.812C123.695 121.584 122.175 122.371 121.468 123.767L118.506 130.475C117.666 132.378 116.168 133.915 114.287 134.803L107.802 137.867L106.219 148.576C105.932 150.527 104.095 151.861 102.151 151.53L102.128 151.528C100.762 151.296 99.659 150.284 99.3105 148.941L96.6687 138.755C95.6998 135.016 95.4904 131.121 96.0554 127.3L97.4713 117.709C97.8074 115.444 97.0568 113.156 95.4455 111.529L87.7693 103.779C86.158 102.152 85.4056 99.8622 85.7409 97.5988L86.803 90.4031L89.2697 85.5305L76.0926 80.5024C70.7052 78.4475 66.7566 73.7618 65.6434 68.1029L64.3164 61.3505L63.3352 61.2068C60.2386 60.7491 57.7827 58.3607 57.2371 55.2777L54.2891 39.3823C61.1766 28.8019 70.3268 20.047 80.9308 13.5916L84.391 18.1485C85.3414 19.4263 87.1462 19.6933 88.4266 18.7435L90.5316 17.1805C92.9877 15.3571 96.0677 14.5831 99.094 15.0302L99.5674 15.1009C101.212 15.3432 102.339 16.8825 102.077 18.5226L101.688 20.956C101.359 23.0057 103.505 24.5547 105.347 23.5995L115.444 18.3629C116.338 17.8988 117.356 17.7283 118.352 17.8763L137.532 20.7095L137.002 24.307L127.589 25.2354ZM206.336 101.448C202.777 119.13 193.837 134.323 181.623 145.8C178.89 144.598 175.901 142.135 175.223 139.561L172.294 128.475C171.496 125.454 171.321 122.303 171.778 119.212L173.192 109.632C173.891 104.905 170.625 100.507 165.898 99.8094L165.685 99.7777C162.12 99.2497 158.822 97.5821 156.286 95.0213L155.907 94.6376C152.218 90.9135 150.497 85.6687 151.264 80.4818C151.573 78.386 152.28 76.3686 153.345 74.5366L156.599 68.9505C158.379 65.8932 161.84 64.2262 165.34 64.744L171.921 65.7163C175.023 66.1752 177.943 67.469 180.367 69.4576L185.572 73.7272C188.069 75.7768 191.525 76.2035 194.447 74.8228L196.696 73.7616C198.239 73.0315 199.966 72.7753 201.655 73.0251L207.157 73.7262C208.376 82.7215 208.228 92.0478 206.336 101.448ZM204.705 61.9476L180.045 56.3959L177.438 59.0136C176.209 60.9057 173.99 61.908 171.758 61.5778L166.862 60.8542C163.711 60.389 161.535 57.4571 161.999 54.3055L162.146 53.7963C162.529 51.2043 163.468 49.4205 166.072 49.1311L172.076 48.4643C173.284 48.251 174.426 47.7578 175.412 47.0257C177.095 45.7757 178.214 43.9073 178.52 41.8319L179.416 35.772C179.557 34.8169 180.072 33.9593 180.844 33.3836L186.795 29.4602C195.073 38.7896 201.236 49.8686 204.705 61.9476Z" stroke="#D5D5D5" stroke-width="1.5">
    <animateTransform attributeName="transform" type="rotate" from="0 165 100" to="5 165 100" dur="1s" repeatCount="indefinite" />
  </path><path d="M108.39 3.06678C153.708 -5.84355 197.668 23.6724 206.578 68.9904C215.488 114.307 185.972 158.267 140.656 167.178C95.3368 176.087 51.3767 146.572 42.4675 101.255C33.5571 55.9358 63.0734 11.977 108.39 3.06678Z" 
        stroke="#4C4C4c" 
        stroke-width="7.5">
    <animate attributeName="stroke-width" values="3.5; 2; 1.5" dur="1s" repeatCount="indefinite" />
  </path></g>
<g opacity="0.16">
<path d="M47.3086 142.131C47.669 142.077 47.917 141.741 47.8625 141.38C47.8081 141.02 47.4717 140.772 47.1114 140.826L47.3086 142.131ZM216.896 88.1477L216.571 87.573C216.254 87.7525 216.142 88.1547 216.321 88.4715C216.5 88.7892 216.901 88.9009 217.219 88.7232L216.896 88.1477ZM218.745 87.1022L219.071 87.676C219.387 87.4965 219.498 87.0934 219.319 86.7766C219.139 86.4598 218.737 86.3489 218.42 86.5276L218.745 87.1022ZM222.443 85.0201L222.111 84.449C221.799 84.6312 221.69 85.0289 221.867 85.344C222.045 85.6581 222.441 85.7717 222.759 85.5992L222.443 85.0201ZM225.677 83.2584L226.013 83.8269C226.323 83.6438 226.428 83.2461 226.251 82.9328C226.074 82.6195 225.678 82.5069 225.362 82.6793L225.677 83.2584ZM228.361 80.8827C228.049 81.0719 227.95 81.4779 228.139 81.7895C228.328 82.1012 228.734 82.2006 229.045 82.0114L228.361 80.8827ZM36.2742 143.443C36.6373 143.412 36.9066 143.092 36.8756 142.73C36.8445 142.366 36.5249 142.097 36.1617 142.128L36.2742 143.443ZM41.1779 141.62C40.8158 141.662 40.5565 141.99 40.5987 142.352C40.6408 142.715 40.9685 142.973 41.3306 142.931L41.1779 141.62ZM2.14415 136.516C1.6642 134.984 1.93709 133.18 3.04245 131.09C4.14879 128.998 6.05848 126.684 8.73245 124.191C14.0778 119.206 22.3639 113.61 32.9906 107.755C54.2343 96.0501 84.7078 83.3745 119.374 72.5138L118.979 71.2541C84.2555 82.1337 53.6953 94.8401 32.3536 106.6C21.6876 112.476 13.2932 118.133 7.83221 123.225C5.10289 125.77 3.07783 128.2 1.87566 130.473C0.672526 132.747 0.262974 134.927 0.884606 136.91L2.14415 136.516ZM119.374 72.5138C154.039 61.6526 186.298 54.6736 210.423 52.1641C222.491 50.9088 232.489 50.7757 239.722 51.8191C243.341 52.3411 246.23 53.1523 248.332 54.2385C250.432 55.3239 251.686 56.6498 252.166 58.1819L253.426 57.7872C252.804 55.8033 251.224 54.2472 248.938 53.0658C246.654 51.8855 243.604 51.0454 239.911 50.5126C232.521 49.4467 222.399 49.5912 210.286 50.8511C186.05 53.3723 153.703 60.3749 118.979 71.2541L119.374 72.5138ZM218.419 86.5285C217.808 86.8761 217.192 87.2237 216.572 87.5721L217.219 88.7232C217.84 88.3738 218.458 88.0245 219.071 87.676L218.419 86.5285ZM217.221 88.7223L219.07 87.6769L218.42 86.5276L216.571 87.573L217.221 88.7223ZM225.341 82.6899C225.051 82.8615 224.415 83.2029 223.753 83.5567C223.105 83.9025 222.435 84.2607 222.111 84.449L222.775 85.5904C223.073 85.417 223.713 85.0747 224.375 84.7209C225.022 84.3751 225.692 84.0161 226.013 83.8269L225.341 82.6899ZM222.759 85.5992L225.993 83.8383L225.362 82.6793L222.127 84.4402L222.759 85.5992ZM252.166 58.1819C252.533 59.3548 252.284 60.7561 251.343 62.4166C250.402 64.0757 248.815 65.9127 246.667 67.8936C242.37 71.8521 235.949 76.2746 228.361 80.8827L229.045 82.0114C236.654 77.3911 243.166 72.9141 247.561 68.8642C249.756 66.8409 251.455 64.8965 252.491 63.0674C253.527 61.2397 253.945 59.4458 253.426 57.7872L252.166 58.1819ZM36.1617 142.128C27.101 142.903 18.9318 142.812 12.8254 141.825C9.7697 141.332 7.26496 140.62 5.43121 139.702C3.58823 138.781 2.51534 137.7 2.14415 136.516L0.884606 136.91C1.40926 138.585 2.84965 139.887 4.84074 140.883C6.84115 141.884 9.49145 142.624 12.615 143.128C18.8673 144.138 27.1541 144.223 36.2742 143.443L36.1617 142.128ZM47.1114 140.826C45.1124 141.128 43.1309 141.393 41.1779 141.62L41.3306 142.931C43.2987 142.702 45.295 142.436 47.3086 142.131L47.1114 140.826Z" fill="#4C4C4C">
    <animate attributeName="fill" values="#4C4C4C; #FF5733; #4C4C4C" dur="2s" repeatCount="indefinite"/>
  </path><path d="M50.1288 94.9773C50.4905 94.9333 50.7478 94.6033 50.7032 94.2417C50.6588 93.88 50.3295 93.623 49.9677 93.667L50.1288 94.9773ZM189.514 51.3731L189.176 50.8063C188.863 50.9928 188.761 51.3974 188.947 51.7105C189.133 52.0234 189.537 52.1265 189.851 51.9408L189.514 51.3731ZM191.021 50.4743L191.361 51.0401C191.673 50.8526 191.774 50.4477 191.587 50.1353C191.4 49.8229 190.995 49.721 190.682 49.9075L191.021 50.4743ZM194.034 48.6838L193.687 48.1218C193.381 48.3108 193.283 48.711 193.467 49.0208C193.65 49.3307 194.049 49.4356 194.361 49.2565L194.034 48.6838ZM196.671 47.1735L197.022 47.7329C197.326 47.5422 197.422 47.1427 197.237 46.8344C197.053 46.526 196.655 46.4222 196.343 46.6008L196.671 47.1735ZM198.776 45.054C198.469 45.2517 198.381 45.6602 198.579 45.9665C198.777 46.2728 199.186 46.3608 199.492 46.1631L198.776 45.054ZM40.9854 95.7693C41.3495 95.7517 41.6301 95.442 41.6122 95.0785C41.5943 94.7142 41.2847 94.4335 40.9206 94.4511L40.9854 95.7693ZM45.0675 94.1748C44.7044 94.2047 44.4346 94.5241 44.4651 94.8876C44.4955 95.251 44.8147 95.5203 45.178 95.4904L45.0675 94.1748ZM216.547 30.1593C216.348 30.4646 216.435 30.8736 216.74 31.0727C217.045 31.2718 217.454 31.1858 217.653 30.8805L216.547 30.1593ZM212.481 36.5962C212.753 36.3531 212.775 35.9358 212.533 35.6642C212.29 35.3925 211.873 35.3694 211.601 35.6124L212.481 36.5962ZM12.5801 87.9356C12.1331 86.4783 12.3152 84.8125 13.1673 82.9301C14.0217 81.0436 15.5338 78.9795 17.6769 76.7759C21.9628 72.369 28.6739 67.5035 37.3301 62.4824C54.6331 52.4456 79.5778 41.861 108.062 33.1213L107.674 31.8593C79.1246 40.6196 54.0806 51.24 36.6678 61.3406C27.9661 66.3881 21.1375 71.3243 16.7307 75.8555C14.5274 78.1209 12.9048 80.31 11.9648 82.3863C11.0225 84.4666 10.7504 86.4721 11.3182 88.3228L12.5801 87.9356ZM108.062 33.1213C136.545 24.3816 163.134 19.1538 183.089 17.7587C193.071 17.0608 201.357 17.325 207.376 18.5697C210.386 19.192 212.796 20.0528 214.562 21.1357C216.323 22.2158 217.408 23.4933 217.855 24.9503L219.117 24.5631C218.549 22.7128 217.199 21.2048 215.252 20.0105C213.309 18.8191 210.738 17.9168 207.643 17.2769C201.453 15.9972 193.032 15.7403 182.996 16.4419C162.915 17.8459 136.224 23.0992 107.674 31.8593L108.062 33.1213ZM190.681 49.9085C190.183 50.2072 189.683 50.5063 189.177 50.8054L189.851 51.9408C190.357 51.6405 190.861 51.3402 191.361 51.0401L190.681 49.9085ZM189.852 51.9399L191.359 51.041L190.682 49.9075L189.176 50.8063L189.852 51.9399ZM196.321 46.6141C196.089 46.7591 195.575 47.0485 195.033 47.3528C194.508 47.6479 193.956 47.9566 193.687 48.1218L194.38 49.2457C194.618 49.0987 195.138 48.808 195.679 48.5038C196.204 48.2089 196.756 47.8993 197.022 47.7329L196.321 46.6141ZM194.361 49.2565L196.999 47.7462L196.343 46.6008L193.706 48.111L194.361 49.2565ZM40.9206 94.4511C33.4247 94.8198 26.651 94.4185 21.5676 93.271C19.0245 92.6964 16.9356 91.9422 15.397 91.0261C13.8554 90.1083 12.927 89.0655 12.5801 87.9356L11.3182 88.3228C11.7966 89.8821 13.0237 91.1493 14.7217 92.1605C16.4228 93.1733 18.658 93.9671 21.2769 94.5585C26.5176 95.7412 33.4207 96.1416 40.9854 95.7693L40.9206 94.4511ZM49.9677 93.667C48.3177 93.8703 46.6814 94.0393 45.0675 94.1748L45.178 95.4904C46.8088 95.3531 48.4621 95.1824 50.1288 94.9773L49.9677 93.667ZM217.855 24.9503C218.297 26.3891 217.879 28.1187 216.547 30.1593L217.653 30.8805C219.075 28.6997 219.726 26.5477 219.117 24.5631L217.855 24.9503ZM211.601 35.6124C208.271 38.5911 203.85 41.7792 198.776 45.054L199.492 46.1631C204.591 42.8717 209.078 39.6409 212.481 36.5962L211.601 35.6124Z" fill="#4C4C4C"/>
<path d="M174.172 12.7815C173.916 13.0402 173.916 13.4581 174.175 13.7149C174.434 13.9717 174.852 13.9702 175.109 13.7115L174.172 12.7815ZM39.3654 54.7541C39.7136 54.8618 40.0832 54.6668 40.1909 54.3186C40.2986 53.9704 40.1037 53.6007 39.7554 53.4931L39.3654 54.7541ZM35.3595 50.409C35.0711 49.4687 35.1844 48.3743 35.7622 47.1082C36.3423 45.8371 37.3741 44.4331 38.8507 42.9223C41.8034 39.9014 46.4357 36.5536 52.4253 33.0898C64.3951 26.1674 81.6563 18.8549 101.368 12.8064L100.981 11.5445C81.2022 17.6133 63.8434 24.9616 51.7645 31.9471C45.7296 35.4372 40.9803 38.8551 37.9068 41.9997C36.3702 43.5716 35.2276 45.1003 34.5614 46.5601C33.8928 48.025 33.6877 49.4601 34.0976 50.7962L35.3595 50.409ZM101.368 12.8064C121.081 6.75797 139.473 3.13096 153.265 2.14859C160.167 1.65702 165.879 1.83056 170.019 2.6755C172.089 3.09805 173.73 3.68184 174.923 4.40881C176.112 5.13296 176.82 5.97547 177.108 6.91575L178.37 6.52855C177.96 5.19245 176.985 4.11937 175.61 3.28153C174.239 2.44657 172.436 1.82186 170.283 1.38218C165.974 0.502653 160.125 0.336641 153.171 0.831922C139.253 1.82327 120.76 5.47572 100.981 11.5445L101.368 12.8064ZM177.108 6.91575C177.325 7.62151 177.219 8.45883 176.724 9.46C176.228 10.4645 175.367 11.5777 174.172 12.7815L175.109 13.7115C176.354 12.457 177.324 11.2277 177.908 10.0444C178.494 8.85782 178.718 7.66217 178.37 6.52855L177.108 6.91575ZM39.7554 53.4931C37.162 52.6909 35.7262 51.604 35.3595 50.409L34.0976 50.7962C34.6738 52.6741 36.7189 53.9356 39.3654 54.7541L39.7554 53.4931Z" fill="#4C4C4C">
    <animate attributeName="fill" values="#4C4C4C; #2924d2; #4C4C4C" dur="2s" repeatCount="indefinite"/>
  </path><path d="M199.312 135.05C199.413 135.4 199.779 135.603 200.129 135.501C200.48 135.4 200.681 135.034 200.58 134.684L199.312 135.05ZM104.448 170.653C104.811 170.632 105.089 170.319 105.067 169.955C105.046 169.592 104.734 169.314 104.37 169.336L104.448 170.653ZM89.8813 166.685C89.7176 166.118 89.8126 165.42 90.2843 164.555C90.7578 163.687 91.5788 162.712 92.7527 161.649C95.0988 159.524 98.7394 157.151 103.429 154.679C112.796 149.741 126.219 144.476 141.474 140.065L141.107 138.797C125.793 143.224 112.282 148.519 102.813 153.511C98.0838 156.005 94.3314 158.439 91.8666 160.67C90.6354 161.785 89.6965 162.875 89.1254 163.923C88.5534 164.973 88.3202 166.039 88.6132 167.052L89.8813 166.685ZM141.474 140.065C156.729 135.655 170.891 132.947 181.448 132.125C186.732 131.714 191.079 131.778 194.196 132.323C195.756 132.596 196.971 132.982 197.834 133.463C198.694 133.944 199.148 134.484 199.312 135.05L200.58 134.684C200.288 133.671 199.521 132.894 198.477 132.311C197.435 131.73 196.059 131.308 194.424 131.023C191.148 130.45 186.676 130.394 181.346 130.808C170.674 131.639 156.422 134.371 141.107 138.797L141.474 140.065ZM104.37 169.336C100.411 169.57 96.8658 169.428 94.239 168.923C92.9234 168.67 91.8718 168.332 91.1212 167.926C90.3626 167.516 89.9966 167.085 89.8813 166.685L88.6132 167.052C88.8684 167.936 89.5865 168.596 90.4929 169.087C91.4081 169.582 92.6049 169.953 93.99 170.219C96.7638 170.752 100.428 170.891 104.448 170.653L104.37 169.336Z" fill="#4C4C4C"/>

<path d="M80.0432 161.847L80.0855 162.505C80.4489 162.482 80.7243 162.169 80.7023 161.806C80.6803 161.443 80.3679 161.166 80.0054 161.188L80.0432 161.847ZM77.5071 161.995L77.4683 161.335C77.1049 161.357 76.8277 161.668 76.8479 162.032C76.8682 162.394 77.1779 162.673 77.5414 162.654L77.5071 161.995ZM74.6523 162.123L74.677 162.782C75.0404 162.769 75.3247 162.464 75.3123 162.1C75.3 161.737 74.9955 161.452 74.6321 161.463L74.6523 162.123ZM72.7498 162.182L72.7287 161.522C72.3652 161.533 72.0792 161.837 72.0898 162.2C72.1003 162.564 72.4022 162.851 72.7656 162.842L72.7498 162.182ZM69.5774 162.884C69.9426 162.883 70.2374 162.588 70.2374 162.223C70.2365 161.859 69.9408 161.563 69.5765 161.564L69.5774 162.884ZM205.14 122.512L204.803 121.943C204.491 122.128 204.386 122.53 204.569 122.843C204.752 123.158 205.154 123.264 205.468 123.084L205.14 122.512ZM208.096 120.761L208.441 121.324C208.75 121.136 208.85 120.732 208.662 120.422C208.476 120.11 208.073 120.008 207.76 120.193L208.096 120.761ZM210.575 118.427C210.268 118.625 210.181 119.033 210.378 119.339C210.576 119.645 210.985 119.733 211.292 119.535L210.575 118.427ZM50.95 156.546C50.6414 155.561 50.8169 154.369 51.5891 152.945C52.3619 151.517 53.6987 149.923 55.5838 148.192C59.3512 144.732 65.1932 140.832 72.6935 136.736C87.686 128.55 109.184 119.652 133.629 111.994L133.235 110.734C108.732 118.411 87.1492 127.339 72.0616 135.578C64.5218 139.694 58.5732 143.655 54.691 147.22C52.7513 149.001 51.2985 150.709 50.4285 152.315C49.5578 153.922 49.2372 155.494 49.6904 156.941L50.95 156.546ZM133.629 111.994C158.075 104.334 180.807 99.3747 197.789 97.5425C206.286 96.6264 213.31 96.4962 218.377 97.1879C220.913 97.5337 222.921 98.0802 224.369 98.8106C225.817 99.541 226.641 100.418 226.95 101.404L228.209 101.009C227.756 99.563 226.596 98.4551 224.963 97.6323C223.333 96.8095 221.164 96.2357 218.555 95.8793C213.333 95.1674 206.188 95.3091 197.647 96.2304C180.556 98.074 157.738 103.057 133.235 110.734L133.629 111.994ZM80.001 161.188C79.1377 161.243 78.2955 161.292 77.4719 161.335L77.5414 162.654C78.3695 162.611 79.2178 162.56 80.0855 162.505L80.001 161.188ZM80.0054 161.188L77.4683 161.335L77.5449 162.654L80.0819 162.505L80.0054 161.188ZM74.6286 161.463C73.9827 161.487 73.3508 161.507 72.7331 161.522L72.7656 162.842C73.3895 162.826 74.0267 162.807 74.677 162.782L74.6286 161.463ZM74.6321 161.463L72.7287 161.522L72.77 162.841L74.6735 162.782L74.6321 161.463ZM69.5765 161.564C63.6171 161.569 59.162 161.113 56.0751 160.224C52.9662 159.329 51.4212 158.05 50.95 156.546L49.6904 156.941C50.3646 159.092 52.4671 160.558 55.7098 161.492C58.9745 162.432 63.5758 162.889 69.5774 162.884L69.5765 161.564ZM207.753 120.197C206.792 120.783 205.81 121.365 204.811 121.939L205.468 123.084C206.477 122.504 207.469 121.917 208.441 121.324L207.753 120.197ZM205.476 123.079L208.433 121.329L207.76 120.193L204.803 121.943L205.476 123.079ZM226.95 101.404C227.177 102.13 227.03 103.106 226.383 104.355C225.741 105.592 224.657 107.002 223.181 108.534C220.231 111.593 215.812 115.039 210.575 118.427L211.292 119.535C216.574 116.118 221.084 112.61 224.131 109.45C225.652 107.872 226.832 106.357 227.555 104.962C228.271 103.578 228.587 102.217 228.209 101.009L226.95 101.404Z" fill="#4C4C4C">
    <animateTransform attributeName="transform" type="translate" values="0 0; 0 -10; 0 0" dur="1s" repeatCount="indefinite"/>
  </path></g>
<g opacity="0.85">
<path opacity="0.85" d="M183.238 164.28V155.468" stroke="#3785D7" stroke-width="1.5" stroke-linecap="round" stroke-linejoin="round">
            <animate attributeName="stroke-dasharray" from="0, 10" to="10, 0" dur="1s" repeatCount="indefinite" />
        </path>
        <path opacity="0.85" d="M195.664 150.753H187.975" stroke="#3785D7" stroke-width="1.5" stroke-linecap="round" stroke-linejoin="round">
            <animate attributeName="stroke-dasharray" from="0, 10" to="10, 0" dur="1s" repeatCount="indefinite" begin="0.2s" />
        </path>
        <path opacity="0.85" d="M188.532 156.074L186.228 153.712" stroke="#3785D7" stroke-width="1.5" stroke-linecap="round" stroke-linejoin="round">
            <animate attributeName="stroke-dasharray" from="0, 10" to="10, 0" dur="1s" repeatCount="indefinite" begin="0.4s" />
        </path>
        <path opacity="0.85" d="M190.535 158.086L190.26 157.765" stroke="#3785D7" stroke-width="1.5" stroke-linecap="round" stroke-linejoin="round">
            <animate attributeName="stroke-dasharray" from="0, 10" to="10, 0" dur="1s" repeatCount="indefinite" begin="0.6s" />
        </path>
        <path opacity="0.85" d="M192.793 160.356L192.674 160.2" stroke="#3785D7" stroke-width="1.5" stroke-linecap="round" stroke-linejoin="round">
            <animate attributeName="stroke-dasharray" from="0, 10" to="10, 0" dur="1s" repeatCount="indefinite" begin="0.8s" />
        </path>
        <path opacity="0.85" d="M188.788 145.194L186.228 147.785" stroke="#3785D7" stroke-width="1.5" stroke-linecap="round" stroke-linejoin="round">
            <animate attributeName="stroke-dasharray" from="0, 10" to="10, 0" dur="1s" repeatCount="indefinite" begin="1s" />
        </path>
        <path opacity="0.85" d="M191.595 142.355L190.645 143.319" stroke="#3785D7" stroke-width="1.5" stroke-linecap="round" stroke-linejoin="round">
            <animate attributeName="stroke-dasharray" from="0, 10" to="10, 0" dur="1s" repeatCount="indefinite" begin="1.2s" />
        </path>
        <path opacity="0.85" d="M180.248 153.712L177.341 156.68" stroke="#3785D7" stroke-width="1.5" stroke-linecap="round" stroke-linejoin="round">
            <animate attributeName="stroke-dasharray" from="0, 10" to="10, 0" dur="1s" repeatCount="indefinite" begin="1.4s" />
        </path>
        <path opacity="0.85" d="M175.156 158.831L173.922 160.117" stroke="#3785D7" stroke-width="1.5" stroke-linecap="round" stroke-linejoin="round">
            <animate attributeName="stroke-dasharray" from="0, 10" to="10, 0" dur="1s" repeatCount="indefinite" begin="1.6s" />
        </path>
</g>
<g opacity="0.85">
 <path opacity="0.85" d="M69.5431 4.39905L68.4853 11.8707" stroke="#DDDDDD" stroke-width="1.64352" stroke-linecap="round" stroke-linejoin="round">
            <animate attributeName="opacity" values="0; 1; 0" dur="2s" repeatCount="indefinite" />
        </path>
        <path opacity="0.85" d="M57.3847 14.3765L63.9046 15.2991" stroke="#DDDDDD" stroke-width="1.64352" stroke-linecap="round" stroke-linejoin="round">
            <animate attributeName="opacity" values="0; 1; 0" dur="2s" repeatCount="indefinite" begin="0.2s" />
        </path>
        <path opacity="0.85" d="M64.0691 10.7212L65.7394 13" stroke="#DDDDDD" stroke-width="1.64352" stroke-linecap="round" stroke-linejoin="round">
            <animate attributeName="opacity" values="0; 1; 0" dur="2s" repeatCount="indefinite" begin="0.4s" />
        </path>
        <path opacity="0.85" d="M62.6133 8.77466L62.8069 9.08028" stroke="#DDDDDD" stroke-width="1.64352" stroke-linecap="round" stroke-linejoin="round">
            <animate attributeName="opacity" values="0; 1; 0" dur="2s" repeatCount="indefinite" begin="0.6s" />
        </path>
        <path opacity="0.85" d="M60.9697 6.5791L61.0521 6.72632" stroke="#DDDDDD" stroke-width="1.64352" stroke-linecap="round" stroke-linejoin="round">
            <animate attributeName="opacity" values="0; 1; 0" dur="2s" repeatCount="indefinite" begin="0.8s" />
        </path>
        <path opacity="0.85" d="M62.5476 19.915L65.0283 18.0251" stroke="#DDDDDD" stroke-width="1.64352" stroke-linecap="round" stroke-linejoin="round">
            <animate attributeName="opacity" values="0; 1; 0" dur="2s" repeatCount="indefinite" begin="1s" />
        </path>
        <path opacity="0.85" d="M59.8261 21.9857L60.7481 21.2817" stroke="#DDDDDD" stroke-width="1.64352" stroke-linecap="round" stroke-linejoin="round">
            <animate attributeName="opacity" values="0; 1; 0" dur="2s" repeatCount="indefinite" begin="1.2s" />
        </path>
        <path opacity="0.85" d="M70.8086 13.7175L73.6298 11.5499" stroke="#DDDDDD" stroke-width="1.64352" stroke-linecap="round" stroke-linejoin="round">
            <animate attributeName="opacity" values="0; 1; 0" dur="2s" repeatCount="indefinite" begin="1.4s" />
        </path>
        <path opacity="0.85" d="M75.7412 9.98892L76.9424 9.04626" stroke="#DDDDDD" stroke-width="1.64352" stroke-linecap="round" stroke-linejoin="round">
            <animate attributeName="opacity" values="0; 1; 0" dur="2s" repeatCount="indefinite" begin="1.6s" />
        </path>
</g>
<path/> opacity="0.12" fill- rule="evenodd" clip-rule="evenodd" d="M59.6552 137.962C51.1756 127.632 45.0564 115.114 42.2978 101.083C38.5246 81.892 41.642 62.945 49.9319 46.8H198.794C202.268 53.5864 204.865 60.9651 206.408 68.8183C211.411 94.2637 204.299 119.282 189.077 137.907C175.304 134.613 153.247 130.84 124.48 130.84C95.5546 130.84 73.413 134.656 59.6552 137.962Z" fill="#4C4C4C"/>
<path d="M215.12 37.12H33.8398C29.9517 37.12 26.7998 40.2719 26.7998 44.16V118.08C26.7998 121.968 29.9517 125.12 33.8398 125.12H215.12C219.008 125.12 222.16 121.968 222.16 118.08V44.16C222.16 40.2719 219.008 37.12 215.12 37.12Z" fill="white" fill-opacity="0.94" stroke="#3785D7" stroke-width="1.5"/>
<path opacity="0.3" d="M195.936 33.16H200.374M206.144 33.16H216.88C222.226 33.16 226.56 37.4939 226.56 42.84V46.6045M226.56 53.7748V59.1526M226.56 63.186V66.7711M226.56 112.482V120.28C226.56 125.626 222.226 129.96 216.88 129.96H209.251M204.369 129.96H200.374M47.2545 129.96H40.5972M35.2712 129.96H32.0803C26.7342 129.96 22.4003 125.626 22.4003 120.28V117.64M22.4003 108.001V110.16M22.4003 103.52V98.1419M22.4003 88.7303V81.1119M22.4003 64.5305V61.8415M22.4003 53.7748V42.84C22.4003 37.4939 26.7342 33.16 32.0803 33.16H40.5972" stroke="#3785D7" stroke-width="1.5" stroke-linecap="round">
            <animate attributeName="stroke-width" values="1.5; 2; 1.5" dur="1s" repeatCount="indefinite" />
            <animate attributeName="opacity" values="0.3; 0.5; 0.3" dur="1s" repeatCount="indefinite" />
        </path><path d="M166.332 83.452H170.82C170.996 83.452 171.084 83.5399 171.084 83.7159V88.204C171.084 90.008 172.228 91.064 173.768 91.064C175.308 91.064 176.452 90.008 176.452 88.204V83.7159C176.452 83.5399 176.54 83.452 176.716 83.452H181.204C182.92 83.452 183.976 82.3959 183.976 80.8559C183.976 79.3159 182.92 78.26 181.204 78.26H176.716C176.54 78.26 176.452 78.1719 176.452 77.9959V73.5079C176.452 71.7039 175.308 70.6479 173.768 70.6479C172.228 70.6479 171.084 71.7039 171.084 73.5079V77.9959C171.084 78.1719 170.996 78.26 170.82 78.26H166.332C164.616 78.26 163.56 79.3159 163.56 80.8559C163.56 82.3959 164.616 83.452 166.332 83.452Z" fill="#4C4C4C"/>
</svg>
