<svg width="277" height="90" viewBox="0 0 277 90" fill="none" xmlns="http://www.w3.org/2000/svg">
<path style="mix-blend-mode:multiply" d="M177.795 42.1708L19.9492 19.8491L20.3325 17.1385L178.178 39.4602L177.795 42.1708Z" fill="url(#paint0_radial_13416_38)"/>
<path style="mix-blend-mode:multiply" d="M175.631 48.8099L17.6806 27.061L18.0541 24.3487L176.004 46.0975L175.631 48.8099Z" fill="url(#paint1_radial_13416_38)"/>
<path style="mix-blend-mode:multiply" d="M174.514 56.919L16.5642 35.1702L16.9377 32.4578L174.888 54.2066L174.514 56.919Z" fill="url(#paint2_radial_13416_38)"/>
<path style="mix-blend-mode:multiply" d="M173.403 65.0281L15.453 43.2793L15.8265 40.5669L173.777 62.3157L173.403 65.0281Z" fill="url(#paint3_radial_13416_38)"/>
<path d="M146.638 76.0437L244.742 89.5529C252.155 90.5687 259.668 88.5997 265.63 84.0785C271.592 79.5574 275.514 72.854 276.536 65.4418C276.81 63.5086 276.876 61.5518 276.734 59.6045C276.533 56.6656 275.868 53.7769 274.763 51.0462C273.821 48.7287 272.58 46.5443 271.071 44.5485C268.842 41.5875 266.048 39.098 262.85 37.2239C259.652 35.3499 256.115 34.1285 252.442 33.6305L238.633 31.728L233.378 31.0167L154.343 20.1382L153.372 27.1948L155.156 27.4376C160.307 28.6251 164.828 31.6967 167.829 36.0486C170.83 40.4004 172.094 45.7175 171.373 50.9543C170.652 56.1911 167.997 60.9687 163.932 64.3475C159.867 67.7263 154.684 69.4618 149.404 69.2129L147.62 68.9532L146.638 76.0437Z" fill="url(#paint4_linear_13416_38)"/>
<path d="M262.891 63.562C261.861 70.9714 257.935 77.6702 251.974 82.1898C246.013 86.7095 238.503 88.6813 231.091 87.6731L221.212 86.3126C224.948 86.9663 228.778 86.8601 232.472 86.0005C236.167 85.1409 239.65 83.5455 242.714 81.3096C245.778 79.0736 248.36 76.2431 250.306 72.9869C252.252 69.7308 253.521 66.1159 254.038 62.3582C254.556 58.6004 254.31 54.777 253.317 51.1162C252.324 47.4554 250.603 44.0324 248.257 41.0516C245.911 38.0709 242.988 35.5935 239.664 33.7676C236.339 31.9416 232.68 30.8044 228.906 30.4241L238.791 31.7846C246.202 32.8089 252.904 36.7337 257.423 42.6965C261.942 48.6594 263.909 56.1724 262.891 63.5846V63.562Z" fill="url(#paint5_linear_13416_38)"/>
<path d="M215.125 56.9851C214.104 64.3985 210.18 71.1028 204.217 75.6241C198.254 80.1454 190.739 82.1137 183.325 81.0962L173.44 79.7357C180.713 80.4722 187.989 78.3583 193.734 73.8389C199.48 69.3196 203.249 62.7473 204.247 55.5054C205.244 48.2636 203.394 40.917 199.084 35.0122C194.774 29.1074 188.342 25.1049 181.141 23.8472L191.025 25.2077C198.437 26.232 205.138 30.1568 209.657 36.1196C214.176 42.0825 216.143 49.5955 215.125 57.0077V56.9851Z" fill="url(#paint6_linear_13416_38)"/>
<path d="M3.30298 49.2005L172.352 72.4704C177.849 73.1015 183.375 71.5556 187.747 68.1636C192.119 64.7716 194.989 59.8031 195.744 54.3213C196.499 48.8396 195.078 43.2801 191.785 38.8329C188.493 34.3856 183.59 31.4039 178.127 30.5258L9.08942 7.25586C14.5601 8.12719 19.4715 11.1076 22.7703 15.5579C26.0691 20.0082 27.4926 25.574 26.7356 31.0617C25.9785 36.5493 23.1012 41.5218 18.7207 44.9127C14.3401 48.3036 8.80522 49.8429 3.30298 49.2005Z" fill="url(#paint7_linear_13416_38)"/>
<path style="mix-blend-mode:multiply" d="M146.638 76.0438L244.742 89.5531C252.155 90.5689 259.668 88.5999 265.63 84.0787C271.592 79.5575 275.515 72.8542 276.537 65.4419C276.61 64.8774 276.678 64.3524 276.706 63.8105C272.718 66.9918 268.125 69.329 263.205 70.6799C258.286 72.0308 253.143 72.3672 248.09 71.6687L167.582 60.5757C165.51 63.4177 162.761 65.6979 159.585 67.21C156.409 68.7221 152.906 69.4183 149.393 69.2356L147.609 68.9759L146.638 76.0438Z" fill="url(#paint8_linear_13416_38)"/>
<path d="M0.44696 55.9296L146.491 76.0325C153.764 76.769 161.039 74.6551 166.785 70.1358C172.531 65.6164 176.3 59.0441 177.297 51.8022C178.295 44.5604 176.444 37.2138 172.135 31.309C167.825 25.4042 161.393 21.4017 154.191 20.144L8.14717 0.0354004L7.17616 7.09769L153.22 27.2006C158.658 28.0799 163.536 31.0517 166.811 35.4806C170.087 39.9096 171.499 45.4441 170.747 50.901C169.995 56.3578 167.138 61.3038 162.786 64.6815C158.435 68.0592 152.935 69.6005 147.462 68.9759L1.4236 48.873L0.44696 55.9296Z" fill="url(#paint9_radial_13416_38)"/>
<defs>
<radialGradient id="paint0_radial_13416_38" cx="0" cy="0" r="1" gradientUnits="userSpaceOnUse" gradientTransform="translate(172.604 -39.1191) rotate(-179.791) scale(145.932 145.933)">
<stop stop-color="#CECECC"/>
<stop offset="0.1" stop-color="#CFCFCD" stop-opacity="0.94"/>
<stop offset="0.29" stop-color="#D2D2D0" stop-opacity="0.79"/>
<stop offset="0.54" stop-color="#D6D6D6" stop-opacity="0.54"/>
<stop offset="0.83" stop-color="#DBDBDD" stop-opacity="0.21"/>
<stop offset="1" stop-color="#DFDFE1" stop-opacity="0"/>
</radialGradient>
<radialGradient id="paint1_radial_13416_38" cx="0" cy="0" r="1" gradientUnits="userSpaceOnUse" gradientTransform="translate(171.265 -40.5914) rotate(-180) scale(145.954 145.953)">
<stop stop-color="#CECECC"/>
<stop offset="0.1" stop-color="#CFCFCD" stop-opacity="0.94"/>
<stop offset="0.29" stop-color="#D2D2D0" stop-opacity="0.79"/>
<stop offset="0.54" stop-color="#D6D6D6" stop-opacity="0.54"/>
<stop offset="0.83" stop-color="#DBDBDD" stop-opacity="0.21"/>
<stop offset="1" stop-color="#DFDFE1" stop-opacity="0"/>
</radialGradient>
<radialGradient id="paint2_radial_13416_38" cx="0" cy="0" r="1" gradientUnits="userSpaceOnUse" gradientTransform="translate(171.26 -40.5865) rotate(-180) scale(145.954 145.953)">
<stop stop-color="#CECECC"/>
<stop offset="0.1" stop-color="#CFCFCD" stop-opacity="0.94"/>
<stop offset="0.29" stop-color="#D2D2D0" stop-opacity="0.79"/>
<stop offset="0.54" stop-color="#D6D6D6" stop-opacity="0.54"/>
<stop offset="0.83" stop-color="#DBDBDD" stop-opacity="0.21"/>
<stop offset="1" stop-color="#DFDFE1" stop-opacity="0"/>
</radialGradient>
<radialGradient id="paint3_radial_13416_38" cx="0" cy="0" r="1" gradientUnits="userSpaceOnUse" gradientTransform="translate(171.265 -40.5865) rotate(-180) scale(145.954 145.953)">
<stop stop-color="#CECECC"/>
<stop offset="0.1" stop-color="#CFCFCD" stop-opacity="0.94"/>
<stop offset="0.29" stop-color="#D2D2D0" stop-opacity="0.79"/>
<stop offset="0.54" stop-color="#D6D6D6" stop-opacity="0.54"/>
<stop offset="0.83" stop-color="#DBDBDD" stop-opacity="0.21"/>
<stop offset="1" stop-color="#DFDFE1" stop-opacity="0"/>
</radialGradient>
<linearGradient id="paint4_linear_13416_38" x1="217.639" y1="27.1779" x2="210.091" y2="80.7631" gradientUnits="userSpaceOnUse">
<stop stop-color="#EDBD00"/>
<stop offset="0.09" stop-color="#ECB504"/>
<stop offset="0.7" stop-color="#E4841D"/>
<stop offset="1" stop-color="#E17127"/>
</linearGradient>
<linearGradient id="paint5_linear_13416_38" x1="247.66" y1="40.9243" x2="233.456" y2="93.4313" gradientUnits="userSpaceOnUse">
<stop stop-color="#CB4080"/>
<stop offset="0.14" stop-color="#BF3374"/>
<stop offset="0.45" stop-color="#AB1C5E"/>
<stop offset="0.75" stop-color="#9E0E51"/>
<stop offset="1" stop-color="#9A094D"/>
</linearGradient>
<linearGradient id="paint6_linear_13416_38" x1="201.492" y1="28.4368" x2="187.288" y2="80.9438" gradientUnits="userSpaceOnUse">
<stop stop-color="#CB4080"/>
<stop offset="0.14" stop-color="#BF3374"/>
<stop offset="0.45" stop-color="#AB1C5E"/>
<stop offset="0.75" stop-color="#9E0E51"/>
<stop offset="1" stop-color="#9A094D"/>
</linearGradient>
<linearGradient id="paint7_linear_13416_38" x1="12.6177" y1="14.1093" x2="176.986" y2="67.9203" gradientUnits="userSpaceOnUse">
<stop stop-color="white"/>
<stop offset="0.25" stop-color="#FBFBFB"/>
<stop offset="0.5" stop-color="#EFEFF0"/>
<stop offset="0.74" stop-color="#DCDCDD"/>
<stop offset="0.95" stop-color="#C5C5C7"/>
</linearGradient>
<linearGradient id="paint8_linear_13416_38" x1="195.267" y1="117.605" x2="233.751" y2="4.04357" gradientUnits="userSpaceOnUse">
<stop stop-color="#DD6537"/>
<stop offset="0.28" stop-color="#E28027" stop-opacity="0.68"/>
<stop offset="0.63" stop-color="#E8A014" stop-opacity="0.32"/>
<stop offset="0.88" stop-color="#ECB408" stop-opacity="0.09"/>
<stop offset="1" stop-color="#EDBC03" stop-opacity="0"/>
</linearGradient>
<radialGradient id="paint9_radial_13416_38" cx="0" cy="0" r="1" gradientUnits="userSpaceOnUse" gradientTransform="translate(2.18007 14.6624) rotate(180) scale(127.584 127.584)">
<stop stop-color="#EDBD00"/>
<stop offset="0.09" stop-color="#ECB504"/>
<stop offset="0.7" stop-color="#E4841D"/>
<stop offset="1" stop-color="#E17127"/>
</radialGradient>
</defs>
</svg>
