<svg width="60" height="60" viewBox="0 0 60 60" fill="none" xmlns="http://www.w3.org/2000/svg">
<circle cx="30" cy="30" r="29.5" stroke="#3A10E5"/>
<path d="M20.2675 28.0506C20.3538 28.0375 20.4411 28.0315 20.5285 28.0326H35.4057L35.0813 27.8919C34.7642 27.752 34.4757 27.5615 34.2288 27.3292L30.0569 23.4397C29.5074 22.9506 29.4151 22.164 29.8381 21.5758C30.3304 20.9489 31.2745 20.8128 31.9469 21.2718C32.0012 21.3089 32.0528 21.3494 32.1014 21.3929L39.6455 28.4265C40.2351 28.9755 40.2356 29.8662 39.6467 30.4159C39.6463 30.4162 39.6459 30.4166 39.6455 30.417L32.1014 37.4505C31.5113 37.9991 30.556 37.9979 29.9675 37.4478C29.9212 37.4045 29.878 37.3584 29.8381 37.3099C29.4151 36.7216 29.5074 35.935 30.0569 35.446L34.2213 31.5494C34.4426 31.3427 34.6972 31.1695 34.9757 31.0359L35.4283 30.846H20.6115C19.8408 30.8727 19.1645 30.3707 19.0197 29.6644C18.8863 28.8975 19.445 28.175 20.2675 28.0506Z" fill="#3A10E5"/>
</svg>
