<svg width="301" height="176" viewBox="0 0 301 176" fill="none" xmlns="http://www.w3.org/2000/svg">
<g opacity="0.3">
<path fill-rule="evenodd" clip-rule="/" d="M174.4 52.9052C177.391 55.3252 182.65 54.3267 186.469 50.5085C190.287 46.6903 191.285 41.4303 188.865 38.4405L188.886 38.4194L188.483 38.0165L186.469 36.0015V36.0016C183.352 32.8859 177.579 33.6076 173.573 37.6135C169.567 41.6194 168.846 47.3928 171.962 50.5085C171.969 50.5155 171.975 50.5224 171.982 50.5294L173.972 52.519C173.973 52.5204 173.975 52.5219 173.976 52.5233C173.978 52.5248 173.98 52.5262 173.981 52.5276L174.379 52.9263L174.4 52.9052Z" fill="#DDDDDD"/>
<path d="M186.468 36.0016L186.887 35.5816C186.655 35.3496 186.279 35.3496 186.047 35.5816L186.468 36.0016ZM186.468 36.0017L186.047 36.4217C186.279 36.6537 186.655 36.6537 186.887 36.4217L186.468 36.0017ZM171.981 50.5294L172.402 50.1093L172.399 50.1075L171.981 50.5294ZM186.45 50.4914C184.526 52.416 182.237 53.5771 180.112 53.9196C177.987 54.2625 176.077 53.7841 174.798 52.5063L173.959 53.3463C175.574 54.9617 177.906 55.479 180.302 55.0925C182.699 54.7059 185.209 53.4129 187.291 51.3315L186.45 50.4914ZM188.465 38.8395C189.743 40.1173 190.222 42.0284 189.879 44.1536C189.536 46.2779 188.375 48.567 186.45 50.4914L187.291 51.3315C189.372 49.2501 190.664 46.7397 191.052 44.3428C191.438 41.9468 190.921 39.6148 189.306 37.9995L188.465 38.8395ZM188.465 38.8394V38.8395L189.306 37.9995L188.465 38.8394ZM186.047 36.4216L188.465 38.8394L189.306 37.9995L186.887 35.5816L186.047 36.4216ZM186.887 36.4217V36.4216L186.047 35.5816V35.5817L186.887 36.4217ZM173.993 38.0336C177.871 34.1553 183.256 33.6301 186.047 36.4217L186.887 35.5817C183.448 32.1418 177.286 33.0599 173.152 37.1936L173.993 38.0336ZM172.381 50.0886C169.589 47.2968 170.114 41.912 173.993 38.0336L173.152 37.1936C169.019 41.3271 168.1 47.4888 171.54 50.9286L172.381 50.0886ZM172.399 50.1075C172.393 50.1011 172.387 50.0948 172.381 50.0886L171.54 50.9286C171.548 50.9362 171.556 50.9438 171.563 50.9513L172.399 50.1075ZM174.795 52.502L172.402 50.1094L171.561 50.9494L173.954 53.3421L174.795 52.502ZM174.798 52.5063C174.798 52.5058 174.797 52.5052 174.796 52.5045C174.796 52.5038 174.795 52.5029 174.795 52.502L173.954 53.3421C173.955 53.3425 173.955 53.3432 173.956 53.3439C173.957 53.3446 173.958 53.3454 173.959 53.3463L174.798 52.5063Z" fill="#4C4C4C"/>
<path d="M171.961 50.5085C175.077 53.6243 180.85 52.9026 184.856 48.8966C188.862 44.8907 189.583 39.1174 186.468 36.0017C183.352 32.8859 177.579 33.6076 173.573 37.6135C169.567 41.6195 168.845 47.3928 171.961 50.5085Z" fill="#EDEDED"/>
<path d="M171.961 50.5085C175.077 53.6243 180.85 52.9026 184.856 48.8966C188.862 44.8907 189.583 39.1174 186.468 36.0017C183.352 32.8859 177.579 33.6076 173.573 37.6135C169.567 41.6195 168.845 47.3928 171.961 50.5085Z" stroke="#4C4C4C" stroke-width="1.35"/>
<path opacity="0.15" d="M173.573 48.8966C175.996 51.3199 180.486 50.7586 183.602 47.6429C186.718 44.5271 187.279 40.0368 184.856 37.6135C182.432 35.1901 177.942 35.7514 174.826 38.8671C171.711 41.9829 171.149 46.4732 173.573 48.8966Z" stroke="#4C4C4C" stroke-width="0.8"/>
<g opacity="0.4">
<path d="M183.268 42.7484C183.547 40.5103 181.959 38.9227 179.721 39.2025C177.483 39.4823 175.442 41.5234 175.162 43.7615C174.882 45.9997 176.47 47.5872 178.708 47.3075" stroke="#4C4C4C" stroke-width="1.5" stroke-linecap="round"/>
<path d="M183.445 39.0238L174.983 47.4861" stroke="#4C4C4C" stroke-width="1.35" stroke-linecap="round"/>
</g>
<path fill-rule="evenodd" clip-rule="evenodd" d="M184.716 126.849L187.558 129.69L187.533 129.716C190.376 133.229 189.203 139.41 184.717 143.897C180.23 148.383 174.049 149.557 170.536 146.713L170.511 146.737L170.063 146.289C170.055 146.282 170.046 146.273 170.037 146.264C170.029 146.255 170.02 146.247 170.012 146.238L167.694 143.921C167.686 143.913 167.678 143.905 167.67 143.897C164.008 140.235 164.856 133.451 169.564 128.743C174.271 124.036 181.056 123.188 184.716 126.849Z" fill="#DDDDDD"/>
<path d="M187.558 129.69L187.091 130.157L187.558 129.69ZM184.716 126.849L185.183 126.382C184.925 126.124 184.507 126.124 184.25 126.382L184.716 126.849ZM184.716 126.849L184.25 127.316C184.507 127.574 184.925 127.574 185.183 127.316L184.716 126.849ZM167.693 143.92L168.161 143.454L168.158 143.451L167.693 143.92ZM170.501 146.729L170.969 146.262L170.968 146.261L170.501 146.729ZM184.723 143.903C182.457 146.17 179.76 147.538 177.255 147.942C174.749 148.347 172.489 147.783 170.977 146.271L170.044 147.205C171.931 149.091 174.659 149.699 177.465 149.245C180.273 148.793 183.216 147.278 185.657 144.837L184.723 143.903ZM187.091 130.157C188.604 131.669 189.167 133.929 188.762 136.434C188.358 138.94 186.99 141.637 184.723 143.903L185.657 144.837C188.098 142.395 189.613 139.453 190.066 136.645C190.519 133.838 189.912 131.111 188.025 129.224L187.091 130.157ZM187.091 130.157L188.025 129.224H188.024L187.091 130.157ZM184.25 127.316L187.091 130.157L188.024 129.224L185.183 126.382L184.25 127.316ZM185.183 127.316L184.25 126.382L185.183 127.316ZM170.03 129.21C174.596 124.644 180.949 124.015 184.25 127.316L185.183 126.382C181.162 122.361 173.946 123.427 169.097 128.277L170.03 129.21ZM168.136 143.429C164.835 140.129 165.464 133.776 170.03 129.21L169.097 128.277C164.247 133.126 163.182 140.342 167.202 144.363L168.136 143.429ZM168.158 143.451C168.151 143.444 168.143 143.437 168.136 143.429L167.202 144.363C167.211 144.372 167.22 144.381 167.229 144.39L168.158 143.451ZM170.968 146.261L168.161 143.454L167.227 144.387L170.035 147.195L170.968 146.261ZM170.977 146.271C170.975 146.268 170.972 146.266 170.969 146.262L170.034 147.194C170.037 147.198 170.04 147.201 170.044 147.205L170.977 146.271Z" fill="#4C4C4C"/>
<path d="M167.669 143.897C171.331 147.558 178.115 146.71 182.822 142.003C187.53 137.295 188.378 130.511 184.716 126.85C181.055 123.188 174.271 124.036 169.563 128.744C164.856 133.451 164.008 140.235 167.669 143.897Z" fill="#EDEDED"/>
<path d="M167.669 143.897C171.331 147.558 178.115 146.71 182.822 142.003C187.53 137.295 188.378 130.511 184.716 126.85C181.055 123.188 174.271 124.036 169.563 128.744C164.856 133.451 164.008 140.235 167.669 143.897Z" stroke="#4C4C4C" stroke-width="1.5"/>
<path opacity="0.15" d="M169.563 142.003C172.411 144.85 177.688 144.191 181.349 140.529C185.01 136.868 185.67 131.591 182.822 128.744C179.975 125.896 174.698 126.556 171.037 130.217C167.375 133.878 166.716 139.155 169.563 142.003Z" stroke="#4C4C4C" stroke-width="0.940088"/>
<g opacity="0.4">
<path d="M180.955 134.777C181.284 132.148 179.419 130.282 176.788 130.611C174.158 130.94 171.76 133.338 171.431 135.968C171.102 138.598 172.967 140.464 175.598 140.135" stroke="#4C4C4C" stroke-width="1.76267" stroke-linecap="round"/>
<path d="M181.166 130.401L171.221 140.345" stroke="#4C4C4C" stroke-width="1.5864" stroke-linecap="round"/>
</g>
<path fill-rule="evenodd" clip-rule="evenodd" d="M105.516 91.6494L108.358 94.49L108.333 94.5155C111.176 98.0285 110.003 104.21 105.517 108.697C101.03 113.183 94.8487 114.357 91.3357 111.513L91.3111 111.537L90.8632 111.089C90.8544 111.082 90.8456 111.073 90.8368 111.064C90.8288 111.055 90.82 111.047 90.8112 111.038L88.4933 108.72C88.4854 108.713 88.4775 108.705 88.4696 108.697C84.808 105.035 85.656 98.2511 90.3633 93.5431C95.0704 88.836 101.855 87.9879 105.516 91.6494Z" fill="#DDDDDD"/>
<path d="M105.516 91.6494L105.983 91.1821C105.725 90.9243 105.307 90.9243 105.05 91.1821L105.516 91.6494ZM105.516 91.6494L105.05 92.1158C105.307 92.3737 105.725 92.3737 105.983 92.1158L105.516 91.6494ZM88.4933 108.721L88.9606 108.254L88.958 108.251L88.4933 108.721ZM91.3014 111.529L91.7687 111.062L91.7678 111.061L91.3014 111.529ZM105.523 108.703C103.257 110.97 100.56 112.338 98.0545 112.742C95.5492 113.147 93.2893 112.583 91.7775 111.071L90.8438 112.005C92.7314 113.891 95.4585 114.499 98.2648 114.045C101.073 113.593 104.016 112.078 106.457 109.637L105.523 108.703ZM107.891 94.9573C109.404 96.4692 109.967 98.729 109.562 101.234C109.158 103.74 107.79 106.437 105.523 108.703L106.457 109.637C108.898 107.195 110.413 104.253 110.866 101.445C111.319 98.6384 110.712 95.9113 108.825 94.0237L107.891 94.9573ZM107.891 94.9573L108.825 94.0237H108.824L107.891 94.9573ZM105.05 92.1158L107.891 94.9573L108.824 94.0237L105.983 91.1821L105.05 92.1158ZM105.983 92.1158L105.05 91.1821L105.983 92.1158ZM90.8297 94.0105C95.396 89.4441 101.749 88.8149 105.05 92.1158L105.983 91.1821C101.962 87.1611 94.7457 88.2271 89.8969 93.0768L90.8297 94.0105ZM88.936 108.229C85.6347 104.929 86.2645 98.5759 90.8297 94.0105L89.8969 93.0768C85.0475 97.9256 83.9812 105.142 88.0023 109.163L88.936 108.229ZM88.958 108.251C88.9509 108.244 88.943 108.237 88.936 108.229L88.0023 109.163C88.0111 109.172 88.0199 109.181 88.0287 109.19L88.958 108.251ZM91.7678 111.061L88.9606 108.254L88.0269 109.187L90.835 111.995L91.7678 111.061ZM91.7775 111.071C91.7748 111.068 91.7722 111.066 91.7687 111.062L90.8341 111.994C90.8368 111.998 90.8403 112.001 90.8438 112.005L91.7775 111.071Z" fill="#4C4C4C"/>
<path d="M88.47 108.697C92.1313 112.358 98.9155 111.51 103.623 106.802C108.33 102.095 109.178 95.3108 105.517 91.6495C101.856 87.9881 95.0716 88.8362 90.3641 93.5436C85.6567 98.251 84.8087 105.035 88.47 108.697Z" fill="#EDEDED"/>
<path d="M88.47 108.697C92.1313 112.358 98.9155 111.51 103.623 106.802C108.33 102.095 109.178 95.3108 105.517 91.6495C101.856 87.9881 95.0716 88.8362 90.3641 93.5436C85.6567 98.251 84.8087 105.035 88.47 108.697Z" stroke="#4C4C4C" stroke-width="1.5"/>
<path opacity="0.15" d="M90.3642 106.803C93.2119 109.65 98.4885 108.991 102.15 105.329C105.811 101.668 106.471 96.3914 103.623 93.5437C100.775 90.696 95.4987 91.3555 91.8374 95.0169C88.176 98.6782 87.5165 103.955 90.3642 106.803Z" stroke="#4C4C4C" stroke-width="0.940088"/>
<g opacity="0.4">
<path d="M101.755 99.5773C102.084 96.9479 100.218 95.0823 97.5881 95.4105C94.9578 95.7396 92.5598 98.1376 92.2307 100.768C91.9015 103.398 93.7671 105.264 96.3975 104.935" stroke="#4C4C4C" stroke-width="1.76267" stroke-linecap="round"/>
<path d="M101.965 95.201L92.0204 105.145" stroke="#4C4C4C" stroke-width="1.5864" stroke-linecap="round"/>
</g>
<path fill-rule="evenodd" clip-rule="evenodd" d="M57.5634 120.1C54.5736 117.68 49.3138 118.678 45.4955 122.496C41.6773 126.314 40.6789 131.574 43.0989 134.564L43.0778 134.585L43.4807 134.988L45.4956 137.003C48.6114 140.119 54.3847 139.397 58.3906 135.392C62.3965 131.386 63.1182 125.612 60.0025 122.496C59.9956 122.489 59.9885 122.483 59.9816 122.476L57.9918 120.486C57.9904 120.484 57.989 120.483 57.9876 120.482C57.9862 120.48 57.9847 120.479 57.9833 120.477L57.5846 120.079L57.5634 120.1Z" fill="#DDDDDD"/>
<path d="M43.0783 134.586L42.6583 135.005L43.0783 134.586ZM45.4961 137.003L45.0761 137.424C45.1875 137.534 45.3386 137.597 45.4961 137.597C45.6536 137.597 45.8047 137.534 45.9161 137.424L45.4961 137.003ZM45.4961 137.003L45.9161 136.583C45.6841 136.352 45.308 136.352 45.0761 136.583L45.4961 137.003ZM59.982 122.476L59.562 122.896L59.5639 122.897L59.982 122.476ZM45.5131 122.514C47.4376 120.589 49.7267 119.428 51.8509 119.085C53.9762 118.743 55.8873 119.221 57.1651 120.498L58.0051 119.659C56.3898 118.043 54.0578 117.526 51.6618 117.912C49.2649 118.299 46.7545 119.592 44.673 121.673L45.5131 122.514ZM43.4982 134.166C42.2205 132.888 41.7421 130.977 42.0849 128.851C42.4275 126.727 43.5886 124.438 45.5131 122.514L44.673 121.673C42.5916 123.754 41.2987 126.265 40.9121 128.662C40.5256 131.058 41.0428 133.39 42.6583 135.005L43.4982 134.166ZM43.4983 134.166H43.4982L42.6583 135.005L43.4983 134.166ZM45.9161 136.583L43.4983 134.166L42.6583 135.005L45.0761 137.424L45.9161 136.583ZM45.0761 136.583L45.9161 137.424L45.0761 136.583ZM57.9711 134.971C54.0927 138.85 48.7078 139.374 45.9161 136.583L45.0761 137.424C48.516 140.863 54.6776 139.945 58.8111 135.811L57.9711 134.971ZM59.5829 122.917C62.3746 125.708 61.8494 131.093 57.9711 134.971L58.8111 135.811C62.9447 131.678 63.8628 125.516 60.423 122.076L59.5829 122.917ZM59.5639 122.897C59.5703 122.904 59.5766 122.91 59.5829 122.917L60.423 122.076C60.4153 122.068 60.4077 122.061 60.4001 122.053L59.5639 122.897ZM57.1694 120.503L59.562 122.896L60.402 122.055L58.0094 119.662L57.1694 120.503ZM57.1651 120.498C57.1656 120.499 57.1661 120.499 57.1669 120.5C57.1675 120.501 57.1684 120.502 57.1694 120.503L58.0094 119.662C58.0089 119.662 58.0084 119.662 58.0076 119.661C58.007 119.661 58.0061 119.66 58.0051 119.659L57.1651 120.498Z" fill="#4C4C4C"/>
<path d="M60.0029 122.496C56.8872 119.381 51.1139 120.102 47.1079 124.108C43.102 128.114 42.3803 133.888 45.496 137.003C48.6118 140.119 54.3851 139.397 58.391 135.391C62.397 131.386 63.1186 125.612 60.0029 122.496Z" fill="#EDEDED"/>
<path d="M60.0029 122.496C56.8872 119.381 51.1139 120.102 47.1079 124.108C43.102 128.114 42.3803 133.888 45.496 137.003C48.6118 140.119 54.3851 139.397 58.391 135.391C62.397 131.386 63.1186 125.612 60.0029 122.496Z" stroke="#4C4C4C" stroke-width="1.35"/>
<path opacity="0.15" d="M58.3904 124.108C55.967 121.685 51.4767 122.246 48.3609 125.362C45.2452 128.478 44.6839 132.968 47.1072 135.391C49.5306 137.815 54.0209 137.253 57.1367 134.138C60.2524 131.022 60.8137 126.532 58.3904 124.108Z" stroke="#4C4C4C" stroke-width="0.8"/>
<g opacity="0.4">
<path d="M48.697 130.257C48.4173 132.495 50.0048 134.082 52.243 133.802C54.4811 133.522 56.5223 131.482 56.802 129.243C57.0818 127.005 55.4942 125.418 53.256 125.697" stroke="#4C4C4C" stroke-width="1.5" stroke-linecap="round"/>
<path d="M48.5186 133.981L56.9809 125.519" stroke="#4C4C4C" stroke-width="1.35" stroke-linecap="round"/>
</g>
<path fill-rule="evenodd" clip-rule="evenodd" d="M195.724 87.5396C192.734 85.1197 187.474 86.1182 183.656 89.936C179.837 93.7544 178.839 99.0141 181.259 102.004L181.238 102.025L181.641 102.429L183.656 104.443H183.656C186.772 107.559 192.545 106.837 196.551 102.832C200.557 98.8258 201.278 93.0521 198.163 89.936C198.156 89.929 198.149 89.9228 198.142 89.9158L196.152 87.9258C196.151 87.9244 196.15 87.923 196.148 87.9215C196.146 87.9201 196.145 87.9186 196.144 87.9172L195.745 87.5185L195.724 87.5396Z" fill="#DDDDDD"/>
<path d="M183.655 104.443L183.235 104.863C183.468 105.095 183.843 105.095 184.076 104.863L183.655 104.443ZM183.656 104.443L184.076 104.023C183.843 103.792 183.468 103.792 183.235 104.023L183.656 104.443ZM198.142 89.9157L197.721 90.3355L197.724 90.3372L198.142 89.9157ZM183.673 89.9536C185.597 88.029 187.886 86.8678 190.011 86.5252C192.136 86.1824 194.047 86.6607 195.325 87.9385L196.164 87.0985C194.55 85.4831 192.218 84.9659 189.821 85.3523C187.424 85.7389 184.914 87.0319 182.832 89.1132L183.673 89.9536ZM181.658 101.606C180.38 100.328 179.902 98.4165 180.244 96.2913C180.587 94.167 181.748 91.8781 183.673 89.9536L182.832 89.1132C180.751 91.1944 179.458 93.705 179.071 96.1021C178.685 98.4984 179.202 100.83 180.818 102.445L181.658 101.606ZM181.658 101.606L180.818 102.445L181.658 101.606ZM184.076 104.023L181.658 101.606L180.818 102.445L183.235 104.863L184.076 104.023ZM183.235 104.023L184.076 104.863L183.235 104.023ZM196.131 102.411C192.252 106.29 186.867 106.814 184.076 104.023L183.235 104.863C186.675 108.303 192.837 107.385 196.97 103.251L196.131 102.411ZM197.742 90.3566C200.534 93.148 200.009 98.5327 196.131 102.411L196.97 103.251C201.104 99.1179 202.023 92.9561 198.583 89.5162L197.742 90.3566ZM197.724 90.3372C197.73 90.3434 197.736 90.3496 197.742 90.3566L198.583 89.5162C198.575 89.5083 198.568 89.5012 198.56 89.4933L197.724 90.3372ZM195.329 87.9428L197.721 90.3355L198.561 89.4951L196.169 87.1027L195.329 87.9428ZM195.325 87.9385C195.325 87.9391 195.326 87.9396 195.327 87.9403C195.327 87.941 195.328 87.9419 195.329 87.9428L196.169 87.1027C196.169 87.1023 196.168 87.1018 196.167 87.101C196.166 87.1003 196.165 87.0994 196.164 87.0985L195.325 87.9385Z" fill="#4C4C4C"/>
<path d="M198.163 89.9364C195.047 86.8207 189.274 87.5423 185.268 91.5483C181.262 95.5543 180.541 101.328 183.656 104.443C186.772 107.559 192.545 106.837 196.551 102.831C200.557 98.8255 201.279 93.0522 198.163 89.9364Z" fill="#EDEDED"/>
<path d="M198.163 89.9364C195.047 86.8207 189.274 87.5423 185.268 91.5483C181.262 95.5543 180.541 101.328 183.656 104.443C186.772 107.559 192.545 106.837 196.551 102.831C200.557 98.8255 201.279 93.0522 198.163 89.9364Z" stroke="#4C4C4C" stroke-width="1.35"/>
<path opacity="0.15" d="M196.551 91.5483C194.128 89.1249 189.638 89.6862 186.522 92.8019C183.406 95.9177 182.845 100.408 185.268 102.831C187.692 105.255 192.182 104.693 195.298 101.578C198.414 98.4619 198.975 93.9716 196.551 91.5483Z" stroke="#4C4C4C" stroke-width="0.8"/>
<g opacity="0.4">
<path d="M186.857 97.6967C186.577 99.9346 188.165 101.522 190.403 101.242C192.641 100.962 194.682 98.9217 194.962 96.683C195.242 94.4451 193.654 92.8576 191.416 93.1375" stroke="#4C4C4C" stroke-width="1.5" stroke-linecap="round"/>
<path d="M186.679 101.421L195.141 92.9589" stroke="#4C4C4C" stroke-width="1.35" stroke-linecap="round"/>
</g>
<path fill-rule="evenodd" clip-rule="evenodd" d="M115.875 123.143C115.882 123.136 115.889 123.129 115.896 123.122C119.012 120.006 124.785 120.727 128.791 124.734C132.797 128.74 133.519 134.512 130.402 137.629L130.388 137.643L127.985 140.046L127.964 140.025C124.974 142.445 119.714 141.447 115.896 137.629C112.077 133.81 111.079 128.55 113.499 125.56L113.478 125.539L113.858 125.16C113.865 125.152 113.873 125.144 113.881 125.136C113.889 125.129 113.896 125.121 113.904 125.113L115.875 123.143Z" fill="#DDDDDD"/>
<path d="M115.875 123.143L116.295 123.563L116.297 123.561L115.875 123.143ZM130.402 137.629L130.822 138.049L130.823 138.048L130.402 137.629ZM130.388 137.643L129.969 137.222H129.969L130.388 137.643ZM127.985 140.046L128.4 140.471L128.405 140.467L127.985 140.046ZM127.985 140.046L127.57 139.622L127.565 139.626L127.985 140.046ZM113.502 125.516L113.919 125.939L113.922 125.936L113.502 125.516ZM115.476 122.702C115.468 122.709 115.46 122.717 115.453 122.725L116.297 123.561C116.303 123.555 116.309 123.548 116.316 123.541L115.476 122.702ZM129.211 124.313C125.078 120.18 118.916 119.262 115.476 122.702L116.316 123.541C119.108 120.75 124.492 121.275 128.371 125.154L129.211 124.313ZM130.823 138.048C134.263 134.608 133.344 128.447 129.211 124.313L128.371 125.154C132.25 129.032 132.774 134.417 129.983 137.209L130.823 138.048ZM130.808 138.063L130.822 138.049L129.984 137.208L129.969 137.222L130.808 138.063ZM128.405 140.467L130.809 138.062L129.969 137.222L127.565 139.626L128.405 140.467ZM128.4 140.471L127.57 139.622L128.4 140.471ZM115.073 138.451C117.154 140.533 119.665 141.826 122.062 142.212C124.458 142.599 126.789 142.081 128.405 140.467L127.565 139.626C126.287 140.904 124.376 141.383 122.251 141.039C120.127 140.697 117.838 139.535 115.913 137.612L115.073 138.451ZM113.058 125.119C111.443 126.735 110.925 129.067 111.312 131.462C111.699 133.86 112.992 136.37 115.073 138.451L115.913 137.612C113.989 135.687 112.827 133.397 112.485 131.273C112.142 129.148 112.62 127.237 113.898 125.96L113.058 125.119ZM113.084 125.094C113.075 125.102 113.066 125.111 113.058 125.119L113.898 125.96C113.905 125.953 113.912 125.946 113.919 125.939L113.084 125.094ZM113.922 125.936L116.295 123.563L115.455 122.723L113.081 125.096L113.922 125.936Z" fill="#4C4C4C"/>
<path d="M115.897 123.121C112.781 126.237 113.502 132.01 117.508 136.016C121.514 140.022 127.288 140.744 130.403 137.628C133.519 134.512 132.797 128.739 128.791 124.733C124.786 120.727 119.012 120.006 115.897 123.121Z" fill="#EDEDED"/>
<path d="M115.897 123.121C112.781 126.237 113.502 132.01 117.508 136.016C121.514 140.022 127.288 140.744 130.403 137.628C133.519 134.512 132.797 128.739 128.791 124.733C124.786 120.727 119.012 120.006 115.897 123.121Z" stroke="#4C4C4C" stroke-width="1.35"/>
<path opacity="0.15" d="M117.508 124.733C115.085 127.157 115.646 131.647 118.762 134.763C121.877 137.878 126.368 138.44 128.791 136.016C131.214 133.593 130.653 129.103 127.537 125.987C124.422 122.871 119.931 122.31 117.508 124.733Z" stroke="#4C4C4C" stroke-width="0.8"/>
<g opacity="0.4">
<path d="M122.643 126.322C120.405 126.042 118.817 127.63 119.096 129.869C119.376 132.107 121.418 134.148 123.656 134.428C125.894 134.707 127.482 133.119 127.202 130.882" stroke="#4C4C4C" stroke-width="1.5" stroke-linecap="round"/>
<path d="M118.918 126.144L127.381 134.607" stroke="#4C4C4C" stroke-width="1.35" stroke-linecap="round"/>
</g>
 <path fill-rule="evenodd" clip-rule="evenodd" d="M142.392 158.158C140.625 160.342 141.354 164.183 144.143 166.973C146.931 169.762 150.774 170.49 152.958 168.723L152.973 168.738L154.723 166.989L154.739 166.973C157.015 164.697 156.487 160.48 153.561 157.554C150.635 154.628 146.418 154.101 144.143 156.377C144.141 156.379 144.138 156.381 144.137 156.383L142.687 157.832C142.682 157.838 142.677 157.843 142.671 157.848C142.666 157.854 142.661 157.859 142.656 157.864L142.377 158.143L142.392 158.158Z" fill="#DDDDDD">
    <animate attributeName="transform" type="scale" values="1;1.1;1" dur="1.5s" repeatCount="indefinite" />
    <animate attributeName="fill" values="#DDDDDD;#AAAAAA;#DDDDDD" dur="1.5s" repeatCount="indefinite" />
  </path><path d="M142.383 158.137L142.694 158.448L142.695 158.447L142.383 158.137ZM152.973 168.738L153.285 169.05L153.286 169.049L152.973 168.738ZM152.988 168.723L152.677 168.413L152.677 168.413L152.988 168.723ZM154.723 166.989L154.413 166.676L154.412 166.677L154.723 166.989ZM154.739 166.973L155.05 167.284V167.284L154.739 166.973ZM144.137 156.383L144.449 156.694L144.137 156.383ZM142.073 157.825C142.071 157.827 142.068 157.829 142.066 157.831L142.689 158.454C142.69 158.452 142.692 158.45 142.694 158.448L142.073 157.825ZM142.066 157.831C140.885 159.013 140.507 160.719 140.79 162.47C141.072 164.222 142.017 166.057 143.538 167.578L144.16 166.955C142.755 165.551 141.908 163.88 141.658 162.33C141.408 160.779 141.757 159.386 142.689 158.454L142.066 157.831ZM143.538 167.578C145.059 169.099 146.894 170.044 148.646 170.327C150.397 170.609 152.103 170.232 153.285 169.05L152.662 168.428C151.731 169.359 150.337 169.708 148.786 169.458C147.235 169.208 145.565 168.361 144.16 166.955L143.538 167.578ZM153.286 169.049L153.3 169.034L152.677 168.413L152.662 168.428L153.286 169.049ZM153.3 169.035L155.034 167.299L154.412 166.677L152.677 168.413L153.3 169.035ZM155.033 167.3L155.05 167.284L154.429 166.661L154.413 166.676L155.033 167.3ZM155.05 167.284C157.566 164.768 156.894 160.264 153.873 157.243L153.251 157.865C156.082 160.697 156.464 164.626 154.428 166.661L155.05 167.284ZM153.873 157.243C150.852 154.223 146.348 153.549 143.833 156.065L144.455 156.687C146.49 154.652 150.419 155.034 153.251 157.865L153.873 157.243ZM143.833 156.065C143.83 156.068 143.827 156.07 143.826 156.072L144.449 156.694C144.45 156.692 144.453 156.689 144.455 156.687L143.833 156.065ZM142.695 158.447L144.449 156.694L143.826 156.071L142.073 157.825L142.695 158.447Z" fill="#4C4C4C"/>
<path d="M144.143 156.377C141.867 158.652 142.394 162.869 145.32 165.795C148.246 168.721 152.463 169.248 154.739 166.972C157.015 164.697 156.487 160.48 153.561 157.554C150.635 154.628 146.419 154.101 144.143 156.377Z" fill="#EDEDED"/>
<path d="M144.143 156.377C141.867 158.652 142.394 162.869 145.32 165.795C148.246 168.721 152.463 169.248 154.739 166.972C157.015 164.697 156.487 160.48 153.561 157.554C150.635 154.628 146.419 154.101 144.143 156.377Z" stroke="#4C4C4C"/>
<path opacity="0.15" d="M145.321 157.554C143.551 159.324 143.961 162.604 146.236 164.879C148.512 167.155 151.792 167.565 153.562 165.795C155.332 164.025 154.922 160.745 152.646 158.47C150.37 156.194 147.091 155.784 145.321 157.554Z" stroke="#4C4C4C" stroke-width="0.584324"/>
<g opacity="0.4">
<path d="M149.07 158.715C147.436 158.51 146.276 159.67 146.48 161.305C146.685 162.939 148.175 164.431 149.81 164.635C151.445 164.839 152.604 163.679 152.4 162.045" stroke="#4C4C4C" stroke-width="1.09561" stroke-linecap="round"/>
<path d="M146.351 158.584L152.531 164.765" stroke="#4C4C4C" stroke-width="0.986047" stroke-linecap="round"/>
</g>
<path fill-rule="evenodd" clip-rule="evenodd" d="M212.792 76.318C211.024 78.5018 211.754 82.3436 214.542 85.1325C217.331 87.9214 221.173 88.6503 223.357 86.883L223.372 86.8985L225.123 85.1486L225.138 85.1326C227.414 82.8568 226.887 78.64 223.961 75.714C221.035 72.788 216.818 72.2609 214.542 74.5367C214.541 74.5388 214.538 74.5409 214.536 74.5429L213.087 75.9924C213.082 75.9977 213.076 76.0029 213.071 76.0083C213.066 76.0136 213.06 76.019 213.055 76.0243L212.776 76.3026L212.792 76.318Z" fill="#DDDDDD"/>
<path d="M212.783 76.2969L213.093 76.6086L213.094 76.6081L212.783 76.2969ZM223.373 86.8986L223.684 87.2097L223.685 87.2089L223.373 86.8986ZM223.388 86.8836L223.077 86.5726L223.076 86.5734L223.388 86.8836ZM225.123 85.1487L224.812 84.8368L224.811 84.8376L225.123 85.1487ZM225.139 85.1327L225.449 85.4446V85.4439L225.139 85.1327ZM214.537 74.5431L214.848 74.8542V74.8537L214.537 74.5431ZM212.472 75.9852C212.47 75.9873 212.468 75.9894 212.466 75.9916L213.088 76.6139C213.09 76.6122 213.092 76.6104 213.093 76.6086L212.472 75.9852ZM212.466 75.9916C211.284 77.1732 210.907 78.8786 211.189 80.6301C211.472 82.3822 212.417 84.217 213.937 85.7381L214.559 85.1158C213.155 83.711 212.308 82.0401 212.058 80.49C211.808 78.9391 212.156 77.5454 213.088 76.6139L212.466 75.9916ZM213.937 85.7381C215.459 87.2591 217.294 88.2043 219.046 88.4867C220.797 88.7692 222.502 88.3917 223.684 87.2097L223.062 86.5874C222.13 87.519 220.736 87.8682 219.186 87.6181C217.635 87.368 215.965 86.5206 214.559 85.1158L213.937 85.7381ZM223.685 87.2089L223.7 87.194L223.076 86.5734L223.061 86.5883L223.685 87.2089ZM223.699 87.1948L225.434 85.4598L224.811 84.8376L223.077 86.5726L223.699 87.1948ZM225.433 85.4606L225.449 85.4446L224.828 84.8208L224.812 84.8368L225.433 85.4606ZM225.449 85.4439C227.965 82.928 227.293 78.4235 224.273 75.403L223.651 76.0252C226.482 78.8567 226.864 82.7859 224.827 84.8216L225.449 85.4439ZM224.273 75.403C221.252 72.3826 216.748 71.7099 214.232 74.2257L214.854 74.848C216.89 72.8123 220.819 73.1938 223.651 76.0252L224.273 75.403ZM214.232 74.2257C214.229 74.228 214.227 74.2303 214.225 74.2325L214.848 74.8537C214.85 74.8517 214.853 74.8498 214.854 74.848L214.232 74.2257ZM213.094 76.6081L214.848 74.8542L214.226 74.232L212.472 75.9858L213.094 76.6081Z" fill="#4C4C4C"/>
<path d="M214.543 74.5367C212.268 76.8125 212.795 81.0293 215.721 83.9553C218.647 86.8812 222.863 87.4083 225.139 85.1326C227.415 82.8568 226.888 78.64 223.962 75.714C221.036 72.7881 216.819 72.261 214.543 74.5367Z" fill="#EDEDED"/>
<path d="M214.543 74.5367C212.268 76.8125 212.795 81.0293 215.721 83.9553C218.647 86.8812 222.863 87.4083 225.139 85.1326C227.415 82.8568 226.888 78.64 223.962 75.714C221.036 72.7881 216.819 72.261 214.543 74.5367Z" stroke="#4C4C4C"/>
<path opacity="0.15" d="M215.721 75.7141C213.951 77.4841 214.361 80.7638 216.636 83.0396C218.912 85.3153 222.192 85.7253 223.962 83.9553C225.732 82.1853 225.322 78.9055 223.046 76.6297C220.77 74.354 217.491 73.944 215.721 75.7141Z" stroke="#4C4C4C" stroke-width="0.584324"/>
<g opacity="0.4">
<path d="M219.472 76.8748C217.837 76.6705 216.678 77.83 216.882 79.4648C217.086 81.0995 218.577 82.5904 220.212 82.7947C221.847 82.9991 223.006 81.8395 222.801 80.2048" stroke="#4C4C4C" stroke-width="1.09561" stroke-linecap="round"/>
<path d="M216.751 76.7444L222.931 82.9252" stroke="#4C4C4C" stroke-width="0.986047" stroke-linecap="round"/>
</g>
 <path fill-rule="evenodd" clip-rule="evenodd" d="M113.601 10.9682C113.609 10.959 113.619 10.9499 113.628 10.9409C117.969 6.59945 126.014 7.60499 131.595 13.1868C137.177 18.7686 138.183 26.8129 133.841 31.1542L133.822 31.1733L130.472 34.523L130.443 34.4935C126.277 37.8655 118.948 36.4743 113.628 31.1541C108.307 25.8339 106.916 18.5049 110.288 14.339L110.259 14.3096L110.79 13.779C110.8 13.7687 110.81 13.7584 110.821 13.7482C110.83 13.7379 110.841 13.7277 110.851 13.7175L113.601 10.9682Z" fill="#DDDDDD">
    <animate attributeName="transform" type="scale" values="1;1.1;1" dur="1.5s" repeatCount="indefinite" />
    <animate attributeName="fill" values="#DDDDDD;#bbbb;#DDDDDD" dur="1.5s" repeatCount="indefinite" />
  </path><path d="M130.473 34.5229L130.939 34.9897L130.94 34.9884L130.473 34.5229ZM130.501 34.4946L130.034 34.0278L130.033 34.0291L130.501 34.4946ZM133.822 31.1733L133.356 30.7058V30.7066L133.822 31.1733ZM133.841 31.1542L134.307 31.6216L134.308 31.6209L133.841 31.1542ZM113.601 10.9681L114.067 11.4347L114.07 11.4327L113.601 10.9681ZM110.272 14.2972L110.737 14.7649L110.738 14.7638L110.272 14.2972ZM113.533 31.2489C110.829 28.5452 109.193 25.3245 108.71 22.326C108.226 19.3266 108.898 16.6044 110.726 14.7763L109.792 13.8428C107.589 16.046 106.874 19.2359 107.406 22.5362C107.939 25.8375 109.722 29.3042 112.6 32.1822L113.533 31.2489ZM130.006 34.0563C128.178 35.8844 125.455 36.5563 122.456 36.0726C119.458 35.589 116.237 33.9525 113.533 31.2489L112.6 32.1822C115.478 35.0603 118.945 36.8432 122.246 37.3757C125.546 37.908 128.736 37.1928 130.939 34.9897L130.006 34.0563ZM130.033 34.0291L130.005 34.0575L130.94 34.9884L130.968 34.96L130.033 34.0291ZM133.356 30.7066L130.034 34.0278L130.967 34.9613L134.289 31.64L133.356 30.7066ZM133.375 30.6868L133.356 30.7058L134.288 31.6407L134.307 31.6216L133.375 30.6868ZM131.128 13.6534C136.569 19.0934 137.355 26.7062 133.374 30.6875L134.308 31.6209C139.01 26.9194 137.786 18.4436 132.062 12.72L131.128 13.6534ZM114.094 11.4074C118.075 7.42618 125.688 8.21342 131.128 13.6534L132.062 12.72C126.339 6.99644 117.862 5.7726 113.161 10.4741L114.094 11.4074ZM114.07 11.4327C114.078 11.4243 114.086 11.4159 114.094 11.4074L113.161 10.4741C113.151 10.4838 113.141 10.4936 113.132 10.5034L114.07 11.4327ZM110.738 14.7638L114.067 11.4347L113.134 10.5014L109.805 13.8305L110.738 14.7638ZM110.726 14.7763C110.729 14.7725 110.734 14.7687 110.737 14.7649L109.806 13.8294C109.802 13.8339 109.797 13.8384 109.792 13.8428L110.726 14.7763Z" fill="#4C4C4C"/>
<path d="M113.628 10.9408C109.287 15.2822 110.292 23.3265 115.874 28.9082C121.456 34.49 129.5 35.4956 133.841 31.1542C138.183 26.8128 137.177 18.7685 131.595 13.1867C126.014 7.60496 117.969 6.59941 113.628 10.9408Z" fill="#EDEDED"/>
<path d="M113.628 10.9408C109.287 15.2822 110.292 23.3265 115.874 28.9082C121.456 34.49 129.5 35.4956 133.841 31.1542C138.183 26.8128 137.177 18.7685 131.595 13.1867C126.014 7.60496 117.969 6.59941 113.628 10.9408Z" stroke="#4C4C4C" stroke-width="1.5"/>
<path opacity="0.15" d="M115.874 13.1869C112.497 16.5635 113.279 22.8202 117.62 27.1616C121.962 31.5029 128.218 32.285 131.595 28.9084C134.972 25.5317 134.19 19.2751 129.848 14.9337C125.507 10.5923 119.25 9.81024 115.874 13.1869Z" stroke="#4C4C4C" stroke-width="1.1147"/>
<g opacity="0.4">
<path d="M123.029 15.4009C119.91 15.011 117.698 17.2231 118.088 20.3416C118.478 23.4602 121.321 26.3043 124.44 26.6941C127.559 27.0839 129.771 24.8719 129.381 21.7533" stroke="#4C4C4C" stroke-width="2.09006" stroke-linecap="round"/>
<path d="M117.839 15.1521L129.63 26.9432" stroke="#4C4C4C" stroke-width="1.88105" stroke-linecap="round"/>
</g>
<path fill-rule="evenodd" clip-rule="evenodd" d="M231.37 32.2622C231.362 32.2693 231.355 32.2763 231.348 32.2833C228.232 35.3992 222.46 34.6775 218.454 30.6715C214.447 26.6655 213.726 20.8923 216.842 17.7765L216.856 17.7626L219.259 15.3588L219.28 15.38C222.27 12.9599 227.53 13.9583 231.348 17.7765C235.167 21.5948 236.165 26.8547 233.745 29.8445L233.766 29.8655L233.386 30.245C233.379 30.2529 233.371 30.2607 233.364 30.2686C233.356 30.2764 233.348 30.2842 233.34 30.2919L231.37 32.2622Z" fill="#DDDDDD">
    <animate attributeName="transform" type="scale" values="1;1.1;1" dur="2s" repeatCount="indefinite" />
    <animate attributeName="opacity" values="1;0.5;1" dur="2s" repeatCount="indefinite" />
  </path><path d="M231.369 32.2622L230.949 31.8421L230.947 31.8441L231.369 32.2622ZM216.841 17.7765L216.422 17.3558V17.3565L216.841 17.7765ZM216.855 17.7626L217.274 18.1832L217.275 18.1826L216.855 17.7626ZM219.259 15.3588L218.843 14.9343L218.839 14.9387L219.259 15.3588ZM219.259 15.3587L219.675 15.7832L219.679 15.7787L219.259 15.3587ZM233.743 29.889L233.325 29.4664L233.322 29.469L233.743 29.889ZM231.768 32.7033C231.776 32.6957 231.784 32.6879 231.791 32.6802L230.947 31.8441C230.941 31.8505 230.935 31.8569 230.928 31.8633L231.768 32.7033ZM218.033 31.0915C222.166 35.225 228.328 36.1431 231.768 32.7033L230.928 31.8633C228.136 34.655 222.751 34.1298 218.873 30.2514L218.033 31.0915ZM216.422 17.3565C212.982 20.7963 213.9 26.9579 218.033 31.0915L218.873 30.2514C214.995 26.3731 214.47 20.9881 217.261 18.1965L216.422 17.3565ZM216.436 17.3419L216.422 17.3558L217.26 18.1971L217.274 18.1832L216.436 17.3419ZM218.839 14.9387L216.435 17.3426L217.275 18.1826L219.679 15.7788L218.839 14.9387ZM218.843 14.9343V14.9343L219.675 15.7832V15.7831L218.843 14.9343ZM232.171 16.9535C230.09 14.872 227.579 13.5791 225.182 13.1926C222.787 12.8061 220.455 13.3233 218.839 14.9387L219.679 15.7787C220.957 14.5009 222.868 14.0226 224.993 14.3653C227.117 14.708 229.407 15.8691 231.331 17.7936L232.171 16.9535ZM234.186 30.2856C235.801 28.6702 236.318 26.3383 235.932 23.9423C235.546 21.5453 234.252 19.035 232.171 16.9535L231.331 17.7936C233.255 19.7181 234.417 22.0072 234.759 24.1314C235.102 26.2567 234.623 28.1677 233.346 29.4455L234.186 30.2856ZM234.16 30.3116C234.169 30.3029 234.177 30.2943 234.186 30.2856L233.346 29.4455C233.339 29.4525 233.332 29.4595 233.325 29.4664L234.16 30.3116ZM233.322 29.469L230.949 31.8421L231.789 32.6822L234.162 30.309L233.322 29.469Z" fill="#4C4C4C"/>
<path d="M231.348 32.2833C234.463 29.1675 233.742 23.3942 229.736 19.3883C225.73 15.3823 219.957 14.6607 216.841 17.7764C213.725 20.8922 214.447 26.6654 218.453 30.6714C222.459 34.6774 228.232 35.399 231.348 32.2833Z" fill="#EDEDED"/>
<path d="M231.348 32.2833C234.463 29.1675 233.742 23.3942 229.736 19.3883C225.73 15.3823 219.957 14.6607 216.841 17.7764C213.725 20.8922 214.447 26.6654 218.453 30.6714C222.459 34.6774 228.232 35.399 231.348 32.2833Z" stroke="#4C4C4C" stroke-width="1.35"/>
<path opacity="0.15" d="M229.735 30.6714C232.159 28.248 231.597 23.7577 228.482 20.6419C225.366 17.5262 220.876 16.9649 218.452 19.3883C216.029 21.8116 216.59 26.3019 219.706 29.4177C222.822 32.5334 227.312 33.0947 229.735 30.6714Z" stroke="#4C4C4C" stroke-width="0.8"/>
<g opacity="0.4">
<path d="M224.601 29.0824C226.84 29.3621 228.427 27.7746 228.148 25.5364C227.868 23.2983 225.826 21.2572 223.588 20.9774C221.35 20.6976 219.763 22.2852 220.043 24.5233" stroke="#4C4C4C" stroke-width="1.5" stroke-linecap="round"/>
<path d="M228.326 29.261L219.864 20.7987" stroke="#4C4C4C" stroke-width="1.35" stroke-linecap="round"/>
</g>
<path fill-rule="evenodd" clip-rule="evenodd" d="M90.0884 159.391C90.0823 159.397 90.0752 159.404 90.0691 159.41C88.0459 161.433 84.2984 160.964 81.6978 158.364C79.0972 155.764 78.6287 152.016 80.6514 149.993L80.6614 149.983L82.221 148.423L82.2346 148.437C84.1755 146.866 87.5903 147.514 90.0691 149.993C92.548 152.471 93.1957 155.886 91.6249 157.827L91.6381 157.841L91.3979 158.081C91.3908 158.089 91.3838 158.096 91.3767 158.103C91.3706 158.11 91.3635 158.116 91.3565 158.123L90.0884 159.391Z" fill="#DDDDDD"/>
<path d="M82.2211 148.424L81.91 148.112L81.909 148.114L82.2211 148.424ZM82.2037 148.441L82.5148 148.752L82.5159 148.751L82.2037 148.441ZM80.6617 149.983L80.9724 150.294H80.9729L80.6617 149.983ZM80.6517 149.993L80.3412 149.681L80.3406 149.682L80.6517 149.993ZM90.0887 159.391L89.7781 159.079L89.7755 159.082L90.0887 159.391ZM91.6279 157.852L91.3181 157.539L91.3172 157.54L91.6279 157.852ZM90.0192 150.043C91.2618 151.284 92.0098 152.76 92.2298 154.127C92.4507 155.494 92.1418 156.716 91.3278 157.53L91.9499 158.152C93.0139 157.088 93.3518 155.555 93.0983 153.987C92.8458 152.419 92.0001 150.778 90.6423 149.421L90.0192 150.043ZM82.5323 148.734C83.3464 147.92 84.5677 147.612 85.935 147.832C87.3016 148.053 88.7775 148.8 90.0192 150.043L90.6423 149.421C89.2835 148.062 87.6437 147.216 86.0752 146.964C84.5073 146.711 82.9741 147.048 81.91 148.112L82.5323 148.734ZM82.5159 148.751L82.5333 148.733L81.909 148.114L81.8915 148.131L82.5159 148.751ZM80.9729 150.294L82.5148 148.752L81.8926 148.13L80.3507 149.671L80.9729 150.294ZM80.9623 150.305L80.9724 150.294L80.3512 149.671L80.3412 149.681L80.9623 150.305ZM82.0093 158.053C79.5032 155.547 79.1803 152.087 80.9629 150.304L80.3406 149.682C78.0779 151.944 78.6919 155.98 81.387 158.676L82.0093 158.053ZM89.7579 159.1C87.9756 160.882 84.5154 160.559 82.0093 158.053L81.387 158.676C84.0821 161.37 88.1175 161.984 90.3809 159.722L89.7579 159.1ZM89.7755 159.082C89.7702 159.087 89.764 159.094 89.7579 159.1L90.3809 159.722C90.3879 159.714 90.395 159.707 90.402 159.7L89.7755 159.082ZM91.3172 157.54L89.7781 159.079L90.4003 159.702L91.9394 158.163L91.3172 157.54ZM91.3278 157.53C91.3243 157.533 91.3216 157.536 91.3181 157.539L91.9376 158.164C91.942 158.16 91.9455 158.156 91.9499 158.152L91.3278 157.53Z" fill="#4C4C4C"/>
<path d="M90.0693 159.41C92.092 157.388 91.6235 153.64 89.0229 151.039C86.4223 148.438 82.6744 147.97 80.6517 149.993C78.629 152.015 79.0975 155.763 81.6981 158.364C84.2987 160.964 88.0466 161.433 90.0693 159.41Z" fill="#EDEDED"/>
<path d="M90.0693 159.41C92.092 157.388 91.6235 153.64 89.0229 151.039C86.4223 148.438 82.6744 147.97 80.6517 149.993C78.629 152.015 79.0975 155.763 81.6981 158.364C84.2987 160.964 88.0466 161.433 90.0693 159.41Z" stroke="#4C4C4C"/>
<path opacity="0.15" d="M89.0227 158.364C90.5959 156.791 90.2316 153.876 88.2089 151.853C86.1862 149.83 83.2711 149.466 81.6979 151.039C80.1247 152.612 80.4891 155.527 82.5118 157.55C84.5345 159.573 87.4495 159.937 89.0227 158.364Z" stroke="#4C4C4C" stroke-width="0.519346"/>
<g opacity="0.4">
<path d="M85.6896 157.333C87.1426 157.514 88.1734 156.483 87.9916 155.03C87.81 153.578 86.4849 152.252 85.0319 152.071C83.5789 151.889 82.5484 152.92 82.73 154.373" stroke="#4C4C4C" stroke-width="0.973774" stroke-linecap="round"/>
<path d="M88.1083 157.449L82.6143 151.955" stroke="#4C4C4C" stroke-width="0.876397" stroke-linecap="round"/>
</g>
<path fill-rule="evenodd" clip-rule="evenodd" d="M120.889 68.7506C120.883 68.7572 120.876 68.7638 120.87 68.7704C118.847 70.7931 115.099 70.3246 112.498 67.724C109.898 65.1234 109.43 61.3755 111.452 59.3528L111.462 59.3428L113.022 57.7833L113.035 57.797C114.976 56.2259 118.391 56.874 120.87 59.3528C123.349 61.8316 123.996 65.2462 122.426 67.1872L122.439 67.2008L122.199 67.4418C122.191 67.4486 122.184 67.4556 122.177 67.4624C122.171 67.4692 122.164 67.4761 122.157 67.4829L120.889 68.7506Z" fill="#DDDDDD"/>
<path d="M113.022 57.7834L112.71 57.4723L112.709 57.4733L113.022 57.7834ZM113.004 57.801L113.315 58.1121L113.316 58.111L113.004 57.801ZM111.462 59.3429L111.772 59.6545L111.773 59.654L111.462 59.3429ZM111.452 59.3528L111.141 59.0412V59.0418L111.452 59.3528ZM120.889 68.7506L120.578 68.4396L120.575 68.4417L120.889 68.7506ZM122.428 67.2118L122.118 66.8993L122.117 66.9006L122.428 67.2118ZM120.819 59.4025C122.062 60.6447 122.81 62.1205 123.03 63.4872C123.251 64.8544 122.942 66.0758 122.128 66.8899L122.75 67.5121C123.814 66.448 124.152 64.9148 123.898 63.347C123.646 61.7785 122.8 60.1387 121.442 58.7802L120.819 59.4025ZM113.332 58.0945C114.146 57.2805 115.368 56.9717 116.735 57.1922C118.102 57.4126 119.578 58.1604 120.819 59.4025L121.442 58.7802C120.084 57.4219 118.443 56.5765 116.875 56.3235C115.307 56.0706 113.774 56.4081 112.71 57.4723L113.332 58.0945ZM113.316 58.111L113.333 58.0934L112.709 57.4733L112.692 57.4909L113.316 58.111ZM111.773 59.654L113.315 58.1121L112.692 57.4898L111.151 59.0317L111.773 59.654ZM111.762 59.6645L111.772 59.6545L111.152 59.0312L111.141 59.0412L111.762 59.6645ZM112.809 67.4129C110.303 64.9069 109.98 61.4466 111.763 59.664L111.141 59.0418C108.878 61.3045 109.492 65.3401 112.187 68.0352L112.809 67.4129ZM120.558 68.4594C118.776 70.242 115.316 69.919 112.809 67.4129L112.187 68.0352C114.882 70.7304 118.918 71.3443 121.181 69.0816L120.558 68.4594ZM120.575 68.4417C120.57 68.4476 120.564 68.4535 120.558 68.4594L121.181 69.0816C121.188 69.0743 121.195 69.067 121.202 69.0597L120.575 68.4417ZM122.117 66.9006L120.578 68.4396L121.2 69.0618L122.739 67.5229L122.117 66.9006ZM122.128 66.8899C122.124 66.893 122.122 66.8961 122.118 66.8993L122.738 67.5242C122.742 67.5202 122.746 67.5162 122.75 67.5121L122.128 66.8899Z" fill="#4C4C4C"/>
<path d="M120.869 68.7703C122.892 66.7476 122.423 62.9997 119.823 60.3991C117.222 57.7985 113.474 57.33 111.451 59.3527C109.429 61.3754 109.897 65.1233 112.498 67.7239C115.098 70.3245 118.846 70.793 120.869 68.7703Z" fill="#EDEDED"/>
<path d="M120.869 68.7703C122.892 66.7476 122.423 62.9997 119.823 60.3991C117.222 57.7985 113.474 57.33 111.451 59.3527C109.429 61.3754 109.897 65.1233 112.498 67.7239C115.098 70.3245 118.846 70.793 120.869 68.7703Z" stroke="#4C4C4C"/>
<path opacity="0.15" d="M119.823 67.7239C121.396 66.1507 121.032 63.2357 119.009 61.213C116.986 59.1903 114.071 58.8259 112.498 60.3991C110.925 61.9723 111.289 64.8874 113.312 66.9101C115.335 68.9328 118.25 69.2971 119.823 67.7239Z" stroke="#4C4C4C" stroke-width="0.519346"/>
<g opacity="0.4">
<path d="M116.49 66.6924C117.943 66.874 118.973 65.8434 118.791 64.3905C118.61 62.9375 117.284 61.6124 115.831 61.4308C114.379 61.2492 113.348 62.2798 113.529 63.7328" stroke="#4C4C4C" stroke-width="0.973774" stroke-linecap="round"/>
<path d="M118.908 66.8084L113.414 61.3148" stroke="#4C4C4C" stroke-width="0.876397" stroke-linecap="round"/>
</g>
<path fill-rule="evenodd" clip-rule="evenodd" d="M235.288 59.9507C235.282 59.9573 235.275 59.9639 235.269 59.9705C233.246 61.9931 229.498 61.5246 226.898 58.924C224.297 56.3235 223.829 52.5756 225.851 50.5529L225.861 50.5428L227.421 48.9834L227.435 48.997C229.376 47.426 232.79 48.0741 235.269 50.5529C237.748 53.0317 238.396 56.4463 236.825 58.3872L236.838 58.4009L236.598 58.6418C236.591 58.6487 236.584 58.6556 236.577 58.6624C236.571 58.6693 236.564 58.6762 236.557 58.6829L235.288 59.9507Z" fill="#DDDDDD"/>
<path d="M227.422 48.9833L227.11 48.6722L227.11 48.6733L227.422 48.9833ZM227.404 49.0009L227.715 49.312L227.717 49.3109L227.404 49.0009ZM225.863 50.5429L226.172 50.8545L226.173 50.8539L225.863 50.5429ZM225.852 50.5528L225.541 50.2412V50.2417L225.852 50.5528ZM235.289 59.9506L234.979 59.6395L234.976 59.6416L235.289 59.9506ZM236.828 58.4117L236.519 58.0992L236.518 58.1006L236.828 58.4117ZM235.22 50.6024C236.462 51.8446 237.21 53.3205 237.43 54.6871C237.651 56.0544 237.342 57.2757 236.528 58.0898L237.15 58.7121C238.214 57.648 238.552 56.1148 238.299 54.5469C238.046 52.9784 237.2 51.3386 235.843 49.9802L235.22 50.6024ZM227.733 49.2945C228.547 48.4804 229.768 48.1716 231.136 48.3921C232.502 48.6126 233.978 49.3603 235.22 50.6024L235.843 49.9802C234.484 48.6218 232.844 47.7764 231.275 47.5234C229.707 47.2706 228.174 47.6081 227.11 48.6722L227.733 49.2945ZM227.717 49.3109L227.733 49.2933L227.11 48.6733L227.092 48.6909L227.717 49.3109ZM226.173 50.8539L227.715 49.312L227.093 48.6898L225.551 50.2317L226.173 50.8539ZM226.163 50.8645L226.172 50.8545L225.552 50.2312L225.541 50.2412L226.163 50.8645ZM227.21 58.6129C224.704 56.1068 224.381 52.6466 226.164 50.864L225.541 50.2417C223.278 52.5045 223.892 56.5401 226.588 59.2351L227.21 58.6129ZM234.958 59.6593C233.176 61.4419 229.716 61.119 227.21 58.6129L226.588 59.2351C229.282 61.9303 233.318 62.5443 235.581 60.2816L234.958 59.6593ZM234.976 59.6416C234.971 59.6475 234.964 59.6534 234.958 59.6593L235.581 60.2816C235.588 60.2743 235.595 60.2669 235.602 60.2596L234.976 59.6416ZM236.518 58.1006L234.979 59.6395L235.601 60.2618L237.14 58.7228L236.518 58.1006ZM236.528 58.0898C236.525 58.093 236.522 58.0961 236.519 58.0992L237.138 58.7241C237.142 58.7202 237.146 58.7161 237.15 58.7121L236.528 58.0898Z" fill="#4C4C4C"/>
<path d="M235.269 59.9704C237.292 57.9477 236.824 54.1998 234.223 51.5992C231.622 48.9986 227.874 48.5301 225.852 50.5528C223.829 52.5755 224.298 56.3234 226.898 58.924C229.499 61.5246 233.247 61.9931 235.269 59.9704Z" fill="#EDEDED"/>
<path d="M235.269 59.9704C237.292 57.9477 236.824 54.1998 234.223 51.5992C231.622 48.9986 227.874 48.5301 225.852 50.5528C223.829 52.5755 224.298 56.3234 226.898 58.924C229.499 61.5246 233.247 61.9931 235.269 59.9704Z" stroke="#4C4C4C"/>
<path opacity="0.15" d="M234.223 58.924C235.796 57.3508 235.432 54.4358 233.409 52.4131C231.387 50.3904 228.472 50.026 226.898 51.5992C225.325 53.1724 225.69 56.0875 227.712 58.1102C229.735 60.1328 232.65 60.4972 234.223 58.924Z" stroke="#4C4C4C" stroke-width="0.519346"/>
<g opacity="0.4">
<path d="M230.89 57.8925C232.343 58.0741 233.373 57.0434 233.191 55.5906C233.01 54.1376 231.685 52.8125 230.232 52.6309C228.779 52.4492 227.748 53.4799 227.93 54.9329" stroke="#4C4C4C" stroke-width="0.973774" stroke-linecap="round"/>
<path d="M233.308 58.0085L227.814 52.5149" stroke="#4C4C4C" stroke-width="0.876397" stroke-linecap="round"/>
</g>
</g>
<g opacity="0.75">
 <path fill-rule="evenodd" clip-rule="evenodd" d="M35.6348 21.7879C34.7408 21.2101 33.584 21.9609 33.7478 23.0127L33.7827 23.2366C34.2359 26.1471 33.986 29.0937 33.0905 31.8424C27.5954 37.3958 24.6317 44.7267 25.5337 52.2804L22.0595 53.3703C21.1229 53.6642 20.6017 54.6617 20.8957 55.5983L23.8219 64.9258C24.1158 65.8625 25.1132 66.3835 26.0498 66.0897L30.953 64.5514C33.5493 67.6093 36.9244 70.0962 40.8052 71.8436L43.0656 79.5091C43.3175 80.3636 44.1631 80.8995 45.0434 80.7627L53.3841 79.4664C54.2644 79.3296 54.9074 78.5623 54.8881 77.6716L54.8239 74.7042C56.5147 74.6861 58.2332 74.5465 59.9664 74.2771C62.6337 73.8625 65.1748 73.1657 67.5529 72.2293L68.5324 75.5511C68.7844 76.4056 69.63 76.9415 70.5102 76.8047L78.851 75.5084C79.7312 75.3716 80.3743 74.6042 80.355 73.7136L80.1416 63.8537C80.1389 63.7289 80.1235 63.6076 80.0968 63.4912C84.804 58.0712 87.2329 51.2288 86.3149 44.2091L87.9869 42.4532C89.8154 40.5331 90.4288 37.7581 89.5813 35.2459L88.7225 32.6984C88.4699 31.9498 87.3755 32.0713 87.2932 32.857C87.0881 34.8162 85.9192 36.4654 84.2944 37.3738C79.2081 26.6997 66.0481 20.2689 51.9138 22.4656C47.8789 23.0927 44.1331 24.3656 40.8027 26.1371C39.4428 24.5912 37.8722 23.2343 36.1315 22.109L35.6348 21.7879Z" fill="white">
    <animate attributeName="transform" type="scale" values="1;1.1;1" dur="2s" repeatCount="indefinite" />
    <animate attributeName="opacity" values="1;0.5;1" dur="2s" repeatCount="indefinite" />
  </path><path d="M33.5437 23.0612L32.8916 23.1628L33.5437 23.0612ZM35.4307 21.8365L35.0724 22.3908L35.4307 21.8365ZM33.5786 23.2851L34.2308 23.1835L33.5786 23.2851ZM32.8865 31.8909L33.3556 32.3552L33.4655 32.244L33.514 32.0954L32.8865 31.8909ZM25.3296 52.329L25.5271 52.9587L26.0499 52.7947L25.9849 52.2507L25.3296 52.329ZM21.8554 53.4189L22.053 54.0487L21.8554 53.4189ZM20.6915 55.6469L20.0618 55.8445L20.6915 55.6469ZM23.6178 64.9744L24.2476 64.7768L23.6178 64.9744ZM25.8458 66.1383L26.0433 66.768L25.8458 66.1383ZM30.7489 64.6L31.252 64.1728L30.9689 63.8393L30.5513 63.9703L30.7489 64.6ZM40.6012 71.8922L41.2342 71.7054L41.1485 71.4148L40.8721 71.2903L40.6012 71.8922ZM42.8614 79.5577L43.4945 79.371L42.8614 79.5577ZM54.684 77.7202L55.3439 77.706L54.684 77.7202ZM54.6198 74.7528L54.6128 74.0928L53.9455 74.0999L53.9599 74.767L54.6198 74.7528ZM67.3488 72.278L67.9819 72.0912L67.7779 71.3996L67.107 71.6638L67.3488 72.278ZM68.3283 75.5997L67.6953 75.7863L68.3283 75.5997ZM80.1509 73.7622L80.8107 73.7479L80.1509 73.7622ZM79.9375 63.9022L80.5973 63.8879L79.9375 63.9022ZM79.8926 63.5397L79.3944 63.1069L79.1743 63.3604L79.2494 63.6876L79.8926 63.5397ZM86.1108 44.2577L85.6328 43.8026L85.4155 44.0308L85.4563 44.3433L86.1108 44.2577ZM87.7827 42.5017L87.3048 42.0466L87.7827 42.5017ZM89.3772 35.2945L90.0029 35.0835L89.3772 35.2945ZM88.5183 32.7469L89.1431 32.536L88.5183 32.7469ZM87.0891 32.9056L86.4327 32.8369L87.0891 32.9056ZM84.0902 37.4224L83.4945 37.7063L83.7975 38.3422L84.4124 37.9984L84.0902 37.4224ZM40.5986 26.1857L40.1031 26.6215L40.4478 27.0134L40.9085 26.7683L40.5986 26.1857ZM35.9273 22.1575L35.5691 22.7119L35.9273 22.1575ZM34.1959 22.9598C34.1198 22.4712 34.6571 22.1223 35.0724 22.3908L35.789 21.2823C34.4163 20.3949 32.6402 21.5478 32.8916 23.1628L34.1959 22.9598ZM34.2308 23.1835L34.1959 22.9598L32.8916 23.1628L32.9264 23.3866L34.2308 23.1835ZM33.514 32.0954C34.4413 29.249 34.7001 26.1977 34.2308 23.1835L32.9264 23.3866C33.3635 26.1938 33.1226 29.0355 32.2589 31.6865L33.514 32.0954ZM25.9849 52.2507C25.1103 44.9263 27.9795 37.7882 33.3556 32.3552L32.4172 31.4267C26.8029 37.1006 23.7449 44.6242 24.6742 52.4072L25.9849 52.2507ZM22.053 54.0487L25.5271 52.9587L25.132 51.6992L21.6578 52.7892L22.053 54.0487ZM21.3212 55.4494C21.1365 54.8605 21.4642 54.2334 22.053 54.0487L21.6578 52.7892C20.3734 53.1922 19.6588 54.56 20.0618 55.8445L21.3212 55.4494ZM24.2476 64.7768L21.3212 55.4494L20.0618 55.8445L22.9881 65.1719L24.2476 64.7768ZM25.6482 65.5085C25.0594 65.6933 24.4323 65.3656 24.2476 64.7768L22.9881 65.1719C23.391 66.4564 24.759 67.171 26.0433 66.768L25.6482 65.5085ZM30.5513 63.9703L25.6482 65.5085L26.0433 66.768L30.9465 65.2298L30.5513 63.9703ZM40.8721 71.2903C37.0738 69.58 33.7801 67.1503 31.252 64.1728L30.2458 65.0272C32.9103 68.1654 36.367 70.7095 40.3302 72.4939L40.8721 71.2903ZM43.4945 79.371L41.2342 71.7054L39.9681 72.0788L42.2284 79.7444L43.4945 79.371ZM44.7379 80.1591C44.1845 80.2452 43.6529 79.9082 43.4945 79.371L42.2284 79.7444C42.5739 80.9161 43.7335 81.6511 44.9406 81.4635L44.7379 80.1591ZM53.0786 78.8628L44.7379 80.1591L44.9406 81.4635L53.2813 80.1671L53.0786 78.8628ZM54.0242 77.7345C54.0363 78.2944 53.632 78.7768 53.0786 78.8628L53.2813 80.1671C54.4885 79.9795 55.3703 78.9273 55.3439 77.706L54.0242 77.7345ZM53.9599 74.767L54.0242 77.7345L55.3439 77.706L55.2796 74.7384L53.9599 74.767ZM59.661 73.6735C57.959 73.9381 56.272 74.0751 54.6128 74.0928L54.6268 75.4127C56.3492 75.3944 58.0993 75.2521 59.8637 74.9779L59.661 73.6735ZM67.107 71.6638C64.7741 72.5824 62.2802 73.2665 59.661 73.6735L59.8637 74.9779C62.5791 74.5558 65.1672 73.8463 67.5907 72.892L67.107 71.6638ZM68.9614 75.4129L67.9819 72.0912L66.7158 72.4646L67.6953 75.7863L68.9614 75.4129ZM70.2048 76.2011C69.6514 76.2871 69.1198 75.9502 68.9614 75.4129L67.6953 75.7863C68.0408 76.958 69.2004 77.693 70.4075 77.5054L70.2048 76.2011ZM78.5455 74.9048L70.2048 76.2011L70.4075 77.5054L78.7482 76.2091L78.5455 74.9048ZM79.491 73.7765C79.5032 74.3364 79.0989 74.8188 78.5455 74.9048L78.7482 76.2091C79.9554 76.0215 80.8371 74.9692 80.8107 73.7479L79.491 73.7765ZM79.2777 63.9165L79.491 73.7765L80.8107 73.7479L80.5973 63.8879L79.2777 63.9165ZM79.2494 63.6876C79.2662 63.7603 79.2759 63.8368 79.2777 63.9165L80.5973 63.8879C80.5937 63.718 80.5727 63.5521 80.5359 63.392L79.2494 63.6876ZM85.4563 44.3433C86.3465 51.1506 83.9955 57.8092 79.3944 63.1069L80.391 63.9725C85.2043 58.4304 87.711 51.4041 86.7652 44.1721L85.4563 44.3433ZM86.5887 44.7128L88.2605 42.9569L87.3048 42.0466L85.6328 43.8026L86.5887 44.7128ZM88.2605 42.9569C90.2581 40.8593 90.9286 37.8279 90.0029 35.0835L88.7524 35.5055C89.5215 37.7855 88.9645 40.304 87.3048 42.0466L88.2605 42.9569ZM90.0029 35.0835L89.1431 32.536L87.8926 32.958L88.7524 35.5055L90.0029 35.0835ZM89.1431 32.536C88.6644 31.1159 86.5887 31.3463 86.4327 32.8369L87.7455 32.9743C87.7479 32.9515 87.7528 32.9402 87.7548 32.9361C87.7569 32.9318 87.7591 32.9291 87.7619 32.9266C87.7683 32.9206 87.7852 32.9099 87.8126 32.9068C87.8399 32.9038 87.8587 32.9105 87.8663 32.915C87.8695 32.9169 87.8722 32.9191 87.8752 32.9228C87.8781 32.9263 87.8853 32.9362 87.8926 32.958L89.1431 32.536ZM86.4327 32.8369C86.2512 34.5713 85.216 36.0368 83.7682 36.8463L84.4124 37.9984C86.2142 36.9911 87.517 35.1584 87.7455 32.9743L86.4327 32.8369ZM51.811 23.1664C65.7106 21.0061 78.5555 27.3413 83.4945 37.7063L84.6861 37.1385C79.4525 26.1552 65.9775 19.6288 51.6084 21.862L51.811 23.1664ZM40.9085 26.7683C44.1736 25.0317 47.8489 23.7822 51.811 23.1664L51.6084 21.862C47.5008 22.5004 43.6844 23.7967 40.2887 25.6029L40.9085 26.7683ZM35.5691 22.7119C37.2587 23.804 38.7831 25.121 40.1031 26.6215L41.0941 25.7497C39.6943 24.1584 38.0776 22.7617 36.2856 21.6033L35.5691 22.7119ZM35.0724 22.3908L35.5691 22.7119L36.2856 21.6033L35.789 21.2823L35.0724 22.3908Z" fill="#4C4C4C"/>
<path d="M24.2003 55.8801L26.4003 62.4801" stroke="#DDDDDD" stroke-width="1.5" stroke-linecap="round"/>
<path d="M67.3205 27.28C70.6821 28.0271 75.6289 31.3105 79.2005 35.7848M80.9605 38.28C80.818 38.0486 80.6712 37.8193 80.5205 37.5922" stroke="#DDDDDD" stroke-width="1.5" stroke-linecap="round"/>
<path d="M32.8286 47.2276C32.7155 46.5001 32.0341 46.002 31.3066 46.1151C30.5792 46.2282 30.0811 46.9096 30.1941 47.6371L30.6036 50.2715C30.7167 50.999 31.3981 51.4971 32.1256 51.3841C32.853 51.271 33.3511 50.5896 33.2381 49.8621L32.8286 47.2276Z" fill="#4C4C4C"/>
<path d="M56.8567 74.5215L65.6383 73.1566L65.7767 74.0477C65.8887 74.7681 65.3955 75.4428 64.6751 75.5547L58.5022 76.5142C57.7818 76.6261 57.1071 76.1329 56.9951 75.4125L56.8567 74.5215Z" fill="#4C4C4C"/>
<path d="M52.8049 29.4359C57.6404 28.9476 61.1647 24.6318 60.6764 19.7963C60.1882 14.9607 55.8724 11.4365 51.0369 11.9247C46.2013 12.4129 42.6771 16.7287 43.1653 21.5643C43.6535 26.3999 47.9693 29.9241 52.8049 29.4359Z" fill="#F7F7F7"/>
<path d="M52.8049 29.4359C57.6404 28.9476 61.1647 24.6318 60.6764 19.7963C60.1882 14.9607 55.8724 11.4365 51.0369 11.9247C46.2013 12.4129 42.6771 16.7287 43.1653 21.5643C43.6535 26.3999 47.9693 29.9241 52.8049 29.4359Z" stroke="#4C4C4C" stroke-width="1.35"/>
<path opacity="0.15" d="M52.6082 27.4901C56.3693 27.1104 59.1103 23.7536 58.7306 19.9926C58.3509 16.2316 54.9941 13.4906 51.2331 13.8703C47.4721 14.25 44.7311 17.6068 45.1108 21.3678C45.4905 25.1288 48.8472 27.8698 52.6082 27.4901Z" stroke="#4C4C4C" stroke-width="0.8"/>
<g opacity="0.4">
<path d="M54.3949 17.6509C52.7218 16.2847 50.2578 16.5334 48.8916 18.2065C47.5254 19.8796 47.7741 22.3435 49.4473 23.7097C51.1204 25.0759 53.5842 24.8272 54.9505 23.1541" stroke="#4C4C4C" stroke-width="1.5" stroke-linecap="round"/>
<path d="M51.4052 15.5729L52.4365 25.7877" stroke="#4C4C4C" stroke-width="1.35" stroke-linecap="round"/>
</g>
<path opacity="0.2" fill-rule="evenodd" clip-rule="evenodd" d="M60.4484 22.8641C59.5581 26.3388 56.5815 29.0546 52.8051 29.4359C49.3837 29.7813 46.2226 28.1181 44.4933 25.4029C46.9415 24.3303 49.6036 23.5432 52.4241 23.1049C55.1635 22.6791 57.8603 22.6121 60.4484 22.8641Z" fill="#4C4C4C"/>
<path d="M52.4237 25.7449C49.3478 26.2229 46.4605 27.1157 43.8334 28.3411L44.88 33.8801L62.04 31.2401L61.3967 25.6114C58.5217 25.2411 55.4995 25.2668 52.4237 25.7449Z" fill="white"/>
<path d="M43.8334 28.3411C46.4605 27.1157 49.3478 26.2229 52.4237 25.7449C55.4995 25.2668 58.5217 25.2411 61.3966 25.6114" stroke="#4C4C4C" stroke-width="1.5" stroke-linecap="round"/>
</g>
<g opacity="0.8">
<path fill-rule="evenodd" clip-rule="evenodd" d="M258.961 95.3559C259.846 94.5666 261.247 95.1949 261.247 96.3811V96.6328C261.246 99.9134 262.025 103.113 263.48 105.985C270.476 111.155 274.992 118.716 275.291 127.181L279.3 127.787C280.381 127.949 281.125 128.958 280.962 130.039L279.337 140.804C279.174 141.884 278.166 142.628 277.084 142.465L271.426 141.611C269.092 145.42 265.804 148.733 261.832 151.32L260.656 160.142C260.525 161.125 259.686 161.859 258.694 161.859H249.294C248.302 161.859 247.464 161.125 247.332 160.142L246.895 156.865C245.032 157.135 243.117 157.274 241.164 157.274C238.158 157.274 235.243 156.943 232.466 156.319L231.956 160.142C231.825 161.125 230.986 161.859 229.994 161.859H220.595C219.602 161.859 218.763 161.125 218.632 160.142L217.181 149.256C217.163 149.118 217.159 148.981 217.169 148.849C211.062 143.69 207.219 136.576 207.028 128.695L204.888 127.048C202.548 125.249 201.397 122.3 201.901 119.39L202.411 116.441C202.561 115.574 203.786 115.52 204.01 116.37C204.571 118.491 206.14 120.106 208.083 120.828C211.854 108.213 225.235 98.8856 241.164 98.8856C245.711 98.8856 250.051 99.6459 254.018 101.025C255.25 99.0915 256.747 97.3298 258.47 95.7942L258.961 95.3559Z" fill="white">
    <animate attributeName="transform" type="scale" values="1;1.2;1" dur="2s" repeatCount="indefinite" />
    <animate attributeName="opacity" values="1;0.5;1" dur="2s" repeatCount="indefinite" />
  </path><path d="M261.247 96.3811L260.587 96.3803L261.247 96.3811ZM258.961 95.3559L258.521 94.8631L258.961 95.3559ZM261.247 96.6328H261.907H261.247ZM263.48 105.985L263.088 106.515L262.962 106.422L262.891 106.283L263.48 105.985ZM275.291 127.181L275.192 127.834L274.65 127.752L274.631 127.205L275.291 127.181ZM279.3 127.787L279.399 127.134L279.3 127.787ZM280.961 130.039L280.309 129.941L280.961 130.039ZM279.337 140.804L278.684 140.705L279.337 140.804ZM277.084 142.465L277.183 141.812L277.084 142.465ZM271.426 141.611L270.863 141.266L271.092 140.893L271.524 140.958L271.426 141.611ZM261.832 151.32L261.177 151.232L261.218 150.932L261.472 150.767L261.832 151.32ZM260.655 160.142L261.31 160.229L260.655 160.142ZM247.332 160.142L246.677 160.229L247.332 160.142ZM246.895 156.865L246.801 156.212L247.462 156.116L247.55 156.778L246.895 156.865ZM232.465 156.319L231.811 156.232L231.907 155.517L232.61 155.675L232.465 156.319ZM231.956 160.142L231.301 160.054L231.956 160.142ZM218.632 160.142L217.978 160.229L218.632 160.142ZM217.181 149.256L216.526 149.343L217.181 149.256ZM217.168 148.849L217.594 148.345L217.85 148.562L217.827 148.896L217.168 148.849ZM207.028 128.695L207.43 128.172L207.68 128.364L207.688 128.679L207.028 128.695ZM204.888 127.048L205.29 126.526L204.888 127.048ZM201.9 119.391L201.25 119.278L201.9 119.391ZM202.411 116.441L203.061 116.552L202.411 116.441ZM204.01 116.37L203.372 116.539L204.01 116.37ZM208.082 120.828L208.715 121.017L208.513 121.692L207.853 121.446L208.082 120.828ZM254.018 101.025L254.575 101.38L254.294 101.82L253.801 101.649L254.018 101.025ZM258.469 95.7942L258.03 95.3014L258.469 95.7942ZM260.587 96.3803C260.587 95.7651 259.859 95.4387 259.4 95.8487L258.521 94.8631C259.832 93.6954 261.907 94.6255 261.907 96.3811L260.587 96.3803ZM260.587 96.6328V96.3803L261.907 96.3811V96.6328H260.587ZM262.891 106.283C261.389 103.32 260.586 100.018 260.587 96.6328H261.907C261.906 99.8087 262.659 102.906 264.069 105.686L262.891 106.283ZM274.631 127.205C274.339 118.969 269.948 111.586 263.088 106.515L263.873 105.453C271.005 110.725 275.643 118.461 275.95 127.158L274.631 127.205ZM279.201 128.44L275.192 127.834L275.389 126.529L279.399 127.134L279.201 128.44ZM280.309 129.941C280.418 129.22 279.922 128.548 279.201 128.44L279.399 127.134C280.84 127.352 281.832 128.696 281.614 130.138L280.309 129.941ZM278.684 140.705L280.309 129.941L281.614 130.138L279.99 140.902L278.684 140.705ZM277.183 141.812C277.903 141.921 278.576 141.426 278.684 140.705L279.99 140.902C279.772 142.344 278.427 143.335 276.986 143.118L277.183 141.812ZM271.524 140.958L277.183 141.812L276.986 143.118L271.327 142.263L271.524 140.958ZM261.472 150.767C265.368 148.23 268.584 144.985 270.863 141.266L271.989 141.955C269.6 145.855 266.239 149.237 262.192 151.873L261.472 150.767ZM260.002 160.054L261.177 151.232L262.486 151.408L261.31 160.229L260.002 160.054ZM258.694 161.199C259.355 161.199 259.914 160.71 260.002 160.054L261.31 160.229C261.135 161.54 260.017 162.519 258.694 162.519V161.199ZM249.294 161.199H258.694V162.519H249.294V161.199ZM247.986 160.054C248.074 160.71 248.633 161.199 249.294 161.199V162.519C247.971 162.519 246.853 161.54 246.677 160.229L247.986 160.054ZM247.55 156.778L247.986 160.054L246.677 160.229L246.241 156.952L247.55 156.778ZM241.163 156.614C243.085 156.614 244.969 156.477 246.801 156.212L246.99 157.518C245.095 157.792 243.149 157.934 241.163 157.934V156.614ZM232.61 155.675C235.34 156.288 238.207 156.614 241.163 156.614V157.934C238.109 157.934 235.145 157.597 232.32 156.963L232.61 155.675ZM231.301 160.054L231.811 156.232L233.119 156.406L232.61 160.229L231.301 160.054ZM229.994 161.199C230.655 161.199 231.214 160.71 231.301 160.054L232.61 160.229C232.435 161.54 231.316 162.519 229.994 162.519V161.199ZM220.594 161.199H229.994V162.519H220.594V161.199ZM219.287 160.054C219.374 160.71 219.933 161.199 220.594 161.199V162.519C219.272 162.519 218.153 161.54 217.978 160.229L219.287 160.054ZM217.835 149.168L219.287 160.054L217.978 160.229L216.526 149.343L217.835 149.168ZM217.827 148.896C217.82 148.984 217.822 149.076 217.835 149.168L216.526 149.343C216.502 149.16 216.497 148.979 216.509 148.802L217.827 148.896ZM207.688 128.679C207.873 136.346 211.611 143.29 217.594 148.345L216.743 149.353C210.512 144.089 206.564 136.806 206.368 128.711L207.688 128.679ZM206.626 129.218L204.486 127.572L205.29 126.526L207.43 128.172L206.626 129.218ZM204.486 127.572C201.951 125.622 200.705 122.429 201.25 119.278L202.551 119.503C202.09 122.171 203.145 124.875 205.29 126.526L204.486 127.572ZM201.25 119.278L201.761 116.328L203.061 116.552L202.551 119.503L201.25 119.278ZM201.761 116.328C202.031 114.763 204.242 114.666 204.648 116.202L203.372 116.539C203.356 116.479 203.332 116.457 203.315 116.447C203.293 116.431 203.257 116.419 203.211 116.42C203.166 116.423 203.13 116.439 203.109 116.456C203.094 116.468 203.072 116.492 203.061 116.552L201.761 116.328ZM204.648 116.202C205.151 118.104 206.559 119.558 208.312 120.209L207.853 121.446C205.72 120.654 203.99 118.878 203.372 116.539L204.648 116.202ZM241.163 99.5456C225.472 99.5456 212.388 108.729 208.715 121.017L207.45 120.639C211.319 107.695 224.997 98.2256 241.163 98.2256V99.5456ZM253.801 101.649C249.904 100.294 245.637 99.5456 241.163 99.5456V98.2256C245.784 98.2256 250.198 98.9983 254.235 100.402L253.801 101.649ZM258.909 96.287C257.23 97.7821 255.774 99.4972 254.575 101.38L253.461 100.67C254.726 98.6859 256.262 96.8775 258.03 95.3014L258.909 96.287ZM259.4 95.8487L258.909 96.287L258.03 95.3014L258.521 94.8631L259.4 95.8487Z" fill="#4C4C4C"/>
<path d="M251.06 103.969C247.959 103.069 244.629 102.581 241.163 102.581C237.697 102.581 234.367 103.069 231.267 103.969" stroke="#4C4C4C" stroke-width="1.5" stroke-linecap="round"/>
<path d="M210.32 128.04C210.32 133.056 212.067 137.735 215.084 141.68M246.4 153.187C244.684 153.432 242.921 153.56 241.12 153.56C236.74 153.56 232.573 152.802 228.8 151.437M261.8 146.952C262.734 146.251 263.616 145.503 264.44 144.712" stroke="#DDDDDD" stroke-width="1.5" stroke-linecap="round"/>
<path d="M267.885 121.385H267.885C268.705 121.385 269.369 122.049 269.369 122.869V125.838C269.369 126.658 268.705 127.322 267.885 127.322H267.885C267.065 127.322 266.4 126.658 266.4 125.838V122.869C266.4 122.049 267.065 121.385 267.885 121.385Z" fill="#4C4C4C"/>
<path d="M244.627 157.011H234.731V158.166C234.731 158.895 235.322 159.486 236.051 159.486H243.307C244.037 159.486 244.627 158.895 244.627 158.166V157.011Z" fill="#4C4C4C"/>
</g>
<path opacity="0.1" fill-rule="evenodd" clip-rule="evenodd" d="M184.716 126.849L187.558 129.69L187.533 129.716C189.599 132.267 189.545 136.225 187.642 139.92H165.579C164.858 136.369 166.262 132.045 169.564 128.743C174.271 124.036 181.056 123.188 184.716 126.849ZM128.112 139.92L130.39 137.643L130.404 137.628C133.519 134.512 132.797 128.74 128.792 124.734C124.786 120.727 119.012 120.006 115.897 123.122L115.876 123.143L113.905 125.113L113.882 125.136L113.858 125.16L113.479 125.539L113.5 125.56C111.08 128.55 112.079 133.81 115.897 137.628C116.833 138.565 117.856 139.331 118.911 139.92H128.112ZM53.8848 138.31C55.4751 137.728 57.0347 136.748 58.3915 135.392C62.3975 131.385 63.1191 125.612 60.0034 122.496L59.9825 122.476L57.9927 120.486L57.9885 120.482L57.9842 120.477L57.5854 120.079L57.5643 120.1C55.6856 118.579 52.9105 118.408 50.16 119.439V131.12C50.16 134.09 51.6313 136.716 53.8848 138.31ZM190.175 42.24H170.612C169.529 45.308 169.928 48.4744 171.962 50.5084L171.983 50.5292L173.972 52.5189L173.977 52.5232L173.981 52.5275L174.38 52.9262L174.401 52.9051C177.39 55.3251 182.65 54.3266 186.468 50.5084C188.955 48.0219 190.245 44.9242 190.175 42.24Z" fill="#4C4C4C"/>
<path opacity="0.1" fill-rule="evenodd" clip-rule="evenodd" d="M88.1822 42.24H58.96C54.0999 42.24 50.16 46.1799 50.16 51.04V79.9675L53.3843 79.4664C54.2646 79.3296 54.9076 78.5623 54.8883 77.6716L54.8241 74.7042C56.5149 74.6861 58.2335 74.5465 59.9666 74.2771C62.634 73.8625 65.175 73.1657 67.5532 72.2293L68.5326 75.5511C68.7846 76.4056 69.6302 76.9415 70.5104 76.8047L78.8512 75.5084C79.7314 75.3716 80.3745 74.6042 80.3552 73.7135L80.1419 63.8537C80.1391 63.7289 80.1237 63.6076 80.097 63.4912C84.8043 58.0712 87.2331 51.2287 86.3152 44.2091L87.9871 42.4532C88.0537 42.3833 88.1188 42.3122 88.1822 42.24Z" fill="#4C4C4C"/>
<path opacity="0.1" fill-rule="evenodd" clip-rule="evenodd" d="M250.8 100.065V131.12C250.8 135.98 246.861 139.92 242 139.92H209.945C208.157 136.477 207.124 132.685 207.028 128.695L204.888 127.048C202.548 125.249 201.398 122.3 201.9 119.391L202.411 116.441C202.56 115.574 203.785 115.52 204.01 116.37C204.571 118.491 206.139 120.106 208.082 120.828C211.854 108.213 225.235 98.8856 241.163 98.8856C244.51 98.8856 247.744 99.2975 250.8 100.065Z" fill="#4C4C4C"/>
<path d="M241.12 43.5601H59.84C55.9519 43.5601 52.8 46.712 52.8 50.6001V124.52C52.8 128.408 55.9519 131.56 59.84 131.56H241.12C245.008 131.56 248.16 128.408 248.16 124.52V50.6001C248.16 46.712 245.008 43.5601 241.12 43.5601Z" fill="white" fill-opacity="0.94" stroke="#3785D7" stroke-width="1.5"/>
<path d="M142.252 97.5216C143.783 102.168 147.321 104.861 153.129 104.861C158.937 104.861 162.474 102.168 164.006 97.5216C164.534 95.8848 164.745 93.8784 164.745 86.328C164.745 78.7776 164.534 76.7712 164.006 75.1344C162.474 70.488 158.937 67.7952 153.129 67.7952C147.321 67.7952 143.783 70.488 142.252 75.1344C141.724 76.7712 141.513 78.7776 141.513 86.328C141.513 93.8784 141.724 95.8848 142.252 97.5216ZM149.538 96.2016C149.222 95.2512 149.063 94.1952 149.063 86.328C149.063 78.4608 149.222 77.4048 149.538 76.4544C150.066 74.8704 151.228 74.0784 153.129 74.0784C155.03 74.0784 156.191 74.8704 156.719 76.4544C157.036 77.4048 157.194 78.4608 157.194 86.328C157.194 94.1952 157.036 95.2512 156.719 96.2016C156.191 97.7856 155.03 98.5776 153.129 98.5776C151.228 98.5776 150.066 97.7856 149.538 96.2016Z" fill="#4C4C4C"/>
<path d="M124.076 88.9645C125.248 89.6615 127.054 90.4218 129.303 90.5168V91.7207C129.303 92.4176 129.746 92.8295 130.348 92.8295C130.95 92.8295 131.394 92.4176 131.394 91.7207V90.4218C135.1 89.8832 137.381 87.2855 137.381 83.5789C137.381 80.1892 135.354 77.8765 131.394 77.3063V72.2058C132.154 72.3325 132.819 72.586 133.485 72.9028C133.77 73.0295 134.15 73.1245 134.467 73.1245C135.544 73.1245 136.336 72.2058 136.336 71.192C136.336 70.4951 135.924 69.8615 135.259 69.4813C134.182 68.8794 132.883 68.4676 131.394 68.3408V67.137C131.394 66.44 130.95 66.0282 130.348 66.0282C129.746 66.0282 129.303 66.44 129.303 67.137V68.3725C125.755 68.816 123.347 71.4772 123.347 75.057C123.347 78.4151 125.596 80.7277 129.303 81.2663V86.6836C128.352 86.5568 127.275 86.1767 126.325 85.6064C125.945 85.3847 125.47 85.258 125.089 85.258C123.886 85.258 123.094 86.1767 123.094 87.2538C123.094 87.9191 123.379 88.5527 124.076 88.9645ZM129.303 76.8944C128.131 76.4509 127.719 75.6906 127.719 74.6768C127.719 73.568 128.289 72.7127 129.303 72.3325V76.8944ZM131.394 86.4618V81.7098C132.598 82.1533 133.009 82.882 133.009 83.8957C133.009 85.1946 132.439 86.0816 131.394 86.4618Z" fill="#4C4C4C"/>
<path opacity="0.3" d="M206.096 39.1599H208.774M214.544 39.1599H242.88C248.226 39.1599 252.56 43.4938 252.56 48.8399V61.4044M252.56 65.0547V66.9125M252.56 92.0655V95.6506M82.0547 135.96H66.5973M48.4004 111.36V113.52M48.4004 106.879V101.502M48.4004 66.1303V63.4414M48.4004 59.7747V48.8399C48.4004 43.4938 52.7343 39.1599 58.0804 39.1599H66.5973M153.56 39.1599H156.238M137.72 39.1599H149.198M87.1778 135.96H84.9204M198.214 135.96H195.8M201.578 135.96H201.08" 
    stroke="#3785D7" stroke-width="1.5" stroke-linecap="round">
    <animate attributeName="stroke-dasharray" values="5, 300; 300, 0; 5, 300" dur="2s" repeatCount="indefinite" />
    <animate attributeName="stroke-dashoffset" values="0; -300; 0" dur="2s" repeatCount="indefinite" />
  </path>       <g opacity="0.5">
    <path d="M69.8111 13.1226H64.0613" stroke="#3785D7" stroke-width="1.25" stroke-linecap="round" stroke-linejoin="round">
        <animate attributeName="transform" attributeType="XML" type="rotate" from="0 66.9352 13.1226" to="360 66.9352 13.1226" dur="2s" repeatCount="indefinite"/>
        <animate attributeName="stroke" from="#3785D7" to="#FF5733" dur="1s" repeatCount="indefinite" begin="0s; path1.end+0.5s"/>
    </path>
    <path d="M60.9854 5.01587V10.0328" stroke="#3785D7" stroke-width="1.25" stroke-linecap="round" stroke-linejoin="round">
        <animate attributeName="transform" attributeType="XML" type="rotate" from="0 60.9854 7.524" to="360 60.9854 7.524" dur="2s" repeatCount="indefinite" begin="0.2s"/>
        <animate attributeName="stroke" from="#3785D7" to="#FF5733" dur="1s" repeatCount="indefinite" begin="0.2s; path2.end+0.5s"/>
    </path>
    <path d="M64.4571 9.66882L62.9163 11.1721" stroke="#3785D7" stroke-width="1.25" stroke-linecap="round" stroke-linejoin="round">
        <animate attributeName="transform" attributeType="XML" type="rotate" from="0 63.6867 10.4201" to="360 63.6867 10.4201" dur="2s" repeatCount="indefinite" begin="0.4s"/>
        <animate attributeName="stroke" from="#3785D7" to="#FF5733" dur="1s" repeatCount="indefinite" begin="0.4s; path3.end+0.5s"/>
    </path>
    <path d="M65.7695 8.3623L65.5596 8.54127" stroke="#3785D7" stroke-width="1.25" stroke-linecap="round" stroke-linejoin="round">
        <animate attributeName="transform" attributeType="XML" type="rotate" from="0 65.1646 8.4517" to="360 65.1646 8.4517" dur="2s" repeatCount="indefinite" begin="0.6s"/>
        <animate attributeName="stroke" from="#3785D7" to="#FF5733" dur="1s" repeatCount="indefinite" begin="0.6s; path4.end+0.5s"/>
    </path>
    <path d="M67.2507 6.88818L67.1484 6.96611" stroke="#3785D7" stroke-width="1.25" stroke-linecap="round" stroke-linejoin="round">
        <animate attributeName="transform" attributeType="XML" type="rotate" from="0 67.1995 6.92814" to="360 67.1995 6.92814" dur="2s" repeatCount="indefinite" begin="0.8s"/>
        <animate attributeName="stroke" from="#3785D7" to="#FF5733" dur="1s" repeatCount="indefinite" begin="0.8s; path5.end+0.5s"/>
    </path>
    <path d="M57.3583 9.50171L59.0491 11.172" stroke="#3785D7" stroke-width="1.25" stroke-linecap="round" stroke-linejoin="round">
        <animate attributeName="transform" attributeType="XML" type="rotate" from="0 58.2037 10.336" to="360 58.2037 10.336" dur="2s" repeatCount="indefinite" begin="1s"/>
        <animate attributeName="stroke" from="#3785D7" to="#FF5733" dur="1s" repeatCount="indefinite" begin="1s; path6.end+0.5s"/>
    </path>
    <path d="M55.5059 7.67053L56.1353 8.29094" stroke="#3785D7" stroke-width="1.25" stroke-linecap="round" stroke-linejoin="round">
        <animate attributeName="transform" attributeType="XML" type="rotate" from="0 55.8204 7.98074" to="360 55.8204 7.98074" dur="2s" repeatCount="indefinite" begin="1.2s"/>
        <animate attributeName="stroke" from="#3785D7" to="#FF5733" dur="1s" repeatCount="indefinite" begin="1.2s; path7.end+0.5s"/>
    </path>
    <path d="M62.9163 15.0734L64.8529 16.9704" stroke="#3785D7" stroke-width="1.25" stroke-linecap="round" stroke-linejoin="round">
        <animate attributeName="transform" attributeType="XML" type="rotate" from="0 63.8846 16.022" to="360 63.8846 16.022" dur="2s" repeatCount="indefinite" begin="1.4s"/>
        <animate attributeName="stroke" from="#3785D7" to="#FF5733" dur="1s" repeatCount="indefinite" begin="1.4s; path8.end+0.5s"/>
    </path>
    <path d="M66.2559 18.3962L67.0952 19.2016" stroke="#3785D7" stroke-width="1.25" stroke-linecap="round" stroke-linejoin="round">
        <animate attributeName="transform" attributeType="XML" type="rotate" from="0 66.1755 18.7989" to="360 66.1755 18.7989" dur="2s" repeatCount="indefinite" begin="1.6s"/>
        <animate attributeName="stroke" from="#3785D7" to="#FF5733" dur="1s" repeatCount="indefinite" begin="1.6s; path9.end+0.5s"/>
    </path>
</g>
<g opacity="0.85">
  <path opacity="0.85" d="M154.946 144.855H160.696" stroke="#DDDDDD" stroke-width="1.25" stroke-linecap="round" stroke-linejoin="round">
        <animateTransform attributeName="transform" attributeType="XML" type="translate" values="0,0; 0,-2; 0,0" dur="1s" repeatCount="indefinite" />
    </path>
    <path opacity="0.85" d="M163.771 152.962V147.945" stroke="#DDDDDD" stroke-width="1.25" stroke-linecap="round" stroke-linejoin="round">
        <animateTransform attributeName="transform" attributeType="XML" type="translate" values="0,0; 0,-2; 0,0" dur="1s" repeatCount="indefinite" />
    </path>
    <path opacity="0.85" d="M160.3 148.309L161.841 146.805" stroke="#DDDDDD" stroke-width="1.25" stroke-linecap="round" stroke-linejoin="round">
        <animateTransform attributeName="transform" attributeType="XML" type="translate" values="0,0; 0,-2; 0,0" dur="1s" repeatCount="indefinite" />
    </path>
    <path opacity="0.85" d="M158.987 149.615L159.198 149.436" stroke="#DDDDDD" stroke-width="1.25" stroke-linecap="round" stroke-linejoin="round">
        <animateTransform attributeName="transform" attributeType="XML" type="translate" values="0,0; 0,-2; 0,0" dur="1s" repeatCount="indefinite" />
    </path>
    <path opacity="0.85" d="M157.506 151.089L157.609 151.011" stroke="#DDDDDD" stroke-width="1.25" stroke-linecap="round" stroke-linejoin="round">
        <animateTransform attributeName="transform" attributeType="XML" type="translate" values="0,0; 0,-2; 0,0" dur="1s" repeatCount="indefinite" />
    </path>
    <path opacity="0.85" d="M167.399 148.476L165.709 146.805" stroke="#DDDDDD" stroke-width="1.25" stroke-linecap="round" stroke-linejoin="round">
        <animateTransform attributeName="transform" attributeType="XML" type="translate" values="0,0; 0,-2; 0,0" dur="1s" repeatCount="indefinite" />
    </path>
    <path opacity="0.85" d="M169.251 150.307L168.622 149.686" stroke="#DDDDDD" stroke-width="1.25" stroke-linecap="round" stroke-linejoin="round">
        <animateTransform attributeName="transform" attributeType="XML" type="translate" values="0,0; 0,-2; 0,0" dur="1s" repeatCount="indefinite" />
    </path>
    <path opacity="0.85" d="M161.841 142.904L159.904 141.007" stroke="#DDDDDD" stroke-width="1.25" stroke-linecap="round" stroke-linejoin="round">
        <animateTransform attributeName="transform" attributeType="XML" type="translate" values="0,0; 0,-2; 0,0" dur="1s" repeatCount="indefinite" />
    </path>
    <path opacity="0.85" d="M158.502 139.581L157.663 138.776" stroke="#DDDDDD" stroke-width="1.25" stroke-linecap="round" stroke-linejoin="round">
        <animateTransform attributeName="transform" attributeType="XML" type="translate" values="0,0; 0,-2; 0,0" dur="1s" repeatCount="indefinite" />
    </path>
</g>
<g opacity="0.85">
   <path opacity="0.85" d="M97.0644 145.217L92.909 146.33" stroke="#DDDDDD" stroke-width="0.935145" stroke-linecap="round" stroke-linejoin="round">
        <animate attributeName="d" dur="1s" repeatCount="indefinite"
            values="M97.0644 145.217L92.909 146.33; M97.0644 146.217L92.909 147.33; M97.0644 145.217L92.909 146.33"/>
    </path>
    <path opacity="0.85" d="M89.1171 141.068L90.0886 144.692" stroke="#DDDDDD" stroke-width="0.935145" stroke-linecap="round" stroke-linejoin="round">
        <animate attributeName="d" dur="1s" repeatCount="indefinite"
            values="M89.1171 141.068L90.0886 144.692; M89.1171 142.068L90.0886 145.692; M89.1171 141.068L90.0886 144.692"/>
    </path>
    <path opacity="0.85" d="M92.5262 143.758L91.7043 145.142" stroke="#DDDDDD" stroke-width="0.935145" stroke-linecap="round" stroke-linejoin="round">
        <animate attributeName="d" dur="1s" repeatCount="indefinite"
            values="M92.5262 143.758L91.7043 145.142; M92.5262 144.758L91.7043 146.142; M92.5262 143.758L91.7043 145.142"/>
    </path>
    <path opacity="0.85" d="M93.2223 142.559L93.1052 142.729" stroke="#DDDDDD" stroke-width="0.935145" stroke-linecap="round" stroke-linejoin="round">
        <animate attributeName="d" dur="1s" repeatCount="indefinite"
            values="M93.2223 142.559L93.1052 142.729; M93.2223 143.559L93.1052 143.729; M93.2223 142.559L93.1052 142.729"/>
    </path>
    <path opacity="0.85" d="M94.0072 141.207L93.9483 141.283" stroke="#DDDDDD" stroke-width="0.935145" stroke-linecap="round" stroke-linejoin="round">
        <animate attributeName="d" dur="1s" repeatCount="indefinite"
            values="M94.0072 141.207L93.9483 141.283; M94.0072 142.207L93.9483 142.283; M94.0072 141.207L93.9483 141.283"/>
    </path>
    <path opacity="0.85" d="M87.3643 145.011L88.9097 145.891" stroke="#DDDDDD" stroke-width="0.935145" stroke-linecap="round" stroke-linejoin="round">
        <animate attributeName="d" dur="1s" repeatCount="indefinite"
            values="M87.3643 145.011L88.9097 145.891; M87.3643 146.011L88.9097 146.891; M87.3643 145.011L88.9097 145.891"/>
    </path>
    <path opacity="0.85" d="M85.6709 144.046L86.2459 144.373" stroke="#DDDDDD" stroke-width="0.935145" stroke-linecap="round" stroke-linejoin="round">
        <animate attributeName="d" dur="1s" repeatCount="indefinite"
            values="M85.6709 144.046L86.2459 144.373; M85.6709 145.046L86.2459 145.373; M85.6709 144.046L86.2459 144.373"/>
    </path>
    <path opacity="0.85" d="M92.459 147.961L94.226 148.957" stroke="#DDDDDD" stroke-width="0.935145" stroke-linecap="round" stroke-linejoin="round">
        <animate attributeName="d" dur="1s" repeatCount="indefinite"
            values="M92.459 147.961L94.226 148.957; M92.459 148.961L94.226 149.957; M92.459 147.961L94.226 148.957"/>
    </path>
    <path opacity="0.85" d="M95.5156 149.716L96.2785 150.135" stroke="#DDDDDD" stroke-width="0.935145" stroke-linecap="round" stroke-linejoin="round">
        <animate attributeName="d" dur="1s" repeatCount="indefinite"
            values="M95.5156 149.716L96.2785 150.135; M95.5156 150.716L96.2785 151.135; M95.5156 149.716L96.2785 150.135"/>
    </path>
</g>
</svg>
