<svg width="134" height="59" viewBox="0 0 134 59" fill="none" xmlns="http://www.w3.org/2000/svg">
<path style="mix-blend-mode:multiply" d="M41.5512 58.3793C23.9492 47.1621 10.1351 32.6649 0.611488 16.8242L105.377 31.248C88.571 45.0903 66.7011 55.1107 41.5512 58.3793Z" fill="url(#paint0_linear_13450_369)"/>
<path d="M1.27113 3.761C4.81464 10.1795 8.96201 16.2456 13.6569 21.8768C25.5968 36.2385 41.6859 48.5678 61.0775 56.9793C94.6502 47.0492 120.048 25.4164 133.789 0.362549C131.531 1.11526 129.273 1.76259 127.015 2.30454C126.379 3.268 125.72 4.2258 125.039 5.17798C125.292 5.24798 125.511 5.4087 125.654 5.6296C126.219 6.51026 125.039 8.20952 123.04 9.32165C121.042 10.4338 119.021 10.5015 118.564 9.57569C118.106 8.64986 119.326 7.10304 121.24 6.03608C121.526 5.8742 121.822 5.72905 122.126 5.60138C122.583 4.77716 123.035 3.94732 123.469 3.11746C120.129 3.81028 116.754 4.32285 113.359 4.65297C112.606 5.5788 111.823 6.4971 111.01 7.40788C111.2 7.51465 111.349 7.68147 111.434 7.8821C111.857 8.82487 110.587 10.3096 108.583 11.0999C106.579 11.8902 104.671 11.6645 104.332 10.7048C103.993 9.74505 105.303 8.37887 107.222 7.6111C107.545 7.48616 107.875 7.38059 108.21 7.29497C108.756 6.50839 109.287 5.72181 109.802 4.93523C106.56 5.13381 103.309 5.15831 100.064 5.00863C99.2059 5.84978 98.3309 6.70221 97.4333 7.50384C97.604 7.64067 97.7299 7.8255 97.7946 8.0345C98.0825 9.02808 96.7446 10.2926 94.7631 10.812C92.7816 11.3314 90.9976 10.812 90.8113 9.8297C90.625 8.84742 91.9799 7.66755 93.8655 7.18205C94.1586 7.1067 94.4566 7.05201 94.7574 7.01835C95.3935 6.26565 96.0182 5.51294 96.6317 4.76023C93.388 4.47168 90.1632 4.00049 86.9725 3.3489C86.0956 4.04516 85.2037 4.72447 84.2967 5.38685C84.4584 5.48057 84.5983 5.60755 84.7073 5.75936C84.8163 5.91117 84.8918 6.08435 84.9289 6.26752C85.1039 7.28367 83.687 8.37323 81.7676 8.61033C79.8482 8.84744 78.2223 8.1474 78.1433 7.11431C78.0643 6.08122 79.4812 5.12152 81.3159 4.89006H81.474C82.2568 4.13735 83.0246 3.38465 83.7773 2.63194C82.4676 2.30827 81.1748 1.95827 79.899 1.58192C73.6866 4.71765 67.1242 7.10538 60.3493 8.69503C42.5891 12.85 21.9386 12.0652 1.27113 3.761Z" fill="url(#paint1_radial_13450_369)"/>
<g style="mix-blend-mode:multiply" opacity="0.5">
<path d="M115.972 16.8129C116.023 16.5363 116.068 16.2484 116.113 15.9944C98.9517 17.4057 83.0489 14.4193 69.6921 8.61597L69.3082 9.29903C82.7384 15.1701 98.7203 18.1847 115.972 16.8129Z" fill="url(#paint2_radial_13450_369)"/>
<path d="M110.226 23.4518C110.294 23.1808 110.362 22.9155 110.435 22.6445C92.1667 23.1018 75.434 18.9073 61.6369 11.7886C61.4901 12.0087 61.3377 12.2232 61.1853 12.4378C75.0896 19.6186 91.8901 23.8695 110.226 23.4518Z" fill="url(#paint3_radial_13450_369)"/>
<path d="M100.104 31.3665C100.211 31.1068 100.319 30.8415 100.42 30.5818C81.6722 29.114 64.8887 23.1074 51.3343 14.3572L50.798 14.9499C64.4088 23.7735 81.2713 29.8479 100.104 31.3665Z" fill="url(#paint4_radial_13450_369)"/>
<path d="M88.1692 39.2022L88.6096 38.457C69.0486 34.7706 52.0167 26.489 38.7446 15.5879L38.1066 16.096C51.4352 27.0874 68.5348 35.4481 88.1692 39.2022Z" fill="url(#paint5_radial_13450_369)"/>
<path d="M75.6252 46.0555L76.1898 45.3611C55.8271 39.1513 38.6937 28.2502 25.9861 14.8765L25.2578 15.2829C37.9993 28.7583 55.1836 39.7666 75.6252 46.0555Z" fill="url(#paint6_radial_13450_369)"/>
</g>
<defs>
<linearGradient id="paint0_linear_13450_369" x1="53.254" y1="23.5704" x2="34.743" y2="57.0131" gradientUnits="userSpaceOnUse">
<stop stop-color="#DD6537"/>
<stop offset="0.28" stop-color="#E28027" stop-opacity="0.68"/>
<stop offset="0.63" stop-color="#E8A014" stop-opacity="0.32"/>
<stop offset="0.88" stop-color="#ECB408" stop-opacity="0.09"/>
<stop offset="1" stop-color="#EDBC03" stop-opacity="0"/>
</linearGradient>
<radialGradient id="paint1_radial_13450_369" cx="0" cy="0" r="1" gradientUnits="userSpaceOnUse" gradientTransform="translate(-43.1066 15.5879) rotate(180) scale(112.421 112.421)">
<stop stop-color="white"/>
<stop offset="0.25" stop-color="#FBFBFB"/>
<stop offset="0.5" stop-color="#EFEFF0"/>
<stop offset="0.74" stop-color="#DCDCDD"/>
<stop offset="0.95" stop-color="#C5C5C7"/>
</radialGradient>
<radialGradient id="paint2_radial_13450_369" cx="0" cy="0" r="1" gradientUnits="userSpaceOnUse" gradientTransform="translate(71.8825 16.4968) rotate(180) scale(43.4689 43.4687)">
<stop stop-color="#CECECC"/>
<stop offset="0.1" stop-color="#CFCFCD" stop-opacity="0.94"/>
<stop offset="0.29" stop-color="#D2D2D0" stop-opacity="0.79"/>
<stop offset="0.54" stop-color="#D6D6D6" stop-opacity="0.54"/>
<stop offset="0.83" stop-color="#DBDBDD" stop-opacity="0.21"/>
<stop offset="1" stop-color="#DFDFE1" stop-opacity="0"/>
</radialGradient>
<radialGradient id="paint3_radial_13450_369" cx="0" cy="0" r="1" gradientUnits="userSpaceOnUse" gradientTransform="translate(73.0065 20.2001) rotate(180) scale(46.7206 46.7205)">
<stop stop-color="#CECECC"/>
<stop offset="0.1" stop-color="#CFCFCD" stop-opacity="0.94"/>
<stop offset="0.29" stop-color="#D2D2D0" stop-opacity="0.79"/>
<stop offset="0.54" stop-color="#D6D6D6" stop-opacity="0.54"/>
<stop offset="0.83" stop-color="#DBDBDD" stop-opacity="0.21"/>
<stop offset="1" stop-color="#DFDFE1" stop-opacity="0"/>
</radialGradient>
<radialGradient id="paint4_radial_13450_369" cx="0" cy="0" r="1" gradientUnits="userSpaceOnUse" gradientTransform="translate(73.8986 22.8985) rotate(180) scale(49.0916 49.0916)">
<stop stop-color="#CECECC"/>
<stop offset="0.1" stop-color="#CFCFCD" stop-opacity="0.94"/>
<stop offset="0.29" stop-color="#D2D2D0" stop-opacity="0.79"/>
<stop offset="0.54" stop-color="#D6D6D6" stop-opacity="0.54"/>
<stop offset="0.83" stop-color="#DBDBDD" stop-opacity="0.21"/>
<stop offset="1" stop-color="#DFDFE1" stop-opacity="0"/>
</radialGradient>
<radialGradient id="paint5_radial_13450_369" cx="0" cy="0" r="1" gradientUnits="userSpaceOnUse" gradientTransform="translate(74.1011 22.1534) rotate(180) scale(51.1295 51.1296)">
<stop stop-color="#CECECC"/>
<stop offset="0.1" stop-color="#CFCFCD" stop-opacity="0.94"/>
<stop offset="0.29" stop-color="#D2D2D0" stop-opacity="0.79"/>
<stop offset="0.54" stop-color="#D6D6D6" stop-opacity="0.54"/>
<stop offset="0.83" stop-color="#DBDBDD" stop-opacity="0.21"/>
<stop offset="1" stop-color="#DFDFE1" stop-opacity="0"/>
</radialGradient>
<radialGradient id="paint6_radial_13450_369" cx="0" cy="0" r="1" gradientUnits="userSpaceOnUse" gradientTransform="translate(73.1526 17.8007) rotate(180) scale(52.6481 52.6482)">
<stop stop-color="#CECECC"/>
<stop offset="0.1" stop-color="#CFCFCD" stop-opacity="0.94"/>
<stop offset="0.29" stop-color="#D2D2D0" stop-opacity="0.79"/>
<stop offset="0.54" stop-color="#D6D6D6" stop-opacity="0.54"/>
<stop offset="0.83" stop-color="#DBDBDD" stop-opacity="0.21"/>
<stop offset="1" stop-color="#DFDFE1" stop-opacity="0"/>
</radialGradient>
</defs>
</svg>
